<?xml version="1.0" standalone="no"?>
<!DOCTYPE svg PUBLIC "-//W3C//DTD SVG 20010904//EN"
 "http://www.w3.org/TR/2001/REC-SVG-20010904/DTD/svg10.dtd">
<svg version="1.0" xmlns="http://www.w3.org/2000/svg"
 width="219.000000pt" height="219.000000pt" viewBox="0 0 219.000000 219.000000"
 preserveAspectRatio="xMidYMid meet">
<metadata>
Created by potrace 1.14, written by Peter Selinger 2001-2017
</metadata>
<g transform="translate(0.000000,219.000000) scale(0.100000,-0.100000)"
fill="#000000" stroke="none">
<path d="M695 1960 c-58 -77 -108 -146 -111 -154 -3 -9 47 -53 143 -125 81
-61 153 -114 158 -119 6 -4 74 -56 152 -114 l142 -107 114 152 115 151 -47 35
c-25 20 -50 39 -56 44 -5 4 -107 80 -225 168 -118 88 -224 168 -235 178 -12 9
-26 20 -32 24 -8 5 -51 -44 -118 -133z"/>
<path d="M1630 1870 c-19 -27 -38 -50 -42 -50 -5 0 -8 -4 -8 -10 0 -8 -239
-333 -273 -370 -31 -35 -88 -121 -85 -129 7 -17 301 -232 307 -224 3 5 20 27
36 49 17 21 33 43 38 49 4 5 21 28 38 50 16 22 35 47 42 55 7 8 23 31 37 50
14 19 30 42 37 50 7 8 42 55 78 105 37 49 69 92 73 95 4 3 22 27 41 54 39 56
46 41 -53 116 -26 19 -52 40 -59 45 -7 6 -37 28 -67 50 -30 22 -61 45 -68 52
-22 22 -35 15 -72 -37z"/>
<path d="M529 1732 c-9 -9 -35 -44 -59 -77 -24 -33 -48 -64 -52 -70 -10 -12
-85 -112 -113 -151 -54 -73 -157 -211 -170 -226 -52 -63 -59 -52 107 -176
l150 -113 19 23 c30 37 33 41 59 78 13 19 27 37 30 40 3 3 23 29 44 59 21 30
43 59 48 65 5 6 41 54 79 106 39 52 79 105 90 118 10 12 19 26 19 31 0 5 3 11
8 13 4 2 19 19 34 40 l28 36 -28 18 c-15 10 -32 22 -38 28 -6 6 -24 21 -40 33
-16 11 -66 49 -111 82 -44 34 -83 61 -85 60 -1 0 -10 -8 -19 -17z"/>
<path d="M803 1398 c-43 -57 -88 -118 -101 -137 -13 -18 -30 -40 -38 -49 -9
-8 -12 -18 -7 -22 4 -3 53 -40 108 -81 55 -40 112 -83 127 -94 15 -11 58 -42
95 -70 37 -27 70 -52 73 -55 3 -3 49 -39 103 -79 l98 -74 29 28 c17 16 30 33
30 37 0 5 9 19 20 31 11 12 44 56 74 97 30 41 60 82 67 91 18 20 22 39 9 39
-7 0 -189 132 -265 193 -5 4 -64 48 -130 97 -66 49 -129 96 -140 104 -40 32
-60 45 -67 46 -4 0 -42 -46 -85 -102z"/>
<path d="M1678 1207 c-46 -62 -88 -119 -95 -127 -7 -8 -36 -46 -65 -85 -28
-38 -87 -117 -130 -174 -42 -57 -75 -107 -73 -111 5 -7 259 -200 283 -214 6
-4 18 -1 25 6 14 15 65 82 87 114 8 12 88 120 178 238 89 119 165 222 168 229
3 8 -53 56 -145 124 l-150 112 -83 -112z"/>
<path d="M555 1054 c-38 -53 -75 -101 -80 -107 -60 -68 -296 -400 -289 -406 5
-5 73 -56 152 -114 l142 -107 163 218 c89 119 165 221 170 227 89 115 117 157
112 165 -9 15 -283 220 -292 220 -4 -1 -39 -44 -78 -96z"/>
<path d="M861 748 c-93 -124 -111 -153 -99 -163 7 -7 117 -90 243 -184 127
-95 241 -181 255 -191 96 -73 94 -72 105 -54 6 9 28 40 50 68 23 28 59 76 80
106 22 30 45 61 52 68 37 38 34 48 -23 88 -31 21 -61 44 -67 50 -7 5 -113 86
-237 178 -124 93 -230 172 -235 177 -7 5 -53 -48 -124 -143z"/>
</g>
</svg>
