<svg width="49" height="70" viewBox="0 0 49 70" fill="none" xmlns="http://www.w3.org/2000/svg">
<path d="M44.2567 7.39384H37.6695V4.92922C37.666 3.62311 37.2022 2.37161 36.3794 1.44805C35.5566 0.524481 34.4416 0.00390081 33.278 0H15.712C14.5484 0.00390081 13.4334 0.524481 12.6106 1.44805C11.7878 2.37161 11.324 3.62311 11.3205 4.92922V7.39384H4.73329C3.56966 7.39774 2.45469 7.91832 1.63187 8.84188C0.809062 9.76545 0.345272 11.017 0.341797 12.3231V64.0799C0.345272 65.386 0.809062 66.6375 1.63187 67.5611C2.45469 68.4847 3.56966 69.0052 4.73329 69.0091H20.1035V64.0799H4.73329V12.3231H11.3205V19.7169H37.6695V12.3231H44.2567V29.5753H48.6482V12.3231C48.6447 11.017 48.1809 9.76545 47.3581 8.84188C46.5353 7.91832 45.4203 7.39774 44.2567 7.39384ZM33.278 14.7877H15.712V4.92922H33.278V14.7877Z" fill="#FFC700"/>
</svg>
