<svg width="1804" height="278" viewBox="0 0 1804 278" fill="none" xmlns="http://www.w3.org/2000/svg">
<path fill-rule="evenodd" clip-rule="evenodd" d="M107.274 276.82C107.344 275.295 107.371 273.768 107.274 272.216C107.201 271.126 107.017 270.022 106.852 268.92C105.836 262.156 103.035 255.655 98.2416 249.705C93.4485 243.755 86.7048 238.351 78.4833 233.639C70.9779 229.266 62.2701 225.488 53.4913 222.371C44.7124 219.255 35.8302 216.806 27.9927 214.884C10.2764 211.492 0.12886 209.166 1.05881 208.511C2.04254 207.864 14.1652 208.974 35.1696 211.564C44.8114 213.181 55.83 215.501 66.9162 218.64C78.0024 221.778 89.0959 225.758 98.7468 230.513C108.906 235.581 117.395 241.458 123.401 247.912C129.407 254.365 132.968 261.384 133.955 268.606C134.117 269.781 134.176 270.961 134.209 272.119C134.263 273.708 134.179 275.264 134.041 276.82H107.274Z" fill="white" stroke="white"/>
<path fill-rule="evenodd" clip-rule="evenodd" d="M195.326 276.82C195.898 275.309 196.535 273.796 197.014 272.265C199.855 263.189 200.757 254.378 199.941 246.064C198.996 236.33 195.655 227.264 191.161 219.184C186.667 211.105 181.061 204.028 175.851 198.152C170.641 192.276 165.918 187.598 163.018 184.325C160.118 181.052 159.023 179.178 160.879 178.93C162.736 178.681 167.349 180.081 173.712 183C180.075 185.92 188.236 190.368 196.564 196.182C204.892 201.995 213.308 209.189 220.204 217.537C227.1 225.884 232.396 235.381 234.5 245.644C236.287 254.392 235.89 263.679 232.924 273.202C232.545 274.419 232.14 275.616 231.686 276.82H195.326V276.82Z" fill="white" stroke="white"/>
<path fill-rule="evenodd" clip-rule="evenodd" d="M272.087 276.82C279.302 270.431 286.759 264.347 293.618 258.646C301.008 252.503 307.686 246.772 313.122 241.514C316.292 238.442 319.065 235.54 321.312 232.839C323.558 230.138 325.259 227.64 326.546 225.352C327.807 223.091 328.627 221.037 329.164 219.245C329.7 217.454 329.929 215.93 330.093 214.665C330.257 213.401 330.414 212.397 330.684 211.709C330.953 211.021 331.376 210.642 332.119 210.594C332.861 210.547 333.905 210.836 335.074 211.467C336.243 212.098 337.565 213.08 338.789 214.375C340.013 215.669 341.089 217.28 341.829 219.197C342.569 221.114 342.894 223.321 342.673 225.764C342.462 228.232 341.754 230.95 340.393 233.857C339.032 236.764 337.062 239.876 334.567 243.113C330.314 248.648 324.62 254.632 317.934 260.924C312.513 266.026 306.382 271.361 300.288 276.82H272.087V276.82Z" fill="white" stroke="white"/>
<path fill-rule="evenodd" clip-rule="evenodd" d="M390.124 276.82C390.281 275.677 390.49 274.547 390.63 273.389C390.647 273.275 390.617 273.155 390.63 273.04C391.773 263.268 392.316 253.944 392.961 245.416C393.606 236.889 394.423 229.16 395.595 222.677C396.767 216.195 398.283 210.954 400.154 207.324C402.026 203.695 404.199 201.683 406.436 201.683C408.673 201.683 410.812 203.682 412.819 207.295C414.826 210.908 416.731 216.126 418.493 222.59C420.255 229.054 421.857 236.774 422.85 245.358C423.843 253.942 424.203 263.403 423.052 273.36C423.039 273.477 423.066 273.592 423.052 273.709C422.93 274.758 422.703 275.782 422.546 276.82H390.124V276.82Z" fill="white" stroke="white"/>
<path fill-rule="evenodd" clip-rule="evenodd" d="M474.978 276.82C475.662 271.928 477.115 267.234 479.358 262.936C482.073 257.728 485.891 253.093 490.13 249.311C494.369 245.53 498.962 242.595 502.783 240.654C506.601 238.711 509.575 237.756 510.983 237.92C512.393 238.086 512.112 239.358 510.845 241.491C509.578 243.625 507.414 246.626 505.285 250.368C503.156 254.11 501.108 258.589 499.654 263.614C498.473 267.694 497.725 272.151 497.22 276.82H474.978V276.82Z" fill="white" stroke="white"/>
<path fill-rule="evenodd" clip-rule="evenodd" d="M758.334 197.698C757.496 197.694 756.143 197.996 754.368 198.619C752.338 199.331 749.761 200.464 746.938 201.988C744.111 203.511 741.061 205.429 738.157 207.755C735.249 210.08 732.51 212.818 730.389 215.897C728.443 218.72 727.055 221.828 726.336 225.177C725.615 228.526 725.601 232.117 726.42 235.863C727.638 241.396 730.454 247.278 734.863 253.359C739.272 259.441 745.26 265.717 752.087 272.066C753.479 273.36 754.889 274.626 756.308 275.894C756.864 276.394 757.437 276.877 757.996 277.372H786.198C784.777 276.1 783.388 274.858 781.975 273.568C780.611 272.313 779.281 271.059 777.922 269.788C771.257 263.555 765.24 257.491 760.447 251.711C755.651 245.931 752.104 240.433 749.977 235.258C748.532 231.764 747.672 228.416 747.443 225.298C747.213 222.18 747.605 219.285 748.372 216.624C750.031 210.831 753.63 206.195 756.224 202.981C757.521 201.375 758.518 200.113 759.009 199.225C759.504 198.337 759.458 197.831 758.672 197.723C758.574 197.709 758.455 197.699 758.334 197.698V197.698Z" fill="white" stroke="white"/>
<path fill-rule="evenodd" clip-rule="evenodd" d="M621.746 198.25C621.44 198.233 621.03 198.266 620.734 198.396C620.439 198.525 620.3 198.774 620.228 198.947C620.077 199.254 620.063 199.651 620.228 200.109C620.554 201.013 621.5 202.229 622.859 203.68C625.563 206.564 630.123 210.526 635.606 215.352C646.431 224.877 661.128 237.959 672.534 253.389C678.073 260.89 682.703 268.956 685.889 277.373H718.567C715.101 268.177 709.262 259.416 702.177 251.386C695.168 243.435 686.933 236.19 678.503 229.783C670.073 223.376 661.481 217.813 653.615 213.233C645.616 208.573 638.473 204.962 632.976 202.432C630.188 201.144 627.899 200.166 626.096 199.47C625.175 199.111 624.401 198.854 623.769 198.657C623.359 198.476 622.874 198.45 622.555 198.396C622.237 198.341 622.052 198.268 621.746 198.25Z" fill="white" stroke="white"/>
<path fill-rule="evenodd" clip-rule="evenodd" d="M562.367 213.619C560.649 213.785 561.247 215.787 563.464 219.265C565.682 222.743 569.491 227.714 573.934 233.853C578.377 239.991 583.435 247.281 587.274 255.419C590.482 262.22 592.829 269.617 593.185 277.373H619.95C619.213 269.137 615.949 261.357 611.422 254.304C606.039 245.918 598.99 238.531 592.087 232.447C585.184 226.363 578.444 221.597 573.174 218.369C567.904 215.14 564.084 213.453 562.367 213.619V213.619Z" fill="white" stroke="white"/>
<path fill-rule="evenodd" clip-rule="evenodd" d="M833.255 215.179C831.257 215.179 829.383 216.79 827.554 219.645C825.726 222.501 823.906 226.613 822.125 231.721C820.345 236.828 818.652 242.919 817.329 249.718C816.007 256.516 815.091 264.027 815.61 271.947C815.626 272.21 815.68 272.464 815.701 272.726C815.796 274.093 815.965 275.457 816.153 276.803H845.108C844.956 275.395 844.771 273.98 844.656 272.544C844.637 272.289 844.583 272.048 844.566 271.791C844.045 264.069 844.075 256.66 843.932 249.899C843.79 243.139 843.504 237.028 842.666 231.877C841.827 226.726 840.5 222.555 838.865 219.671C837.23 216.788 835.253 215.179 833.255 215.179V215.179Z" fill="white" stroke="white"/>
<path fill-rule="evenodd" clip-rule="evenodd" d="M859.823 221.591C858.047 221.749 858.185 223.477 859.4 226.462C860.616 229.446 862.918 233.694 865.311 238.941C867.703 244.188 870.122 250.448 872.065 257.43C873.777 263.582 875.067 270.316 876.034 277.373H903.052C901.94 270.054 899.85 263.041 896.804 256.655C893.398 249.513 888.871 243.139 883.97 237.875C879.07 232.611 873.814 228.455 869.448 225.662C865.081 222.87 861.598 221.433 859.823 221.591V221.591Z" fill="white" stroke="white"/>
<path d="M1803 267.283H77.0043V277.372H1803V267.283Z" fill="white" stroke="white"/>
<path fill-rule="evenodd" clip-rule="evenodd" d="M107.274 276.82C107.344 275.295 107.371 273.768 107.274 272.216C107.201 271.126 107.017 270.022 106.852 268.92C105.836 262.156 103.035 255.655 98.2416 249.705C93.4485 243.755 86.7048 238.351 78.4833 233.639C70.9779 229.266 62.2701 225.488 53.4913 222.371C44.7124 219.255 35.8302 216.806 27.9927 214.884C10.2764 211.492 0.12886 209.166 1.05881 208.511C2.04254 207.864 14.1652 208.974 35.1696 211.564C44.8114 213.181 55.83 215.501 66.9162 218.64C78.0024 221.778 89.0959 225.758 98.7468 230.513C108.906 235.581 117.395 241.458 123.401 247.912C129.407 254.365 132.968 261.384 133.955 268.606C134.117 269.781 134.176 270.961 134.209 272.119C134.263 273.708 134.179 275.264 134.041 276.82H107.274Z" fill="white" stroke="white"/>
<path fill-rule="evenodd" clip-rule="evenodd" d="M195.326 276.82C195.898 275.309 196.535 273.796 197.014 272.265C199.855 263.189 200.757 254.378 199.941 246.064C198.996 236.33 195.655 227.264 191.161 219.184C186.667 211.105 181.061 204.028 175.851 198.152C170.641 192.276 165.918 187.598 163.018 184.325C160.118 181.052 159.023 179.178 160.879 178.93C162.736 178.681 167.349 180.081 173.712 183C180.075 185.92 188.236 190.368 196.564 196.182C204.892 201.995 213.308 209.189 220.204 217.537C227.1 225.884 232.396 235.381 234.5 245.644C236.287 254.392 235.89 263.679 232.924 273.202C232.545 274.419 232.14 275.616 231.686 276.82H195.326V276.82Z" fill="white" stroke="white"/>
<path fill-rule="evenodd" clip-rule="evenodd" d="M272.087 276.82C279.302 270.431 286.759 264.347 293.618 258.646C301.008 252.503 307.686 246.772 313.122 241.514C316.292 238.442 319.065 235.54 321.312 232.839C323.558 230.138 325.259 227.64 326.546 225.352C327.807 223.091 328.627 221.037 329.164 219.245C329.7 217.454 329.929 215.93 330.093 214.665C330.257 213.401 330.414 212.397 330.684 211.709C330.953 211.021 331.376 210.642 332.119 210.594C332.861 210.547 333.905 210.836 335.074 211.467C336.243 212.098 337.565 213.08 338.789 214.375C340.013 215.669 341.089 217.28 341.829 219.197C342.569 221.114 342.894 223.321 342.673 225.764C342.462 228.232 341.754 230.95 340.393 233.857C339.032 236.764 337.062 239.876 334.567 243.113C330.314 248.648 324.62 254.632 317.934 260.924C312.513 266.026 306.382 271.361 300.288 276.82H272.087V276.82Z" fill="white" stroke="white"/>
<path fill-rule="evenodd" clip-rule="evenodd" d="M390.124 276.82C390.281 275.677 390.49 274.547 390.63 273.389C390.647 273.275 390.617 273.155 390.63 273.04C391.773 263.268 392.316 253.944 392.961 245.416C393.606 236.889 394.423 229.16 395.595 222.677C396.767 216.195 398.283 210.954 400.154 207.324C402.026 203.695 404.199 201.683 406.436 201.683C408.673 201.683 410.812 203.682 412.819 207.295C414.826 210.908 416.731 216.126 418.493 222.59C420.255 229.054 421.857 236.774 422.85 245.358C423.843 253.942 424.203 263.403 423.052 273.36C423.039 273.477 423.066 273.592 423.052 273.709C422.93 274.758 422.703 275.782 422.546 276.82H390.124V276.82Z" fill="white" stroke="white"/>
<path fill-rule="evenodd" clip-rule="evenodd" d="M474.978 276.82C475.662 271.928 477.115 267.234 479.358 262.936C482.073 257.728 485.891 253.093 490.13 249.311C494.369 245.53 498.962 242.595 502.783 240.654C506.601 238.711 509.575 237.756 510.983 237.92C512.393 238.086 512.112 239.358 510.845 241.491C509.578 243.625 507.414 246.626 505.285 250.368C503.156 254.11 501.108 258.589 499.654 263.614C498.473 267.694 497.725 272.151 497.22 276.82H474.978V276.82Z" fill="white" stroke="white"/>
<path fill-rule="evenodd" clip-rule="evenodd" d="M758.334 197.698C757.496 197.694 756.143 197.996 754.368 198.619C752.338 199.331 749.761 200.464 746.938 201.988C744.111 203.511 741.061 205.429 738.157 207.755C735.249 210.08 732.51 212.818 730.389 215.897C728.443 218.72 727.055 221.828 726.336 225.177C725.615 228.526 725.601 232.117 726.42 235.863C727.638 241.396 730.454 247.278 734.863 253.359C739.272 259.441 745.26 265.717 752.087 272.066C753.479 273.36 754.889 274.626 756.308 275.894C756.864 276.394 757.437 276.877 757.996 277.372H786.198C784.777 276.1 783.388 274.858 781.975 273.568C780.611 272.313 779.281 271.059 777.922 269.788C771.257 263.555 765.24 257.491 760.447 251.711C755.651 245.931 752.104 240.433 749.977 235.258C748.532 231.764 747.672 228.416 747.443 225.298C747.213 222.18 747.605 219.285 748.372 216.624C750.031 210.831 753.63 206.195 756.224 202.981C757.521 201.375 758.518 200.113 759.009 199.225C759.504 198.337 759.458 197.831 758.672 197.723C758.574 197.709 758.455 197.699 758.334 197.698V197.698Z" fill="white" stroke="white"/>
<path fill-rule="evenodd" clip-rule="evenodd" d="M621.746 198.25C621.44 198.233 621.03 198.266 620.734 198.396C620.439 198.525 620.3 198.774 620.228 198.947C620.077 199.254 620.063 199.651 620.228 200.109C620.554 201.013 621.5 202.229 622.859 203.68C625.563 206.564 630.123 210.526 635.606 215.352C646.431 224.877 661.128 237.959 672.534 253.389C678.073 260.89 682.703 268.956 685.889 277.373H718.567C715.101 268.177 709.262 259.416 702.177 251.386C695.168 243.435 686.933 236.19 678.503 229.783C670.073 223.376 661.481 217.813 653.615 213.233C645.616 208.573 638.473 204.962 632.976 202.432C630.188 201.144 627.899 200.166 626.096 199.47C625.175 199.111 624.401 198.854 623.769 198.657C623.359 198.476 622.874 198.45 622.555 198.396C622.237 198.341 622.052 198.268 621.746 198.25Z" fill="white" stroke="white"/>
<path fill-rule="evenodd" clip-rule="evenodd" d="M562.367 213.619C560.649 213.785 561.247 215.787 563.464 219.265C565.682 222.743 569.491 227.714 573.934 233.853C578.377 239.991 583.435 247.281 587.274 255.419C590.482 262.22 592.829 269.617 593.185 277.373H619.95C619.213 269.137 615.949 261.357 611.422 254.304C606.039 245.918 598.99 238.531 592.087 232.447C585.184 226.363 578.444 221.597 573.174 218.369C567.904 215.14 564.084 213.453 562.367 213.619V213.619Z" fill="white" stroke="white"/>
<path fill-rule="evenodd" clip-rule="evenodd" d="M833.255 215.179C831.257 215.179 829.383 216.79 827.554 219.645C825.726 222.501 823.906 226.613 822.125 231.721C820.345 236.828 818.652 242.919 817.329 249.718C816.007 256.516 815.091 264.027 815.61 271.947C815.626 272.21 815.68 272.464 815.701 272.726C815.796 274.093 815.965 275.457 816.153 276.803H845.108C844.956 275.395 844.771 273.98 844.656 272.544C844.637 272.289 844.583 272.048 844.566 271.791C844.045 264.069 844.075 256.66 843.932 249.899C843.79 243.139 843.504 237.028 842.666 231.877C841.827 226.726 840.5 222.555 838.865 219.671C837.23 216.788 835.253 215.179 833.255 215.179V215.179Z" fill="white" stroke="white"/>
<path fill-rule="evenodd" clip-rule="evenodd" d="M859.823 221.591C858.047 221.749 858.185 223.477 859.4 226.462C860.616 229.446 862.918 233.694 865.311 238.941C867.703 244.188 870.122 250.448 872.065 257.43C873.777 263.582 875.067 270.316 876.034 277.373H903.052C901.94 270.054 899.85 263.041 896.804 256.655C893.398 249.513 888.871 243.139 883.97 237.875C879.07 232.611 873.814 228.455 869.448 225.662C865.081 222.87 861.598 221.433 859.823 221.591V221.591Z" fill="white" stroke="white"/>
<path fill-rule="evenodd" clip-rule="evenodd" d="M129.054 269.051C129.124 267.485 129.151 265.917 129.054 264.323C128.978 263.204 128.789 262.069 128.619 260.938C127.576 253.991 124.698 247.315 119.775 241.205C114.853 235.094 107.928 229.545 99.4846 224.706C91.7763 220.214 82.8351 216.335 73.8195 213.135C64.8041 209.934 55.6821 207.419 47.6336 205.445C29.4394 201.962 19.0184 199.573 19.9735 198.9C20.9837 198.236 33.433 199.376 55.0037 202.036C64.9056 203.697 76.221 206.079 87.6073 209.302C98.9902 212.525 110.384 216.612 120.294 221.496C130.729 226.7 139.445 232.735 145.613 239.363C151.781 245.99 155.44 253.199 156.453 260.615C156.618 261.823 156.68 263.033 156.712 264.224C156.766 265.854 156.683 267.452 156.539 269.051H129.054V269.051Z" fill="white" stroke="white"/>
<path fill-rule="evenodd" clip-rule="evenodd" d="M219.477 269.051C220.065 267.499 220.719 265.945 221.211 264.373C224.129 255.052 225.055 246.004 224.217 237.466C223.246 227.47 219.815 218.159 215.2 209.861C210.584 201.564 204.828 194.297 199.477 188.263C194.127 182.228 189.277 177.424 186.299 174.062C183.32 170.701 182.196 168.777 184.102 168.522C186.008 168.266 190.746 169.704 197.281 172.702C203.816 175.7 212.196 180.269 220.749 186.239C229.301 192.209 237.944 199.597 245.026 208.169C252.108 216.742 257.546 226.495 259.708 237.034C261.542 246.018 261.135 255.555 258.089 265.335C257.7 266.585 257.283 267.815 256.817 269.051H219.477V269.051Z" fill="white" stroke="white"/>
<path fill-rule="evenodd" clip-rule="evenodd" d="M298.308 269.051C305.717 262.49 313.375 256.242 320.418 250.387C328.008 244.078 334.866 238.194 340.448 232.794C343.704 229.638 346.551 226.659 348.859 223.885C351.166 221.111 352.912 218.545 354.235 216.195C355.529 213.874 356.372 211.764 356.923 209.924C357.474 208.084 357.708 206.52 357.876 205.221C358.045 203.923 358.206 202.892 358.483 202.185C358.76 201.478 359.195 201.09 359.957 201.04C360.72 200.991 361.792 201.288 362.992 201.936C364.193 202.584 365.55 203.593 366.807 204.922C368.064 206.252 369.169 207.906 369.929 209.875C370.689 211.843 371.023 214.11 370.796 216.618C370.579 219.154 369.853 221.945 368.455 224.93C367.057 227.915 365.034 231.111 362.472 234.436C358.104 240.119 352.256 246.265 345.39 252.726C339.823 257.966 333.527 263.445 327.268 269.051H298.308V269.051Z" fill="white" stroke="white"/>
<path fill-rule="evenodd" clip-rule="evenodd" d="M419.526 269.051C419.688 267.877 419.904 266.717 420.047 265.527C420.063 265.41 420.034 265.287 420.047 265.169C421.22 255.133 421.776 245.558 422.441 236.8C423.103 228.043 423.941 220.106 425.146 213.449C426.348 206.791 427.904 201.409 429.828 197.681C431.749 193.954 433.981 191.888 436.277 191.888C438.576 191.888 440.773 193.941 442.835 197.652C444.896 201.361 446.852 206.72 448.66 213.359C450.47 219.998 452.115 227.926 453.134 236.741C454.155 245.556 454.525 255.272 453.342 265.498C453.328 265.617 453.356 265.736 453.342 265.856C453.218 266.933 452.985 267.984 452.823 269.051H419.526V269.051Z" fill="white" stroke="white"/>
<path fill-rule="evenodd" clip-rule="evenodd" d="M506.668 269.051C507.371 264.027 508.865 259.207 511.167 254.793C513.955 249.444 517.875 244.685 522.231 240.8C526.583 236.917 531.298 233.904 535.221 231.91C539.144 229.915 542.197 228.933 543.643 229.103C545.091 229.272 544.802 230.579 543.502 232.77C542.2 234.962 539.976 238.044 537.791 241.886C535.605 245.729 533.503 250.329 532.009 255.489C530.796 259.679 530.028 264.257 529.509 269.051H506.668V269.051Z" fill="white" stroke="white"/>
<path fill-rule="evenodd" clip-rule="evenodd" d="M797.662 187.797C796.803 187.793 795.411 188.102 793.587 188.742C791.504 189.473 788.857 190.637 785.958 192.201C783.059 193.766 779.924 195.736 776.939 198.124C773.953 200.512 771.143 203.324 768.963 206.485C766.966 209.385 765.54 212.577 764.799 216.016C764.059 219.456 764.046 223.142 764.886 226.99C766.139 232.672 769.028 238.711 773.559 244.957C778.087 251.203 784.236 257.648 791.245 264.168C792.674 265.498 794.123 266.798 795.581 268.101C796.154 268.613 796.741 269.109 797.316 269.618H826.277C824.818 268.311 823.392 267.036 821.941 265.711C820.538 264.423 819.174 263.135 817.78 261.829C810.933 255.429 804.754 249.201 799.831 243.265C794.906 237.329 791.264 231.683 789.078 226.368C787.595 222.78 786.714 219.342 786.476 216.141C786.241 212.938 786.644 209.965 787.43 207.232C789.135 201.284 792.831 196.521 795.495 193.222C796.827 191.572 797.851 190.276 798.356 189.364C798.862 188.453 798.818 187.933 798.01 187.822C797.908 187.808 797.786 187.797 797.662 187.797V187.797Z" fill="white" stroke="white"/>
<path fill-rule="evenodd" clip-rule="evenodd" d="M657.392 188.363C657.078 188.345 656.656 188.38 656.353 188.512C656.05 188.645 655.908 188.901 655.834 189.079C655.678 189.393 655.664 189.802 655.834 190.272C656.168 191.201 657.14 192.45 658.535 193.939C661.312 196.901 665.995 200.97 671.626 205.926C682.743 215.708 697.836 229.142 709.549 244.989C715.238 252.691 719.992 260.975 723.264 269.619H756.823C753.263 260.175 747.268 251.178 739.992 242.931C732.794 234.765 724.336 227.326 715.679 220.746C707.022 214.167 698.198 208.453 690.12 203.75C681.905 198.965 674.57 195.256 668.925 192.657C666.061 191.335 663.711 190.33 661.86 189.616C660.914 189.247 660.119 188.983 659.47 188.781C659.049 188.595 658.551 188.569 658.223 188.512C657.896 188.456 657.706 188.381 657.392 188.363V188.363Z" fill="white" stroke="white"/>
<path fill-rule="evenodd" clip-rule="evenodd" d="M596.412 204.146C594.649 204.317 595.262 206.373 597.539 209.944C599.817 213.516 603.729 218.621 608.291 224.925C612.854 231.229 618.049 238.715 621.991 247.073C625.286 254.057 627.695 261.653 628.061 269.619H655.548C654.791 261.161 651.439 253.171 646.79 245.928C641.262 237.316 634.022 229.73 626.934 223.482C619.845 217.234 612.923 212.339 607.511 209.024C602.099 205.708 598.176 203.976 596.412 204.146V204.146Z" fill="white" stroke="white"/>
<path fill-rule="evenodd" clip-rule="evenodd" d="M874.603 205.748C872.551 205.748 870.626 207.402 868.749 210.335C866.871 213.268 865.001 217.491 863.173 222.736C861.345 227.981 859.607 234.236 858.248 241.218C856.89 248.2 855.949 255.913 856.482 264.047C856.499 264.317 856.554 264.577 856.575 264.847C856.674 266.25 856.846 267.651 857.04 269.034H886.776C886.619 267.588 886.429 266.134 886.311 264.66C886.292 264.398 886.236 264.15 886.219 263.887C885.684 255.957 885.714 248.347 885.568 241.405C885.422 234.462 885.128 228.186 884.267 222.896C883.406 217.606 882.043 213.323 880.364 210.362C878.685 207.401 876.655 205.748 874.603 205.748V205.748Z" fill="white" stroke="white"/>
<path fill-rule="evenodd" clip-rule="evenodd" d="M901.887 212.333C900.064 212.496 900.205 214.27 901.453 217.335C902.701 220.4 905.066 224.762 907.523 230.151C909.98 235.54 912.464 241.967 914.46 249.138C916.218 255.456 917.543 262.371 918.535 269.619H946.282C945.14 262.102 942.994 254.9 939.865 248.342C936.367 241.008 931.718 234.462 926.686 229.056C921.653 223.65 916.256 219.382 911.772 216.514C907.287 213.646 903.71 212.171 901.887 212.333V212.333Z" fill="white" stroke="white"/>
<path fill-rule="evenodd" clip-rule="evenodd" d="M183.323 271.456C183.385 270.105 183.406 268.754 183.323 267.38C183.258 266.415 183.096 265.438 182.947 264.463C182.047 258.475 179.567 252.72 175.325 247.453C171.081 242.186 165.112 237.403 157.836 233.231C151.192 229.359 143.484 226.016 135.711 223.257C127.94 220.498 120.078 218.33 113.14 216.629C97.4582 213.626 88.4746 211.568 89.2986 210.988C90.1686 210.415 100.9 211.397 119.494 213.69C128.03 215.121 137.783 217.175 147.596 219.954C157.409 222.732 167.231 226.255 175.774 230.464C184.765 234.95 192.282 240.152 197.597 245.866C202.914 251.578 206.067 257.792 206.94 264.184C207.083 265.225 207.137 266.268 207.164 267.294C207.21 268.7 207.137 270.078 207.015 271.456H183.323V271.456Z" fill="white" stroke="white"/>
<path fill-rule="evenodd" clip-rule="evenodd" d="M261.266 271.456C261.772 270.118 262.336 268.778 262.76 267.423C265.275 259.389 266.073 251.59 265.351 244.23C264.515 235.613 261.557 227.588 257.579 220.435C253.6 213.283 248.639 207.019 244.026 201.818C239.414 196.616 235.234 192.475 232.666 189.577C230.099 186.68 229.13 185.021 230.773 184.801C232.416 184.581 236.5 185.82 242.133 188.405C247.766 190.989 254.99 194.927 262.362 200.073C269.734 205.219 277.184 211.587 283.288 218.977C289.392 226.366 294.081 234.773 295.944 243.858C297.525 251.602 297.174 259.823 294.548 268.253C294.213 269.33 293.854 270.39 293.452 271.456H261.266V271.456Z" fill="white" stroke="white"/>
<path fill-rule="evenodd" clip-rule="evenodd" d="M329.216 271.456C335.603 265.801 342.204 260.415 348.275 255.368C354.818 249.93 360.729 244.858 365.54 240.203C368.347 237.483 370.801 234.915 372.79 232.524C374.779 230.132 376.284 227.921 377.424 225.895C378.54 223.894 379.266 222.076 379.741 220.49C380.216 218.904 380.418 217.555 380.563 216.436C380.708 215.317 380.848 214.428 381.087 213.819C381.325 213.21 381.7 212.875 382.357 212.832C383.014 212.79 383.938 213.046 384.973 213.604C386.008 214.163 387.178 215.032 388.262 216.178C389.345 217.324 390.297 218.75 390.952 220.447C391.607 222.144 391.896 224.098 391.7 226.26C391.513 228.445 390.887 230.851 389.682 233.424C388.477 235.998 386.733 238.753 384.525 241.619C380.759 246.517 375.719 251.815 369.801 257.384C365.001 261.901 359.575 266.624 354.18 271.456H329.216V271.456Z" fill="white" stroke="white"/>
<path fill-rule="evenodd" clip-rule="evenodd" d="M433.705 271.456C433.843 270.443 434.029 269.443 434.153 268.418C434.167 268.317 434.143 268.211 434.153 268.109C435.164 259.458 435.645 251.205 436.215 243.656C436.788 236.108 437.509 229.266 438.547 223.527C439.584 217.788 440.927 213.149 442.583 209.937C444.239 206.723 446.163 204.943 448.144 204.943C450.124 204.943 452.018 206.712 453.793 209.911C455.571 213.109 457.257 217.728 458.816 223.45C460.377 229.172 461.793 236.006 462.674 243.604C463.552 251.203 463.871 259.578 462.852 268.392C462.842 268.496 462.863 268.598 462.852 268.701C462.744 269.63 462.544 270.536 462.404 271.456H433.705V271.456Z" fill="white" stroke="white"/>
<path fill-rule="evenodd" clip-rule="evenodd" d="M508.819 271.456C509.424 267.125 510.71 262.971 512.696 259.166C515.1 254.555 518.48 250.452 522.233 247.105C525.983 243.757 530.05 241.16 533.43 239.441C536.812 237.722 539.444 236.876 540.69 237.021C541.938 237.168 541.689 238.294 540.568 240.183C539.447 242.071 537.531 244.728 535.645 248.041C533.762 251.353 531.949 255.318 530.66 259.766C529.617 263.377 528.956 267.323 528.507 271.456H508.819V271.456Z" fill="white" stroke="white"/>
<path fill-rule="evenodd" clip-rule="evenodd" d="M759.65 201.417C758.909 201.413 757.71 201.679 756.137 202.231C754.341 202.862 752.06 203.864 749.561 205.213C747.062 206.561 744.36 208.26 741.788 210.318C739.213 212.376 736.789 214.8 734.912 217.525C733.191 220.024 731.961 222.776 731.324 225.74C730.686 228.706 730.672 231.883 731.396 235.201C732.477 240.097 734.968 245.304 738.873 250.687C742.777 256.071 748.078 261.627 754.119 267.247C755.351 268.393 756.599 269.514 757.856 270.636C758.347 271.078 758.855 271.506 759.35 271.944H784.315C783.056 270.819 781.826 269.719 780.578 268.577C779.368 267.466 778.192 266.356 776.99 265.231C771.089 259.714 765.764 254.346 761.519 249.229C757.272 244.112 754.132 239.245 752.249 234.664C750.971 231.571 750.212 228.608 750.009 225.848C749.804 223.088 750.15 220.525 750.831 218.169C752.301 213.042 755.486 208.937 757.783 206.092C758.928 204.67 759.812 203.554 760.247 202.767C760.684 201.982 760.644 201.534 759.949 201.437C759.863 201.426 759.755 201.417 759.65 201.417V201.417Z" fill="white" stroke="white"/>
<path fill-rule="evenodd" clip-rule="evenodd" d="M638.74 201.905C638.469 201.889 638.105 201.919 637.844 202.033C637.583 202.148 637.46 202.368 637.396 202.522C637.262 202.793 637.25 203.145 637.396 203.55C637.684 204.351 638.522 205.427 639.725 206.711C642.118 209.264 646.155 212.771 651.009 217.044C660.591 225.475 673.601 237.055 683.698 250.714C688.601 257.354 692.699 264.494 695.52 271.945H724.447C721.378 263.805 716.21 256.05 709.939 248.941C703.734 241.902 696.444 235.49 688.982 229.818C681.52 224.147 673.913 219.222 666.951 215.167C659.869 211.043 653.547 207.846 648.68 205.606C646.212 204.466 644.186 203.6 642.591 202.984C641.775 202.666 641.09 202.439 640.531 202.265C640.168 202.104 639.738 202.082 639.456 202.033C639.174 201.985 639.01 201.92 638.74 201.905V201.905Z" fill="white" stroke="white"/>
<path fill-rule="evenodd" clip-rule="evenodd" d="M586.176 215.509C584.656 215.656 585.185 217.428 587.148 220.507C589.111 223.586 592.483 227.986 596.416 233.42C600.349 238.854 604.827 245.307 608.225 252.511C611.064 258.531 613.142 265.079 613.457 271.945H637.15C636.497 264.655 633.608 257.768 629.601 251.524C624.836 244.101 618.595 237.562 612.485 232.176C606.374 226.79 600.408 222.571 595.743 219.713C591.078 216.855 587.696 215.362 586.176 215.509Z" fill="white" stroke="white"/>
<path fill-rule="evenodd" clip-rule="evenodd" d="M825.971 216.89C824.202 216.89 822.543 218.316 820.925 220.844C819.306 223.372 817.695 227.012 816.119 231.533C814.543 236.054 813.045 241.446 811.874 247.464C810.702 253.482 809.892 260.131 810.352 267.142C810.365 267.375 810.414 267.599 810.432 267.832C810.516 269.041 810.666 270.249 810.832 271.441H836.464C836.329 270.194 836.165 268.942 836.063 267.671C836.047 267.444 835.999 267.231 835.983 267.004C835.523 260.169 835.549 253.609 835.423 247.625C835.297 241.641 835.044 236.231 834.301 231.671C833.559 227.111 832.384 223.419 830.937 220.867C829.49 218.314 827.74 216.89 825.971 216.89V216.89Z" fill="white" stroke="white"/>
<path fill-rule="evenodd" clip-rule="evenodd" d="M849.489 222.566C847.917 222.706 848.039 224.236 849.115 226.878C850.191 229.52 852.229 233.28 854.347 237.925C856.465 242.569 858.606 248.11 860.326 254.291C861.841 259.737 862.984 265.698 863.839 271.945H887.756C886.772 265.466 884.922 259.258 882.225 253.605C879.21 247.283 875.203 241.641 870.865 236.981C866.527 232.321 861.875 228.642 858.009 226.17C854.144 223.698 851.06 222.426 849.489 222.566V222.566Z" fill="white" stroke="white"/>
<path fill-rule="evenodd" clip-rule="evenodd" d="M569.836 271.456C569.33 270.118 568.766 268.778 568.342 267.423C565.827 259.389 565.029 251.59 565.751 244.23C566.587 235.613 569.545 227.588 573.523 220.435C577.502 213.283 582.464 207.019 587.076 201.818C591.688 196.616 595.868 192.475 598.436 189.577C601.003 186.68 601.972 185.021 600.329 184.801C598.686 184.581 594.602 185.82 588.969 188.405C583.336 190.989 576.112 194.927 568.74 200.073C561.368 205.219 553.918 211.587 547.814 218.977C541.71 226.366 537.021 234.773 535.159 243.858C533.577 251.602 533.928 259.823 536.554 268.253C536.889 269.33 537.248 270.39 537.65 271.456H569.836V271.456Z" fill="white" stroke="white"/>
<path fill-rule="evenodd" clip-rule="evenodd" d="M474.027 201.417C474.767 201.413 475.967 201.679 477.54 202.231C479.336 202.862 481.617 203.864 484.116 205.213C486.615 206.561 489.317 208.26 491.889 210.318C494.464 212.376 496.887 214.8 498.765 217.525C500.486 220.024 501.716 222.776 502.353 225.74C502.991 228.706 503.004 231.883 502.278 235.201C501.2 240.097 498.708 245.304 494.804 250.687C490.9 256.071 485.599 261.627 479.558 267.247C478.326 268.393 477.078 269.514 475.821 270.636C475.329 271.078 474.822 271.506 474.324 271.944H449.362C450.621 270.819 451.85 269.719 453.099 268.577C454.309 267.466 455.484 266.356 456.687 265.231C462.588 259.714 467.913 254.346 472.158 249.229C476.405 244.112 479.544 239.245 481.425 234.664C482.705 231.571 483.465 228.608 483.667 225.848C483.873 223.088 483.527 220.525 482.846 218.169C481.376 213.042 478.191 208.937 475.894 206.092C474.749 204.67 473.865 203.554 473.43 202.767C472.992 201.982 473.033 201.534 473.727 201.437C473.814 201.426 473.922 201.417 474.027 201.417V201.417Z" fill="white" stroke="white"/>
<path fill-rule="evenodd" clip-rule="evenodd" d="M824.594 205.782C824.864 205.766 825.228 205.796 825.489 205.91C825.75 206.025 825.873 206.245 825.937 206.399C826.071 206.67 826.083 207.021 825.937 207.427C825.649 208.228 824.811 209.304 823.608 210.588C821.215 213.141 817.178 216.648 812.324 220.921C802.742 229.352 789.732 240.932 779.635 254.591C774.732 261.231 770.634 268.371 767.813 275.822H738.886C741.955 267.682 747.123 259.927 753.395 252.818C759.599 245.779 766.889 239.366 774.351 233.695C781.813 228.024 789.42 223.099 796.383 219.044C803.464 214.92 809.786 211.723 814.653 209.483C817.121 208.343 819.147 207.477 820.743 206.861C821.558 206.543 822.243 206.316 822.802 206.141C823.165 205.981 823.595 205.959 823.877 205.91C824.159 205.862 824.323 205.797 824.594 205.782V205.782Z" fill="white" stroke="white"/>
<path fill-rule="evenodd" clip-rule="evenodd" d="M947.405 215.509C948.925 215.656 948.396 217.428 946.433 220.507C944.47 223.586 941.098 227.986 937.165 233.42C933.232 238.854 928.754 245.307 925.356 252.511C922.516 258.531 920.439 265.079 920.124 271.945H896.431C897.084 264.655 899.973 257.768 903.98 251.524C908.745 244.101 914.985 237.562 921.096 232.176C927.206 226.79 933.173 222.571 937.838 219.713C942.503 216.855 945.885 215.362 947.405 215.509V215.509Z" fill="white" stroke="white"/>
<path fill-rule="evenodd" clip-rule="evenodd" d="M350.967 214.563C352.736 214.563 354.395 215.989 356.014 218.517C357.632 221.045 359.243 224.686 360.82 229.207C362.395 233.728 363.894 239.12 365.065 245.138C366.236 251.156 367.046 257.804 366.587 264.816C366.573 265.049 366.525 265.273 366.507 265.505C366.422 266.715 366.273 267.922 366.106 269.114H340.474C340.609 267.868 340.773 266.615 340.875 265.344C340.891 265.118 340.94 264.905 340.955 264.678C341.415 257.842 341.39 251.283 341.515 245.299C341.641 239.314 341.894 233.905 342.637 229.345C343.379 224.785 344.554 221.093 346.001 218.54C347.448 215.988 349.199 214.563 350.967 214.563V214.563Z" fill="white" stroke="white"/>
<path fill-rule="evenodd" clip-rule="evenodd" d="M527.386 219.465C528.957 219.604 528.835 221.134 527.759 223.776C526.684 226.418 524.645 230.178 522.527 234.823C520.409 239.468 518.268 245.008 516.548 251.19C515.033 256.635 513.891 262.596 513.035 268.843H489.118C490.102 262.364 491.952 256.156 494.649 250.503C497.665 244.181 501.672 238.539 506.01 233.879C510.348 229.219 515 225.54 518.865 223.068C522.731 220.596 525.814 219.325 527.386 219.465V219.465Z" fill="white" stroke="white"/>
<path fill-rule="evenodd" clip-rule="evenodd" d="M917.826 276.82C917.896 275.295 917.924 273.768 917.826 272.216C917.753 271.126 917.572 270.022 917.405 268.92C916.389 262.156 913.587 255.655 908.794 249.705C904.001 243.755 897.257 238.351 889.035 233.639C881.53 229.266 872.822 225.488 864.043 222.371C855.265 219.255 846.381 216.806 838.546 214.884C820.827 211.492 810.682 209.166 811.611 208.511C812.595 207.864 824.718 208.974 845.722 211.564C855.365 213.181 866.383 215.501 877.469 218.64C888.555 221.778 899.648 225.758 909.299 230.513C919.458 235.581 927.947 241.458 933.954 247.912C939.96 254.365 943.521 261.384 944.507 268.606C944.669 269.781 944.728 270.961 944.761 272.119C944.815 273.708 944.731 275.264 944.593 276.82H917.826V276.82Z" fill="white" stroke="white"/>
<path fill-rule="evenodd" clip-rule="evenodd" d="M1005.88 276.82C1006.45 275.309 1007.09 273.796 1007.57 272.265C1010.41 263.189 1011.31 254.378 1010.49 246.064C1009.55 236.33 1006.21 227.264 1001.71 219.184C997.219 211.105 991.614 204.028 986.403 198.152C981.193 192.276 976.471 187.598 973.57 184.325C970.67 181.052 969.575 179.178 971.432 178.93C973.288 178.681 977.901 180.081 984.265 183C990.628 185.92 998.788 190.368 1007.12 196.182C1015.44 201.995 1023.86 209.189 1030.76 217.537C1037.65 225.884 1042.95 235.381 1045.05 245.644C1046.84 254.392 1046.44 263.679 1043.48 273.202C1043.1 274.419 1042.69 275.616 1042.24 276.82H1005.88V276.82Z" fill="white" stroke="white"/>
<path fill-rule="evenodd" clip-rule="evenodd" d="M1082.64 276.82C1089.85 270.431 1097.31 264.347 1104.17 258.646C1111.56 252.503 1118.24 246.772 1123.67 241.514C1126.84 238.442 1129.62 235.54 1131.86 232.839C1134.11 230.138 1135.81 227.64 1137.1 225.352C1138.36 223.091 1139.18 221.037 1139.72 219.245C1140.25 217.454 1140.48 215.93 1140.64 214.665C1140.81 213.401 1140.97 212.397 1141.24 211.709C1141.51 211.021 1141.93 210.642 1142.67 210.594C1143.41 210.547 1144.46 210.836 1145.63 211.467C1146.8 212.098 1148.12 213.08 1149.34 214.375C1150.57 215.669 1151.64 217.28 1152.38 219.197C1153.12 221.114 1153.45 223.321 1153.23 225.764C1153.01 228.232 1152.31 230.95 1150.95 233.857C1149.58 236.764 1147.61 239.876 1145.12 243.113C1140.87 248.648 1135.17 254.632 1128.49 260.924C1123.06 266.026 1116.93 271.361 1110.84 276.82H1082.64V276.82Z" fill="white" stroke="white"/>
<path fill-rule="evenodd" clip-rule="evenodd" d="M1479.47 276.82C1479.31 275.677 1479.1 274.547 1478.96 273.389C1478.95 273.275 1478.98 273.155 1478.96 273.04C1477.82 263.268 1477.28 253.944 1476.63 245.416C1475.99 236.889 1475.17 229.16 1474 222.677C1472.83 216.195 1471.31 210.954 1469.44 207.324C1467.57 203.695 1465.39 201.683 1463.16 201.683C1460.92 201.683 1458.78 203.682 1456.77 207.295C1454.77 210.908 1452.86 216.126 1451.1 222.59C1449.34 229.054 1447.74 236.774 1446.74 245.358C1445.75 253.942 1445.39 263.403 1446.54 273.36C1446.55 273.477 1446.53 273.592 1446.54 273.709C1446.66 274.758 1446.89 275.782 1447.05 276.82H1479.47V276.82Z" fill="white" stroke="white"/>
<path fill-rule="evenodd" clip-rule="evenodd" d="M1394.61 276.82C1393.93 271.928 1392.48 267.234 1390.24 262.936C1387.52 257.728 1383.7 253.093 1379.46 249.311C1375.22 245.53 1370.63 242.595 1366.81 240.654C1362.99 238.711 1360.02 237.756 1358.61 237.92C1357.2 238.086 1357.48 239.358 1358.75 241.491C1360.02 243.625 1362.18 246.626 1364.31 250.368C1366.44 254.11 1368.49 258.589 1369.94 263.614C1371.12 267.694 1371.87 272.151 1372.37 276.82H1394.61V276.82Z" fill="white" stroke="white"/>
<path fill-rule="evenodd" clip-rule="evenodd" d="M1568.89 197.698C1568.05 197.694 1566.69 197.996 1564.92 198.619C1562.89 199.331 1560.31 200.464 1557.49 201.988C1554.66 203.511 1551.61 205.429 1548.71 207.755C1545.8 210.08 1543.06 212.818 1540.94 215.897C1539 218.72 1537.61 221.828 1536.89 225.177C1536.17 228.526 1536.15 232.117 1536.97 235.863C1538.19 241.396 1541.01 247.278 1545.42 253.359C1549.82 259.441 1555.81 265.717 1562.64 272.066C1564.03 273.36 1565.44 274.626 1566.86 275.894C1567.42 276.394 1567.99 276.877 1568.55 277.372H1596.75C1595.33 276.1 1593.94 274.858 1592.53 273.568C1591.16 272.313 1589.83 271.059 1588.47 269.788C1581.81 263.555 1575.79 257.491 1571 251.711C1566.2 245.931 1562.66 240.433 1560.53 235.258C1559.08 231.764 1558.22 228.416 1558 225.298C1557.77 222.18 1558.16 219.285 1558.92 216.624C1560.58 210.831 1564.18 206.195 1566.78 202.981C1568.07 201.375 1569.07 200.113 1569.56 199.225C1570.06 198.337 1570.01 197.831 1569.22 197.723C1569.13 197.709 1569.01 197.699 1568.89 197.698V197.698Z" fill="white" stroke="white"/>
<path fill-rule="evenodd" clip-rule="evenodd" d="M1247.85 198.25C1248.15 198.233 1248.56 198.266 1248.86 198.396C1249.15 198.525 1249.29 198.774 1249.37 198.947C1249.52 199.254 1249.53 199.651 1249.37 200.109C1249.04 201.013 1248.09 202.229 1246.73 203.68C1244.03 206.564 1239.47 210.526 1233.99 215.352C1223.16 224.877 1208.47 237.959 1197.06 253.389C1191.52 260.89 1186.89 268.956 1183.7 277.373H1151.03C1154.49 268.177 1160.33 259.416 1167.42 251.386C1174.43 243.435 1182.66 236.19 1191.09 229.783C1199.52 223.376 1208.11 217.813 1215.98 213.233C1223.98 208.573 1231.12 204.962 1236.62 202.432C1239.41 201.144 1241.69 200.166 1243.5 199.47C1244.42 199.111 1245.19 198.854 1245.82 198.657C1246.23 198.476 1246.72 198.45 1247.04 198.396C1247.36 198.341 1247.54 198.268 1247.85 198.25V198.25Z" fill="white" stroke="white"/>
<path fill-rule="evenodd" clip-rule="evenodd" d="M1307.23 213.619C1308.94 213.785 1308.35 215.787 1306.13 219.265C1303.91 222.743 1300.1 227.714 1295.66 233.853C1291.22 239.991 1286.16 247.281 1282.32 255.419C1279.11 262.22 1276.76 269.617 1276.41 277.373H1249.64C1250.38 269.137 1253.64 261.357 1258.17 254.304C1263.55 245.918 1270.6 238.531 1277.51 232.447C1284.41 226.363 1291.15 221.597 1296.42 218.369C1301.69 215.14 1305.51 213.453 1307.23 213.619V213.619Z" fill="white" stroke="white"/>
<path fill-rule="evenodd" clip-rule="evenodd" d="M1643.81 215.179C1641.81 215.179 1639.94 216.79 1638.11 219.645C1636.28 222.501 1634.46 226.613 1632.68 231.721C1630.9 236.828 1629.2 242.919 1627.88 249.718C1626.56 256.516 1625.64 264.027 1626.16 271.947C1626.18 272.21 1626.23 272.464 1626.25 272.726C1626.35 274.093 1626.52 275.457 1626.71 276.803H1655.66C1655.51 275.395 1655.32 273.98 1655.21 272.544C1655.19 272.289 1655.14 272.048 1655.12 271.791C1654.6 264.069 1654.63 256.66 1654.48 249.899C1654.34 243.139 1654.06 237.028 1653.22 231.877C1652.38 226.726 1651.05 222.555 1649.42 219.671C1647.78 216.788 1645.81 215.179 1643.81 215.179V215.179Z" fill="white" stroke="white"/>
<path fill-rule="evenodd" clip-rule="evenodd" d="M1670.37 221.591C1668.6 221.749 1668.74 223.477 1669.95 226.462C1671.17 229.446 1673.47 233.694 1675.86 238.941C1678.26 244.188 1680.67 250.448 1682.62 257.43C1684.33 263.582 1685.62 270.316 1686.59 277.373H1713.6C1712.49 270.054 1710.4 263.041 1707.36 256.655C1703.95 249.513 1699.42 243.139 1694.52 237.875C1689.62 232.611 1684.37 228.455 1680 225.662C1675.63 222.87 1672.15 221.433 1670.37 221.591V221.591Z" fill="white" stroke="white"/>
<path fill-rule="evenodd" clip-rule="evenodd" d="M917.826 276.82C917.896 275.295 917.924 273.768 917.826 272.216C917.753 271.126 917.572 270.022 917.405 268.92C916.389 262.156 913.587 255.655 908.794 249.705C904.001 243.755 897.257 238.351 889.035 233.639C881.53 229.266 872.822 225.488 864.043 222.371C855.265 219.255 846.381 216.806 838.546 214.884C820.827 211.492 810.682 209.166 811.611 208.511C812.595 207.864 824.718 208.974 845.722 211.564C855.365 213.181 866.383 215.501 877.469 218.64C888.555 221.778 899.648 225.758 909.299 230.513C919.458 235.581 927.947 241.458 933.954 247.912C939.96 254.365 943.521 261.384 944.507 268.606C944.669 269.781 944.728 270.961 944.761 272.119C944.815 273.708 944.731 275.264 944.593 276.82H917.826V276.82Z" fill="white" stroke="white"/>
<path fill-rule="evenodd" clip-rule="evenodd" d="M1005.88 276.82C1006.45 275.309 1007.09 273.796 1007.57 272.265C1010.41 263.189 1011.31 254.378 1010.49 246.064C1009.55 236.33 1006.21 227.264 1001.71 219.184C997.219 211.105 991.614 204.028 986.403 198.152C981.193 192.276 976.471 187.598 973.57 184.325C970.67 181.052 969.575 179.178 971.432 178.93C973.288 178.681 977.901 180.081 984.265 183C990.628 185.92 998.788 190.368 1007.12 196.182C1015.44 201.995 1023.86 209.189 1030.76 217.537C1037.65 225.884 1042.95 235.381 1045.05 245.644C1046.84 254.392 1046.44 263.679 1043.48 273.202C1043.1 274.419 1042.69 275.616 1042.24 276.82H1005.88V276.82Z" fill="white" stroke="white"/>
<path fill-rule="evenodd" clip-rule="evenodd" d="M1082.64 276.82C1089.85 270.431 1097.31 264.347 1104.17 258.646C1111.56 252.503 1118.24 246.772 1123.67 241.514C1126.84 238.442 1129.62 235.54 1131.86 232.839C1134.11 230.138 1135.81 227.64 1137.1 225.352C1138.36 223.091 1139.18 221.037 1139.72 219.245C1140.25 217.454 1140.48 215.93 1140.64 214.665C1140.81 213.401 1140.97 212.397 1141.24 211.709C1141.51 211.021 1141.93 210.642 1142.67 210.594C1143.41 210.547 1144.46 210.836 1145.63 211.467C1146.8 212.098 1148.12 213.08 1149.34 214.375C1150.57 215.669 1151.64 217.28 1152.38 219.197C1153.12 221.114 1153.45 223.321 1153.23 225.764C1153.01 228.232 1152.31 230.95 1150.95 233.857C1149.58 236.764 1147.61 239.876 1145.12 243.113C1140.87 248.648 1135.17 254.632 1128.49 260.924C1123.06 266.026 1116.93 271.361 1110.84 276.82H1082.64V276.82Z" fill="white" stroke="white"/>
<path fill-rule="evenodd" clip-rule="evenodd" d="M1479.47 276.82C1479.31 275.677 1479.1 274.547 1478.96 273.389C1478.95 273.275 1478.98 273.155 1478.96 273.04C1477.82 263.268 1477.28 253.944 1476.63 245.416C1475.99 236.889 1475.17 229.16 1474 222.677C1472.83 216.195 1471.31 210.954 1469.44 207.324C1467.57 203.695 1465.39 201.683 1463.16 201.683C1460.92 201.683 1458.78 203.682 1456.77 207.295C1454.77 210.908 1452.86 216.126 1451.1 222.59C1449.34 229.054 1447.74 236.774 1446.74 245.358C1445.75 253.942 1445.39 263.403 1446.54 273.36C1446.55 273.477 1446.53 273.592 1446.54 273.709C1446.66 274.758 1446.89 275.782 1447.05 276.82H1479.47V276.82Z" fill="white" stroke="white"/>
<path fill-rule="evenodd" clip-rule="evenodd" d="M1394.61 276.82C1393.93 271.928 1392.48 267.234 1390.24 262.936C1387.52 257.728 1383.7 253.093 1379.46 249.311C1375.22 245.53 1370.63 242.595 1366.81 240.654C1362.99 238.711 1360.02 237.756 1358.61 237.92C1357.2 238.086 1357.48 239.358 1358.75 241.491C1360.02 243.625 1362.18 246.626 1364.31 250.368C1366.44 254.11 1368.49 258.589 1369.94 263.614C1371.12 267.694 1371.87 272.151 1372.37 276.82H1394.61V276.82Z" fill="white" stroke="white"/>
<path fill-rule="evenodd" clip-rule="evenodd" d="M1568.89 197.698C1568.05 197.694 1566.69 197.996 1564.92 198.619C1562.89 199.331 1560.31 200.464 1557.49 201.988C1554.66 203.511 1551.61 205.429 1548.71 207.755C1545.8 210.08 1543.06 212.818 1540.94 215.897C1539 218.72 1537.61 221.828 1536.89 225.177C1536.17 228.526 1536.15 232.117 1536.97 235.863C1538.19 241.396 1541.01 247.278 1545.42 253.359C1549.82 259.441 1555.81 265.717 1562.64 272.066C1564.03 273.36 1565.44 274.626 1566.86 275.894C1567.42 276.394 1567.99 276.877 1568.55 277.372H1596.75C1595.33 276.1 1593.94 274.858 1592.53 273.568C1591.16 272.313 1589.83 271.059 1588.47 269.788C1581.81 263.555 1575.79 257.491 1571 251.711C1566.2 245.931 1562.66 240.433 1560.53 235.258C1559.08 231.764 1558.22 228.416 1558 225.298C1557.77 222.18 1558.16 219.285 1558.92 216.624C1560.58 210.831 1564.18 206.195 1566.78 202.981C1568.07 201.375 1569.07 200.113 1569.56 199.225C1570.06 198.337 1570.01 197.831 1569.22 197.723C1569.13 197.709 1569.01 197.699 1568.89 197.698V197.698Z" fill="white" stroke="white"/>
<path fill-rule="evenodd" clip-rule="evenodd" d="M1247.85 198.25C1248.15 198.233 1248.56 198.266 1248.86 198.396C1249.15 198.525 1249.29 198.774 1249.37 198.947C1249.52 199.254 1249.53 199.651 1249.37 200.109C1249.04 201.013 1248.09 202.229 1246.73 203.68C1244.03 206.564 1239.47 210.526 1233.99 215.352C1223.16 224.877 1208.47 237.959 1197.06 253.389C1191.52 260.89 1186.89 268.956 1183.7 277.373H1151.03C1154.49 268.177 1160.33 259.416 1167.42 251.386C1174.43 243.435 1182.66 236.19 1191.09 229.783C1199.52 223.376 1208.11 217.813 1215.98 213.233C1223.98 208.573 1231.12 204.962 1236.62 202.432C1239.41 201.144 1241.69 200.166 1243.5 199.47C1244.42 199.111 1245.19 198.854 1245.82 198.657C1246.23 198.476 1246.72 198.45 1247.04 198.396C1247.36 198.341 1247.54 198.268 1247.85 198.25V198.25Z" fill="white" stroke="white"/>
<path fill-rule="evenodd" clip-rule="evenodd" d="M1307.23 213.619C1308.94 213.785 1308.35 215.787 1306.13 219.265C1303.91 222.743 1300.1 227.714 1295.66 233.853C1291.22 239.991 1286.16 247.281 1282.32 255.419C1279.11 262.22 1276.76 269.617 1276.41 277.373H1249.64C1250.38 269.137 1253.64 261.357 1258.17 254.304C1263.55 245.918 1270.6 238.531 1277.51 232.447C1284.41 226.363 1291.15 221.597 1296.42 218.369C1301.69 215.14 1305.51 213.453 1307.23 213.619V213.619Z" fill="white" stroke="white"/>
<path fill-rule="evenodd" clip-rule="evenodd" d="M1643.81 215.179C1641.81 215.179 1639.94 216.79 1638.11 219.645C1636.28 222.501 1634.46 226.613 1632.68 231.721C1630.9 236.828 1629.2 242.919 1627.88 249.718C1626.56 256.516 1625.64 264.027 1626.16 271.947C1626.18 272.21 1626.23 272.464 1626.25 272.726C1626.35 274.093 1626.52 275.457 1626.71 276.803H1655.66C1655.51 275.395 1655.32 273.98 1655.21 272.544C1655.19 272.289 1655.14 272.048 1655.12 271.791C1654.6 264.069 1654.63 256.66 1654.48 249.899C1654.34 243.139 1654.06 237.028 1653.22 231.877C1652.38 226.726 1651.05 222.555 1649.42 219.671C1647.78 216.788 1645.81 215.179 1643.81 215.179V215.179Z" fill="white" stroke="white"/>
<path fill-rule="evenodd" clip-rule="evenodd" d="M1670.37 221.591C1668.6 221.749 1668.74 223.477 1669.95 226.462C1671.17 229.446 1673.47 233.694 1675.86 238.941C1678.26 244.188 1680.67 250.448 1682.62 257.43C1684.33 263.582 1685.62 270.316 1686.59 277.373H1713.6C1712.49 270.054 1710.4 263.041 1707.36 256.655C1703.95 249.513 1699.42 243.139 1694.52 237.875C1689.62 232.611 1684.37 228.455 1680 225.662C1675.63 222.87 1672.15 221.433 1670.37 221.591V221.591Z" fill="white" stroke="white"/>
<path fill-rule="evenodd" clip-rule="evenodd" d="M939.606 269.051C939.676 267.485 939.703 265.917 939.606 264.323C939.53 263.204 939.341 262.069 939.171 260.938C938.128 253.991 935.25 247.315 930.328 241.205C925.405 235.094 918.48 229.545 910.037 224.706C902.328 220.214 893.388 216.335 884.372 213.135C875.356 209.934 866.235 207.419 858.186 205.445C839.992 201.962 829.571 199.573 830.524 198.9C831.535 198.236 843.985 199.376 865.556 202.036C875.459 203.697 886.774 206.079 898.16 209.302C909.542 212.525 920.936 216.612 930.846 221.496C941.281 226.7 949.997 232.735 956.165 239.363C962.334 245.99 965.992 253.199 967.005 260.615C967.17 261.823 967.232 263.033 967.264 264.224C967.319 265.854 967.235 267.452 967.092 269.051H939.606V269.051Z" fill="white" stroke="white"/>
<path fill-rule="evenodd" clip-rule="evenodd" d="M1021.4 269.051C1022.11 267.284 1022.9 265.514 1023.5 263.724C1027.02 253.109 1028.14 242.805 1027.13 233.082C1025.96 221.698 1021.81 211.095 1016.23 201.646C1010.65 192.197 1003.69 183.921 997.225 177.049C990.757 170.177 984.895 164.706 981.294 160.878C977.694 157.05 976.335 154.859 978.639 154.568C980.944 154.277 986.671 155.914 994.57 159.329C1002.47 162.743 1012.6 167.946 1022.94 174.744C1033.28 181.543 1043.72 189.956 1052.28 199.719C1060.84 209.482 1067.42 220.589 1070.03 232.59C1072.25 242.821 1071.76 253.682 1068.07 264.819C1067.6 266.243 1067.1 267.643 1066.54 269.051H1021.4V269.051Z" fill="white" stroke="white"/>
<path fill-rule="evenodd" clip-rule="evenodd" d="M1108.86 269.051C1116.27 262.49 1123.93 256.242 1130.97 250.387C1138.56 244.078 1145.42 238.194 1151 232.794C1154.26 229.638 1157.1 226.659 1159.41 223.885C1161.72 221.111 1163.46 218.545 1164.79 216.195C1166.08 213.874 1166.92 211.764 1167.48 209.924C1168.03 208.084 1168.26 206.52 1168.43 205.221C1168.6 203.923 1168.76 202.892 1169.04 202.185C1169.31 201.478 1169.75 201.09 1170.51 201.04C1171.27 200.991 1172.34 201.288 1173.54 201.936C1174.75 202.584 1176.1 203.593 1177.36 204.922C1178.62 206.252 1179.72 207.906 1180.48 209.875C1181.24 211.843 1181.58 214.11 1181.35 216.618C1181.13 219.154 1180.41 221.945 1179.01 224.93C1177.61 227.915 1175.59 231.111 1173.02 234.436C1168.66 240.119 1162.81 246.265 1155.94 252.726C1150.38 257.966 1144.08 263.445 1137.82 269.051H1108.86V269.051Z" fill="white" stroke="white"/>
<path fill-rule="evenodd" clip-rule="evenodd" d="M1450.07 269.051C1449.91 267.877 1449.69 266.716 1449.55 265.527C1449.53 265.41 1449.56 265.286 1449.55 265.169C1448.37 255.133 1447.82 245.557 1447.15 236.8C1446.49 228.043 1445.65 220.106 1444.45 213.448C1443.24 206.791 1441.69 201.409 1439.77 197.681C1437.84 193.954 1435.61 191.888 1433.32 191.888C1431.02 191.888 1428.82 193.941 1426.76 197.652C1424.7 201.362 1422.74 206.72 1420.93 213.359C1419.12 219.997 1417.48 227.925 1416.46 236.74C1415.44 245.556 1415.07 255.272 1416.25 265.497C1416.26 265.617 1416.24 265.736 1416.25 265.856C1416.38 266.933 1416.61 267.984 1416.77 269.051H1450.07V269.051Z" fill="white" stroke="white"/>
<path fill-rule="evenodd" clip-rule="evenodd" d="M1362.92 269.051C1362.22 264.027 1360.73 259.207 1358.43 254.793C1355.64 249.444 1351.72 244.685 1347.37 240.8C1343.01 236.917 1338.29 233.904 1334.37 231.91C1330.45 229.915 1327.4 228.933 1325.95 229.103C1324.5 229.272 1324.79 230.579 1326.09 232.77C1327.39 234.962 1329.62 238.044 1331.8 241.886C1333.99 245.729 1336.09 250.329 1337.58 255.489C1338.8 259.679 1339.56 264.257 1340.08 269.051H1362.92V269.051Z" fill="white" stroke="white"/>
<path fill-rule="evenodd" clip-rule="evenodd" d="M1608.21 187.797C1607.36 187.793 1605.96 188.102 1604.14 188.742C1602.06 189.473 1599.41 190.637 1596.51 192.201C1593.61 193.766 1590.48 195.736 1587.49 198.124C1584.51 200.512 1581.7 203.324 1579.52 206.485C1577.52 209.385 1576.09 212.577 1575.35 216.016C1574.61 219.456 1574.6 223.142 1575.44 226.99C1576.69 232.672 1579.58 238.711 1584.11 244.957C1588.64 251.203 1594.79 257.648 1601.8 264.168C1603.23 265.498 1604.67 266.798 1606.13 268.101C1606.71 268.613 1607.29 269.109 1607.87 269.618H1636.83C1635.37 268.311 1633.94 267.036 1632.49 265.711C1631.09 264.423 1629.73 263.135 1628.33 261.829C1621.49 255.429 1615.31 249.201 1610.38 243.265C1605.46 237.329 1601.82 231.683 1599.63 226.368C1598.15 222.78 1597.27 219.342 1597.03 216.141C1596.79 212.938 1597.2 209.965 1597.98 207.232C1599.69 201.284 1603.38 196.521 1606.05 193.222C1607.38 191.572 1608.4 190.276 1608.91 189.364C1609.41 188.453 1609.37 187.933 1608.56 187.822C1608.46 187.808 1608.34 187.797 1608.21 187.797V187.797Z" fill="white" stroke="white"/>
<path fill-rule="evenodd" clip-rule="evenodd" d="M1467.94 188.363C1467.63 188.345 1467.21 188.38 1466.91 188.512C1466.6 188.645 1466.46 188.901 1466.39 189.079C1466.23 189.393 1466.22 189.802 1466.39 190.272C1466.72 191.201 1467.69 192.45 1469.09 193.939C1471.86 196.901 1476.55 200.97 1482.18 205.926C1493.3 215.708 1508.39 229.142 1520.1 244.989C1525.79 252.691 1530.54 260.975 1533.82 269.619H1567.38C1563.82 260.175 1557.82 251.178 1550.54 242.931C1543.35 234.765 1534.89 227.326 1526.23 220.746C1517.57 214.167 1508.75 208.453 1500.67 203.75C1492.46 198.965 1485.12 195.256 1479.48 192.657C1476.61 191.335 1474.26 190.33 1472.41 189.616C1471.47 189.247 1470.67 188.983 1470.02 188.781C1469.6 188.595 1469.1 188.569 1468.78 188.512C1468.45 188.456 1468.26 188.381 1467.94 188.363V188.363Z" fill="white" stroke="white"/>
<path fill-rule="evenodd" clip-rule="evenodd" d="M1273.18 204.146C1274.94 204.317 1274.33 206.373 1272.05 209.944C1269.78 213.516 1265.87 218.621 1261.3 224.925C1256.74 231.229 1251.54 238.715 1247.6 247.073C1244.31 254.057 1241.9 261.653 1241.53 269.619H1214.05C1214.8 261.161 1218.15 253.171 1222.8 245.928C1228.33 237.316 1235.57 229.73 1242.66 223.482C1249.75 217.234 1256.67 212.339 1262.08 209.024C1267.49 205.708 1271.42 203.976 1273.18 204.146V204.146Z" fill="white" stroke="white"/>
<path fill-rule="evenodd" clip-rule="evenodd" d="M1685.16 205.748C1683.1 205.748 1681.18 207.402 1679.3 210.335C1677.42 213.268 1675.55 217.491 1673.73 222.736C1671.9 227.981 1670.16 234.236 1668.8 241.218C1667.44 248.2 1666.5 255.913 1667.04 264.047C1667.05 264.317 1667.11 264.577 1667.13 264.847C1667.23 266.25 1667.4 267.651 1667.59 269.034H1697.33C1697.17 267.588 1696.98 266.134 1696.86 264.66C1696.84 264.398 1696.79 264.15 1696.77 263.887C1696.24 255.957 1696.27 248.347 1696.12 241.405C1695.97 234.462 1695.68 228.186 1694.82 222.896C1693.96 217.606 1692.6 213.323 1690.92 210.362C1689.24 207.401 1687.21 205.748 1685.16 205.748V205.748Z" fill="white" stroke="white"/>
<path fill-rule="evenodd" clip-rule="evenodd" d="M1712.44 212.333C1710.62 212.496 1710.76 214.27 1712.01 217.335C1713.25 220.4 1715.62 224.762 1718.08 230.151C1720.53 235.54 1723.02 241.967 1725.01 249.138C1726.77 255.456 1728.09 262.371 1729.09 269.619H1756.83C1755.69 262.102 1753.55 254.9 1750.42 248.342C1746.92 241.008 1742.27 234.462 1737.24 229.056C1732.21 223.65 1726.81 219.382 1722.32 216.514C1717.84 213.646 1714.26 212.171 1712.44 212.333V212.333Z" fill="white" stroke="white"/>
<path fill-rule="evenodd" clip-rule="evenodd" d="M993.875 271.456C993.937 270.105 993.959 268.754 993.875 267.38C993.81 266.415 993.648 265.438 993.499 264.463C992.6 258.475 990.119 252.72 985.878 247.453C981.633 242.186 975.664 237.403 968.389 233.231C961.745 229.359 954.036 226.016 946.263 223.257C938.493 220.498 930.63 218.33 923.692 216.629C908.01 213.626 899.027 211.568 899.851 210.988C900.721 210.415 911.453 211.397 930.047 213.69C938.582 215.121 948.335 217.175 958.148 219.954C967.962 222.732 977.783 226.255 986.326 230.464C995.318 234.95 1002.83 240.152 1008.15 245.866C1013.47 251.578 1016.62 257.792 1017.49 264.184C1017.63 265.225 1017.69 266.268 1017.72 267.294C1017.76 268.7 1017.69 270.078 1017.57 271.456H993.875V271.456Z" fill="white" stroke="white"/>
<path fill-rule="evenodd" clip-rule="evenodd" d="M1074.52 271.456C1075.03 270.118 1075.59 268.778 1076.01 267.423C1078.53 259.389 1079.33 251.59 1078.61 244.23C1077.77 235.613 1074.81 227.588 1070.83 220.435C1066.85 213.283 1061.89 207.019 1057.28 201.818C1052.67 196.616 1048.49 192.475 1045.92 189.577C1043.35 186.68 1042.38 185.021 1044.03 184.801C1045.67 184.581 1049.75 185.82 1055.39 188.405C1061.02 190.989 1068.24 194.927 1075.62 200.073C1082.99 205.219 1090.44 211.587 1096.54 218.977C1102.65 226.366 1107.33 234.773 1109.2 243.858C1110.78 251.602 1110.43 259.823 1107.8 268.253C1107.47 269.33 1107.11 270.39 1106.71 271.456H1074.52V271.456Z" fill="white" stroke="white"/>
<path fill-rule="evenodd" clip-rule="evenodd" d="M1139.77 271.456C1146.16 265.801 1152.76 260.415 1158.83 255.368C1165.37 249.93 1171.28 244.858 1176.09 240.203C1178.9 237.483 1181.35 234.915 1183.34 232.524C1185.33 230.132 1186.84 227.921 1187.98 225.895C1189.09 223.894 1189.82 222.076 1190.29 220.49C1190.77 218.904 1190.97 217.555 1191.12 216.436C1191.26 215.317 1191.4 214.428 1191.64 213.819C1191.88 213.21 1192.25 212.875 1192.91 212.832C1193.57 212.79 1194.49 213.046 1195.53 213.604C1196.56 214.163 1197.73 215.032 1198.81 216.178C1199.9 217.324 1200.85 218.75 1201.5 220.447C1202.16 222.144 1202.45 224.098 1202.25 226.26C1202.07 228.445 1201.44 230.851 1200.23 233.424C1199.03 235.998 1197.29 238.753 1195.08 241.619C1191.31 246.517 1186.27 251.815 1180.35 257.384C1175.55 261.901 1170.13 266.624 1164.73 271.456H1139.77V271.456Z" fill="white" stroke="white"/>
<path fill-rule="evenodd" clip-rule="evenodd" d="M1435.89 271.455C1435.75 270.443 1435.56 269.443 1435.44 268.418C1435.43 268.317 1435.45 268.211 1435.44 268.109C1434.43 259.458 1433.95 251.205 1433.38 243.656C1432.81 236.108 1432.08 229.266 1431.05 223.527C1430.01 217.789 1428.67 213.149 1427.01 209.936C1425.35 206.724 1423.43 204.943 1421.45 204.943C1419.47 204.943 1417.58 206.713 1415.8 209.911C1414.02 213.109 1412.34 217.728 1410.78 223.45C1409.22 229.172 1407.8 236.006 1406.92 243.605C1406.04 251.203 1405.72 259.578 1406.74 268.392C1406.75 268.496 1406.73 268.598 1406.74 268.701C1406.85 269.63 1407.05 270.536 1407.19 271.455H1435.89V271.455Z" fill="white" stroke="white"/>
<path fill-rule="evenodd" clip-rule="evenodd" d="M1360.77 271.456C1360.17 267.125 1358.88 262.971 1356.9 259.166C1354.49 254.555 1351.11 250.452 1347.36 247.105C1343.61 243.757 1339.54 241.16 1336.16 239.441C1332.78 237.722 1330.15 236.876 1328.9 237.021C1327.65 237.168 1327.9 238.294 1329.02 240.183C1330.15 242.071 1332.06 244.728 1333.95 248.041C1335.83 251.353 1337.64 255.318 1338.93 259.766C1339.98 263.377 1340.64 267.323 1341.09 271.456H1360.77V271.456Z" fill="white" stroke="white"/>
<path fill-rule="evenodd" clip-rule="evenodd" d="M1570.2 201.417C1569.46 201.413 1568.26 201.679 1566.69 202.231C1564.89 202.862 1562.61 203.864 1560.11 205.213C1557.61 206.561 1554.91 208.26 1552.34 210.318C1549.77 212.376 1547.34 214.8 1545.46 217.525C1543.74 220.024 1542.51 222.776 1541.88 225.74C1541.24 228.706 1541.22 231.883 1541.95 235.201C1543.03 240.097 1545.52 245.304 1549.43 250.687C1553.33 256.071 1558.63 261.627 1564.67 267.247C1565.9 268.393 1567.15 269.514 1568.41 270.636C1568.9 271.078 1569.41 271.506 1569.9 271.944H1594.87C1593.61 270.819 1592.38 269.719 1591.13 268.577C1589.92 267.466 1588.74 266.356 1587.54 265.231C1581.64 259.714 1576.32 254.346 1572.07 249.229C1567.82 244.112 1564.69 239.245 1562.8 234.664C1561.52 231.571 1560.76 228.608 1560.56 225.848C1560.36 223.088 1560.7 220.525 1561.38 218.169C1562.85 213.042 1566.04 208.937 1568.33 206.092C1569.48 204.67 1570.36 203.554 1570.8 202.767C1571.24 201.982 1571.2 201.534 1570.5 201.437C1570.42 201.426 1570.31 201.417 1570.2 201.417V201.417Z" fill="white" stroke="white"/>
<path fill-rule="evenodd" clip-rule="evenodd" d="M1449.29 201.905C1449.02 201.889 1448.66 201.919 1448.4 202.033C1448.13 202.148 1448.01 202.368 1447.95 202.522C1447.81 202.793 1447.8 203.145 1447.95 203.55C1448.24 204.351 1449.07 205.427 1450.28 206.711C1452.67 209.264 1456.71 212.771 1461.56 217.044C1471.14 225.475 1484.15 237.055 1494.25 250.714C1499.15 257.354 1503.25 264.494 1506.07 271.945H1535C1531.93 263.805 1526.76 256.05 1520.49 248.941C1514.29 241.902 1507 235.49 1499.53 229.818C1492.07 224.147 1484.47 219.222 1477.5 215.167C1470.42 211.043 1464.1 207.846 1459.23 205.606C1456.76 204.466 1454.74 203.6 1453.14 202.984C1452.33 202.666 1451.64 202.439 1451.08 202.265C1450.72 202.104 1450.29 202.082 1450.01 202.033C1449.73 201.985 1449.56 201.92 1449.29 201.905V201.905Z" fill="white" stroke="white"/>
<path fill-rule="evenodd" clip-rule="evenodd" d="M1283.42 215.509C1284.94 215.656 1284.41 217.428 1282.45 220.507C1280.48 223.586 1277.11 227.986 1273.18 233.42C1269.24 238.854 1264.77 245.307 1261.37 252.511C1258.53 258.531 1256.45 265.079 1256.14 271.945H1232.44C1233.1 264.655 1235.99 257.768 1239.99 251.524C1244.76 244.101 1251 237.562 1257.11 232.176C1263.22 226.79 1269.19 222.571 1273.85 219.713C1278.52 216.855 1281.9 215.362 1283.42 215.509V215.509Z" fill="white" stroke="white"/>
<path fill-rule="evenodd" clip-rule="evenodd" d="M1636.52 216.89C1634.75 216.89 1633.1 218.316 1631.48 220.844C1629.86 223.372 1628.25 227.012 1626.67 231.533C1625.09 236.054 1623.6 241.446 1622.43 247.464C1621.25 253.482 1620.44 260.131 1620.9 267.142C1620.92 267.375 1620.97 267.599 1620.98 267.832C1621.07 269.041 1621.22 270.249 1621.38 271.441H1647.02C1646.88 270.194 1646.72 268.942 1646.62 267.671C1646.6 267.444 1646.55 267.231 1646.54 267.004C1646.07 260.169 1646.1 253.609 1645.97 247.625C1645.85 241.641 1645.6 236.231 1644.85 231.671C1644.11 227.111 1642.94 223.419 1641.49 220.867C1640.04 218.314 1638.29 216.89 1636.52 216.89V216.89Z" fill="white" stroke="white"/>
<path fill-rule="evenodd" clip-rule="evenodd" d="M1660.04 222.566C1658.47 222.706 1658.59 224.236 1659.67 226.878C1660.74 229.52 1662.78 233.28 1664.9 237.925C1667.02 242.569 1669.16 248.11 1670.88 254.291C1672.39 259.737 1673.54 265.698 1674.39 271.945H1698.31C1697.32 265.466 1695.47 259.258 1692.78 253.605C1689.76 247.283 1685.75 241.641 1681.42 236.981C1677.08 232.321 1672.43 228.642 1668.56 226.17C1664.7 223.698 1661.61 222.426 1660.04 222.566V222.566Z" fill="white" stroke="white"/>
<path fill-rule="evenodd" clip-rule="evenodd" d="M1299.76 271.456C1300.26 270.118 1300.83 268.778 1301.25 267.423C1303.77 259.389 1304.56 251.59 1303.84 244.23C1303.01 235.613 1300.05 227.588 1296.07 220.435C1292.09 213.283 1287.13 207.019 1282.52 201.818C1277.91 196.616 1273.72 192.475 1271.16 189.577C1268.59 186.68 1267.62 185.021 1269.26 184.801C1270.91 184.581 1274.99 185.82 1280.62 188.405C1286.26 190.989 1293.48 194.927 1300.85 200.073C1308.23 205.219 1315.67 211.587 1321.78 218.977C1327.88 226.366 1332.57 234.773 1334.43 243.858C1336.02 251.602 1335.67 259.823 1333.04 268.253C1332.7 269.33 1332.35 270.39 1331.94 271.456H1299.76V271.456Z" fill="white" stroke="white"/>
<path fill-rule="evenodd" clip-rule="evenodd" d="M1395.57 201.417C1394.83 201.413 1393.63 201.679 1392.05 202.231C1390.26 202.862 1387.98 203.864 1385.48 205.213C1382.98 206.561 1380.28 208.26 1377.7 210.318C1375.13 212.376 1372.71 214.8 1370.83 217.525C1369.11 220.024 1367.88 222.776 1367.24 225.74C1366.6 228.706 1366.59 231.883 1367.32 235.201C1368.4 240.097 1370.88 245.304 1374.79 250.687C1378.69 256.071 1383.99 261.627 1390.04 267.247C1391.27 268.393 1392.52 269.514 1393.77 270.636C1394.27 271.078 1394.77 271.506 1395.27 271.944H1420.23C1418.97 270.819 1417.75 269.719 1416.49 268.577C1415.29 267.466 1414.11 266.356 1412.91 265.231C1407.01 259.714 1401.68 254.346 1397.44 249.229C1393.19 244.112 1390.05 239.245 1388.17 234.664C1386.89 231.571 1386.13 228.608 1385.93 225.848C1385.72 223.088 1386.07 220.525 1386.75 218.169C1388.22 213.042 1391.4 208.937 1393.7 206.092C1394.85 204.67 1395.73 203.554 1396.17 202.767C1396.6 201.982 1396.56 201.534 1395.87 201.437C1395.78 201.426 1395.67 201.417 1395.57 201.417V201.417Z" fill="white" stroke="white"/>
<path fill-rule="evenodd" clip-rule="evenodd" d="M1635.15 205.782C1635.42 205.766 1635.78 205.796 1636.04 205.91C1636.3 206.025 1636.43 206.245 1636.49 206.399C1636.62 206.67 1636.64 207.021 1636.49 207.427C1636.2 208.228 1635.36 209.304 1634.16 210.588C1631.77 213.141 1627.73 216.648 1622.88 220.921C1613.29 229.352 1600.28 240.932 1590.19 254.591C1585.28 261.231 1581.19 268.371 1578.37 275.822H1549.44C1552.51 267.682 1557.68 259.927 1563.95 252.818C1570.15 245.779 1577.44 239.366 1584.9 233.695C1592.37 228.024 1599.97 223.099 1606.94 219.044C1614.02 214.92 1620.34 211.723 1625.2 209.483C1627.67 208.343 1629.7 207.477 1631.29 206.861C1632.11 206.543 1632.8 206.316 1633.35 206.141C1633.72 205.981 1634.15 205.959 1634.43 205.91C1634.71 205.862 1634.88 205.797 1635.15 205.782V205.782Z" fill="white" stroke="white"/>
<path fill-rule="evenodd" clip-rule="evenodd" d="M1757.96 215.509C1759.48 215.656 1758.95 217.428 1756.99 220.507C1755.02 223.586 1751.65 227.986 1747.72 233.42C1743.78 238.854 1739.31 245.307 1735.91 252.511C1733.07 258.531 1730.99 265.079 1730.68 271.945H1706.98C1707.64 264.655 1710.53 257.768 1714.53 251.524C1719.3 244.101 1725.54 237.562 1731.65 232.176C1737.76 226.79 1743.73 222.571 1748.39 219.713C1753.06 216.855 1756.44 215.362 1757.96 215.509V215.509Z" fill="white" stroke="white"/>
<path fill-rule="evenodd" clip-rule="evenodd" d="M1518.63 214.563C1516.86 214.563 1515.2 215.989 1513.58 218.517C1511.96 221.045 1510.35 224.686 1508.77 229.207C1507.2 233.728 1505.7 239.12 1504.53 245.138C1503.36 251.156 1502.55 257.804 1503.01 264.816C1503.02 265.049 1503.07 265.273 1503.09 265.505C1503.17 266.715 1503.32 267.922 1503.49 269.114H1529.12C1528.98 267.868 1528.82 266.615 1528.72 265.344C1528.7 265.118 1528.65 264.905 1528.64 264.678C1528.18 257.842 1528.2 251.283 1528.08 245.299C1527.95 239.314 1527.7 233.905 1526.96 229.345C1526.21 224.785 1525.04 221.093 1523.59 218.54C1522.15 215.988 1520.39 214.563 1518.63 214.563V214.563Z" fill="white" stroke="white"/>
<path fill-rule="evenodd" clip-rule="evenodd" d="M1342.21 219.465C1340.64 219.604 1340.76 221.134 1341.83 223.776C1342.91 226.418 1344.95 230.178 1347.07 234.823C1349.18 239.468 1351.33 245.008 1353.05 251.19C1354.56 256.635 1355.7 262.596 1356.56 268.843H1380.48C1379.49 262.364 1377.64 256.156 1374.94 250.503C1371.93 244.181 1367.92 238.539 1363.58 233.879C1359.25 229.219 1354.59 225.54 1350.73 223.068C1346.86 220.596 1343.78 219.325 1342.21 219.465V219.465Z" fill="white" stroke="white"/>
<path d="M120.799 128.01C120.799 128.024 120.84 128.042 120.837 128.056C89.6795 132.677 61.8343 137.959 57.6519 140.937C68.2134 142.283 100.719 141.313 134.376 139.245C161.711 154.726 223.188 178.567 251.866 180.659C264.475 181.391 277.12 182.137 289.048 183.56L289.883 183.629L290.515 183.661C292.69 182.344 286.314 173.188 288.222 171.154C282.51 161.181 152.462 128.039 120.799 128.009V128.01V128.01Z" fill="white" stroke="white"/>
<path d="M263.138 169.31C258.194 169.658 253.529 170.144 249.207 170.74C271.822 178.18 293.193 186.113 310.505 194.632C316.609 193.932 322.089 193.032 326.801 191.942C308.784 183.763 286.945 176.228 263.138 169.31V169.31Z" fill="white" stroke="white"/>
<path fill-rule="evenodd" clip-rule="evenodd" d="M225.997 3.68066C203.217 20.6599 188.349 37.8167 191.809 55.5444C193.893 83.2126 229.12 109.035 260.509 134.676C305.821 177.757 316.397 223.86 297.137 269.235C308.817 268.86 331.599 271.896 325.727 266.111C341.914 211.965 316.712 157.377 242.032 108.034C198.444 75.3377 180.925 38.4146 227.282 3.75715C226.257 3.60463 226.989 3.85767 225.997 3.68066V3.68066Z" fill="white" stroke="white"/>
<path fill-rule="evenodd" clip-rule="evenodd" d="M357.056 1C291.675 26.0221 236.105 54.4766 231.121 85.0641C228.548 94.3337 229.884 103.503 233.569 112.592C236.862 112.753 240.175 112.9 243.505 113.018C231.558 87.4673 239.117 60.9385 281.585 36.9046C302.465 24.3608 329.288 12.5687 357.056 1Z" fill="white" stroke="white"/>
<path d="M314.82 39.0923C312.4 41.0871 308.212 43.0725 299.591 45.9317C281.693 49.0572 252.586 51.9808 255.18 58.2574C254.984 58.345 254.898 58.403 254.778 58.4684C251.157 59.7254 247.64 61.011 244.305 62.3302C245.389 62.7233 246.757 63.0762 248.333 63.36C251.271 62.0948 254.405 60.8562 257.596 59.6322C284.216 59.2398 291.882 51.7947 302.826 46.8994C312.722 44.3124 319.612 43.0386 326.565 42.2905C321.128 42.7174 314.254 43.5837 306.987 44.7128C310.701 42.6209 313.473 40.6491 314.82 39.0923V39.0923Z" fill="white" stroke="white"/>
<path d="M322.767 96.7471C322.836 96.9415 322.869 97.1191 322.931 97.3082C294.122 105.423 287.719 121.877 285.153 136.251C282.702 137.394 285.166 140.948 287.828 143.026C285.677 144.739 283.598 146.467 281.714 148.22C283.863 148.777 286.363 149.236 289.053 149.554C290.92 147.557 292.995 145.595 295.165 143.63C299.17 143.176 300.994 141.732 306.546 139.535C322.974 125.819 339.837 109.139 323.466 97.2868C323.638 97.1925 323.787 97.109 323.963 97.0129C323.744 97.072 323.538 97.1337 323.321 97.194C323.118 97.0486 322.98 96.8909 322.767 96.7471V96.7471ZM322.969 97.5607C325.009 104.082 321.856 107.665 308.549 119.306C311.128 106.9 312.702 103.269 322.969 97.5607Z" fill="white" stroke="white"/>
<path d="M257.78 20.2051C256.167 22.405 252.698 24.6569 244.99 27.9904C227.687 31.9309 198.551 36.0494 204.168 42.6144C204.003 42.7142 203.94 42.7787 203.845 42.8522C200.633 44.3118 197.543 45.7982 194.66 47.3137C195.977 47.6926 197.573 48.019 199.355 48.2647C201.848 46.8204 204.558 45.3972 207.335 43.9877C235.036 42.6402 239.624 34.4772 248.825 28.9034C257.995 25.8138 264.623 24.222 271.56 23.1855C266.062 23.8283 259.263 24.9875 252.173 26.4391C255.096 24.0909 257.088 21.903 257.78 20.2051V20.2051Z" fill="white" stroke="white"/>
<path d="M154.194 4.61015C159.547 6.25148 163.983 8.35891 169.074 12.0833C170.392 18.4113 165.428 27.6231 187.386 30.0693C187.576 30.1653 187.724 30.2173 187.879 30.2817C190.202 31.8743 192.671 33.4534 195.342 35.0005C197.179 34.9084 199.026 34.7206 200.749 34.4427C198.058 33.028 195.552 31.5743 193.122 30.113C205.17 22.8285 184.507 17.0664 173.88 11.7057C170.324 7.77758 169.584 5.30632 170.606 3.08105C169.287 4.74207 168.693 7.00539 168.768 9.5048C163.744 7.47047 158.643 5.74681 154.194 4.61015H154.194V4.61015Z" fill="white" stroke="white"/>
<path d="M144.917 55.1911C152.363 56.6353 159.199 58.669 168.203 62.4629C175.3 69.4468 177.93 80.1163 204.671 81.2462C204.968 81.3394 205.18 81.3866 205.412 81.4477C209.424 83.0592 213.59 84.6453 217.953 86.1808C219.926 85.9436 221.826 85.5981 223.508 85.1615C219.24 83.7755 215.143 82.3321 211.127 80.8753C218.135 71.8437 189.898 66.909 173.245 61.6893C165.777 57.5547 162.754 54.8436 161.919 52.2793C161.919 54.234 163.266 56.8098 165.57 59.6007C158.141 57.6924 150.903 56.1375 144.917 55.1911V55.1911Z" fill="white" stroke="white"/>
<path d="M322.213 59.2642C318.328 61.0443 312.804 62.6678 302.435 64.7879C283.205 66.3968 253.696 66.8672 250.984 73.3228C250.73 73.3937 250.602 73.4437 250.438 73.4989C246.037 74.4453 241.708 75.4285 237.524 76.4609C238.213 76.9424 239.199 77.4077 240.435 77.8216C244.207 76.8099 248.139 75.8409 252.112 74.8913C277.236 76.7288 290.462 69.9706 304.658 66.0204C315.993 64.277 323.454 63.5879 330.543 63.426C325.129 63.3951 318.017 63.6816 310.322 64.1952C315.492 62.4273 319.686 60.6994 322.213 59.2642V59.2642Z" fill="white" stroke="white"/>
<path d="M244.459 6.28467C233.882 8.90316 223.431 11.5949 213.15 14.3297C213.538 14.3934 213.973 14.4516 214.378 14.5114C224.29 11.738 234.344 9.00302 244.459 6.28467V6.28467Z" fill="white" stroke="white"/>
<path fill-rule="evenodd" clip-rule="evenodd" d="M357.056 1C291.675 26.0221 236.105 54.4766 231.121 85.0641C228.548 94.3337 229.884 103.503 233.569 112.592C236.862 112.753 240.175 112.9 243.505 113.018C231.558 87.4673 239.117 60.9384 281.585 36.9046C302.465 24.3608 329.288 12.5687 357.056 1Z" fill="white" stroke="white"/>
<path d="M157.599 95.167C157.799 95.3401 158.008 95.4939 158.208 95.6618C197.428 98.7476 226.246 111.795 248.472 123.588C252.429 124.233 254.905 127.554 255.161 129.654C259.608 130.82 264.005 132.006 268.249 133.239C266.917 133.989 265.111 134.703 262.926 135.323C258.365 133.882 253.65 132.497 248.837 131.122C244.309 131.262 240.552 130.282 232.125 129.153C197.287 119.724 157.963 107.852 157.657 95.7142C157.361 95.657 157.1 95.6052 156.797 95.5479C157.091 95.569 157.377 95.5944 157.67 95.6163C157.67 95.4677 157.587 95.3159 157.599 95.167V95.167ZM158.516 95.8798C165.477 101.648 173.466 104.26 202.412 112.345C182.876 102.214 176.361 99.3562 158.516 95.8798Z" fill="white" stroke="white"/>
</svg>
