<svg width="51" height="40" viewBox="0 0 51 40" fill="none" xmlns="http://www.w3.org/2000/svg">
<path d="M22.5916 10.3526L14.8436 3.58253C13.9504 2.80237 12.3128 2.80584 11.2753 3.59293L4.90375 8.42474C3.0074 9.86197 2.46461 11.9961 3.56165 13.7073C10.1156 23.9794 21.0595 32.2753 34.6201 37.2509C36.8783 38.0813 39.6954 37.6704 41.5917 36.2332L48.0228 31.3563C49.0649 30.5675 49.0672 29.3209 48.0274 28.6448L39.0495 22.8109C38.1105 22.2007 36.6516 22.2804 35.7103 22.9947L32.5864 25.3629C32.4264 25.4898 32.2159 25.5734 31.9871 25.601C31.7583 25.6286 31.5239 25.5985 31.3198 25.5155C26.2135 23.2896 21.9778 20.079 19.0439 16.2108C18.9341 16.056 18.8943 15.8783 18.9307 15.7048C18.9671 15.5313 19.0777 15.3716 19.2455 15.2503L22.3603 12.8907C23.3039 12.173 23.4069 11.0634 22.5916 10.3509V10.3526Z" stroke="#8ABF6A" stroke-width="4.07952" stroke-linecap="round" stroke-linejoin="round"/>
</svg>
