<svg width="1436" height="288" viewBox="0 0 1436 288" fill="none" xmlns="http://www.w3.org/2000/svg">
<g clip-path="url(#clip0)">
<path d="M345.378 187.297L330.193 153.638C331.554 153.597 332.908 153.415 334.232 153.094C336.601 152.52 339.638 152.853 339.638 150.859C339.638 148.864 323.116 115.327 323.116 115.327C324.816 115.227 326.509 115.036 328.188 114.753C329.524 114.42 328.978 112.064 328.978 112.064C328.978 112.064 332.015 115.659 333.351 114.874C334.687 114.088 331.772 110.281 331.772 110.281L316.161 76.1091C317.936 76.2395 319.72 76.0865 321.446 75.6559C322.904 74.9912 321.901 72.1813 321.901 72.1813C323.671 72.0586 325.428 71.7959 327.155 71.3957C329.312 70.8519 294.355 4.22997 294.355 4.22997C294.355 4.22997 292.806 0 291.682 0C290.559 0 258.76 67.2564 258.76 67.2564C258.76 67.2564 256.725 70.0663 258.183 70.0663C259.641 70.0663 257.424 73.5409 259.762 74.0848C262.101 74.6286 264.227 78.7679 264.227 78.7679L250.044 115.206C250.044 115.206 247.371 119.013 250.044 119.557C251.721 119.86 253.439 119.86 255.116 119.557L242.421 144.483C242.421 144.483 242.633 146.719 244.213 146.719C245.792 146.719 229.938 179.955 229.938 179.955C229.938 179.955 225.231 185.333 230.394 186.541C231.974 186.853 233.607 186.762 235.142 186.276C236.677 185.79 238.063 184.925 239.171 183.762C239.171 183.762 237.713 189.019 242.967 189.019C248.221 189.019 255.45 181.405 255.45 181.858C255.45 182.311 249.679 191.315 253.263 191.315C256.847 191.315 262.587 182.251 262.587 182.251C262.587 182.251 259.914 189.17 262.951 189.17C265.988 189.17 267.537 189.17 267.537 189.17V210.622H304.954V188.052C304.954 188.052 304.954 192.282 307.748 191.95C310.543 191.617 311.909 187.266 311.909 187.266C311.909 187.266 310.664 191.496 313.61 192.282C316.556 193.068 318.864 184.819 318.864 184.819C318.864 184.819 321.021 193.521 325.272 193.521C329.524 193.521 327.763 185.484 327.763 185.484C327.763 185.484 331.104 194.76 334.718 194.065C338.332 193.37 336.297 186.481 336.297 186.481C336.297 186.481 342.371 191.406 344.042 191.406C345.712 191.406 345.378 187.297 345.378 187.297Z" fill="#253323"/>
<path d="M443.111 191.467L436.157 176.209C436.782 176.187 437.404 176.096 438.009 175.937C439.072 175.696 440.439 175.937 440.439 174.94C440.439 173.943 432.937 158.776 432.937 158.776C433.711 158.726 434.481 158.635 435.245 158.504C435.853 158.504 435.61 157.295 435.61 157.295C435.61 157.295 436.916 158.927 437.584 158.564C438.252 158.202 436.885 156.479 436.885 156.479L429.779 140.919C430.585 140.991 431.397 140.92 432.178 140.708C432.846 140.406 432.391 139.137 432.391 139.137C433.199 139.084 434.002 138.962 434.79 138.774C435.762 138.532 419.847 108.228 419.847 108.228C419.847 108.228 419.149 106.294 418.633 106.294C418.116 106.294 403.66 136.931 403.66 136.931C403.66 136.931 402.749 138.2 403.417 138.2C404.085 138.2 403.052 139.771 404.115 140.043C405.178 140.315 406.12 142.188 406.12 142.188L399.681 158.745C399.681 158.745 398.436 160.468 399.681 160.74C400.434 160.874 401.206 160.874 401.959 160.74L396.188 172.1C396.188 172.1 396.188 173.097 397.008 173.097C397.828 173.097 390.539 188.204 390.539 188.204C390.539 188.204 388.383 190.651 390.722 191.226C391.443 191.372 392.19 191.332 392.892 191.11C393.594 190.888 394.227 190.491 394.731 189.957C394.731 189.957 394.062 192.343 396.462 192.343C398.861 192.343 402.141 188.899 402.141 189.08C402.141 189.262 399.56 193.371 401.2 193.371C402.84 193.371 405.452 189.262 405.452 189.262C405.452 189.262 404.206 192.283 405.603 192.283C407 192.283 407.699 192.283 407.699 192.283V202.042H424.707V191.769C424.707 191.769 424.707 193.703 425.982 193.552C427.258 193.401 427.865 191.437 427.865 191.437C427.865 191.437 427.319 193.341 428.655 193.703C429.991 194.066 431.054 190.319 431.054 190.319C431.054 190.319 432.026 194.277 434.091 194.277C436.157 194.277 435.215 190.621 435.215 190.621C435.215 190.621 436.734 194.821 438.252 194.519C439.771 194.217 438.981 191.074 438.981 191.074C438.981 191.074 441.714 193.31 442.504 193.31C443.294 193.31 443.111 191.467 443.111 191.467Z" fill="#253323"/>
<path d="M1219.88 239.354L1212.95 224.066C1213.57 224.044 1214.18 223.953 1214.78 223.794C1215.84 223.552 1217.24 223.794 1217.24 222.797C1217.24 221.8 1209.73 206.632 1209.73 206.632C1210.5 206.582 1211.26 206.491 1212.01 206.36C1212.62 206.36 1212.38 205.152 1212.38 205.152C1212.38 205.152 1213.71 206.783 1214.38 206.421C1215.05 206.058 1213.65 204.336 1213.65 204.336L1206.55 188.776C1207.35 188.832 1208.16 188.761 1208.94 188.564C1209.61 188.262 1209.16 186.993 1209.16 186.993C1209.97 186.94 1210.77 186.819 1211.56 186.63C1212.53 186.389 1196.64 156.084 1196.64 156.084C1196.64 156.084 1195.92 154.15 1195.4 154.15C1194.88 154.15 1180.43 184.757 1180.43 184.757C1180.43 184.757 1179.52 186.026 1180.18 186.026C1180.85 186.026 1179.82 187.597 1180.91 187.869C1182.01 188.141 1182.89 189.984 1182.89 189.984L1176.45 206.572C1176.45 206.572 1175.23 208.294 1176.45 208.566C1177.21 208.7 1177.99 208.7 1178.76 208.566L1172.99 219.896C1172.99 219.896 1172.99 220.923 1173.81 220.923C1174.63 220.923 1167.31 236.03 1167.31 236.03C1167.31 236.03 1165.15 238.478 1167.52 239.052C1168.24 239.196 1168.98 239.155 1169.67 238.933C1170.37 238.711 1171 238.315 1171.5 237.783C1171.5 237.783 1170.83 240.17 1173.23 240.17C1175.63 240.17 1178.91 236.725 1178.91 236.907C1178.91 237.088 1176.36 241.197 1178 241.197C1179.64 241.197 1182.22 237.058 1182.22 237.058C1182.22 237.058 1181 240.23 1182.37 240.23C1183.74 240.23 1184.47 240.23 1184.47 240.23V249.989H1201.5V239.656C1201.5 239.656 1201.5 241.59 1202.78 241.439C1204.05 241.288 1204.66 239.294 1204.66 239.294C1204.66 239.294 1204.09 241.227 1205.42 241.59C1206.76 241.952 1207.82 238.176 1207.82 238.176C1207.82 238.176 1208.79 242.164 1210.86 242.164C1212.92 242.164 1211.98 238.508 1211.98 238.508C1211.98 238.508 1213.53 242.708 1215.17 242.406C1216.81 242.103 1215.87 238.961 1215.87 238.961C1215.87 238.961 1218.63 241.197 1219.39 241.197C1220.15 241.197 1219.88 239.354 1219.88 239.354Z" fill="#253323"/>
<path d="M1147.56 234.58L1138.21 214.005C1139.04 213.979 1139.86 213.868 1140.67 213.672C1142.13 213.34 1143.98 213.521 1143.98 212.313C1143.98 211.104 1133.87 190.559 1133.87 190.559C1134.89 190.509 1135.9 190.398 1136.9 190.226C1137.72 190.015 1137.39 188.595 1137.39 188.595C1137.39 188.595 1139.18 190.77 1140.06 190.287C1140.94 189.803 1139.12 187.477 1139.12 187.477L1129.55 166.569C1130.64 166.66 1131.72 166.568 1132.77 166.297C1133.69 165.904 1133.05 164.182 1133.05 164.182C1134.14 164.112 1135.23 163.95 1136.3 163.698C1137.6 163.366 1116.22 122.637 1116.22 122.637C1116.22 122.637 1115.25 120.039 1114.58 120.039C1113.91 120.039 1094.51 161.1 1094.51 161.1C1094.51 161.1 1093.26 162.822 1094.17 162.822C1095.08 162.822 1093.69 164.937 1095.11 165.269C1096.54 165.602 1097.82 168.291 1097.82 168.291L1089.16 190.559C1089.16 190.559 1087.49 192.885 1089.16 193.217C1090.17 193.401 1091.19 193.401 1092.2 193.217L1084.45 208.324C1084.45 208.324 1084.45 209.684 1085.55 209.684C1086.64 209.684 1076.83 229.988 1076.83 229.988C1076.83 229.988 1073.95 233.281 1077.1 234.037C1078.07 234.226 1079.07 234.168 1080 233.866C1080.94 233.565 1081.78 233.031 1082.45 232.314C1082.45 232.314 1081.57 235.517 1084.79 235.517C1088.01 235.517 1092.41 230.894 1092.41 231.166C1092.41 231.438 1088.98 236.907 1091.17 236.907C1093.35 236.907 1096.88 231.347 1096.88 231.347C1096.88 231.347 1095.24 235.608 1097.09 235.608C1098.94 235.608 1099.91 235.608 1099.91 235.608V248.721H1122.78V234.913C1122.78 234.913 1122.78 237.511 1124.51 237.3C1126.24 237.088 1127.03 234.429 1127.03 234.429C1127.03 234.429 1126.27 237.028 1128.07 237.451C1129.86 237.874 1131.32 232.858 1131.32 232.858C1131.32 232.858 1132.62 238.206 1135.23 238.206C1137.85 238.206 1136.72 233.281 1136.72 233.281C1136.72 233.281 1138.79 238.961 1141 238.538C1143.22 238.115 1141.95 233.885 1141.95 233.885C1141.95 233.885 1145.65 236.907 1146.68 236.907C1147.72 236.907 1147.56 234.58 1147.56 234.58Z" fill="#253323"/>
<path d="M1325.78 227.571L1318.83 212.252C1319.45 212.235 1320.07 212.154 1320.68 212.01C1321.74 211.739 1323.14 212.01 1323.14 210.983C1323.14 209.956 1315.61 194.819 1315.61 194.819C1316.38 194.783 1317.15 194.703 1317.92 194.577C1318.52 194.426 1318.28 193.338 1318.28 193.338C1318.28 193.338 1319.62 194.97 1320.25 194.607C1320.89 194.245 1319.56 192.522 1319.56 192.522L1312.45 176.962C1313.25 177.033 1314.06 176.972 1314.85 176.781C1315.52 176.479 1315.06 175.21 1315.06 175.21C1315.87 175.14 1316.67 175.019 1317.46 174.847C1318.43 174.575 1302.55 144.301 1302.55 144.301C1302.55 144.301 1301.82 142.367 1301.3 142.367C1300.79 142.367 1286.33 172.974 1286.33 172.974C1286.33 172.974 1285.42 174.243 1286.09 174.243C1286.75 174.243 1285.72 175.814 1286.79 176.056C1287.85 176.298 1288.79 178.201 1288.79 178.201L1282.35 194.758C1282.35 194.758 1281.14 196.511 1282.35 196.752C1283.12 196.876 1283.89 196.876 1284.66 196.752L1278.89 208.083C1278.89 208.083 1278.89 209.11 1279.71 209.11C1280.53 209.11 1273.21 224.217 1273.21 224.217C1273.21 224.217 1271.05 226.664 1273.42 227.238C1274.14 227.382 1274.88 227.341 1275.58 227.119C1276.27 226.897 1276.9 226.501 1277.4 225.969C1277.4 225.969 1276.73 228.356 1279.13 228.356C1281.53 228.356 1284.81 224.912 1284.81 225.123C1284.81 225.335 1282.26 229.384 1283.9 229.384C1285.54 229.384 1288.12 225.274 1288.12 225.274C1288.12 225.274 1286.91 228.296 1288.27 228.296C1289.64 228.296 1290.37 228.296 1290.37 228.296V238.085H1307.38V227.812C1307.38 227.812 1307.38 229.746 1308.68 229.595C1309.99 229.444 1310.57 227.45 1310.57 227.45C1310.57 227.45 1309.99 229.384 1311.32 229.746C1312.66 230.109 1313.72 226.332 1313.72 226.332C1313.72 226.332 1314.7 230.29 1316.76 230.29C1318.83 230.29 1317.88 226.634 1317.88 226.634C1317.88 226.634 1319.4 230.864 1320.92 230.562C1322.44 230.26 1321.65 227.087 1321.65 227.087C1321.65 227.087 1324.41 229.323 1325.17 229.323C1325.93 229.323 1325.78 227.571 1325.78 227.571Z" fill="#253323"/>
<path d="M1425.09 213.826L1414.65 190.742C1415.58 190.714 1416.5 190.593 1417.41 190.38C1419.02 189.987 1421.12 190.228 1421.12 188.839C1421.12 187.449 1409.79 164.486 1409.79 164.486C1410.95 164.426 1412.1 164.295 1413.25 164.093C1414.16 163.852 1413.8 162.25 1413.8 162.25C1413.8 162.25 1415.8 164.698 1416.83 164.184C1417.87 163.67 1415.74 161.163 1415.74 161.163L1405.05 137.716C1406.26 137.808 1407.48 137.706 1408.66 137.414C1409.67 136.931 1408.97 135.027 1408.97 135.027C1410.18 134.94 1411.39 134.758 1412.58 134.484C1414.04 134.091 1390.11 88.4374 1390.11 88.4374C1390.11 88.4374 1389.01 85.416 1388.25 85.416C1387.5 85.416 1365.69 131.523 1365.69 131.523C1365.69 131.523 1364.29 133.456 1365.29 133.456C1366.3 133.456 1364.75 135.813 1366.39 136.206C1368.03 136.599 1369.42 139.439 1369.42 139.439L1359.71 164.395C1359.71 164.395 1357.85 166.994 1359.71 167.417C1360.85 167.622 1362.02 167.622 1363.17 167.417L1354.54 184.548C1354.54 184.548 1354.69 186.089 1355.76 186.089C1356.82 186.089 1345.98 208.84 1345.98 208.84C1345.98 208.84 1342.76 212.526 1346.28 213.372C1347.38 213.588 1348.51 213.523 1349.57 213.185C1350.63 212.847 1351.59 212.246 1352.36 211.439C1352.36 211.439 1351.35 215.034 1354.97 215.034C1358.58 215.034 1363.53 209.837 1363.53 210.139C1363.53 210.442 1359.68 216.575 1362.14 216.575C1364.6 216.575 1368.54 210.381 1368.54 210.381C1368.54 210.381 1366.69 215.125 1368.76 215.125C1370.82 215.125 1371.79 215.125 1371.79 215.125V229.839H1397.46V214.279C1397.46 214.279 1397.46 217.3 1399.37 216.968C1401.28 216.636 1402.22 213.735 1402.22 213.735C1402.22 213.735 1401.37 216.756 1403.38 217.179C1405.38 217.602 1406.99 212.043 1406.99 212.043C1406.99 212.043 1408.45 218.086 1411.4 218.086C1414.34 218.086 1413.07 212.587 1413.07 212.587C1413.07 212.587 1415.38 218.932 1417.87 218.479C1420.36 218.025 1418.93 213.252 1418.93 213.252C1418.93 213.252 1423.09 216.636 1424.24 216.636C1425.4 216.636 1425.09 213.826 1425.09 213.826Z" fill="#253323"/>
<path d="M238.472 217.087L229.543 197.357C230.343 197.331 231.137 197.219 231.912 197.025C233.279 196.693 234.949 197.025 234.949 195.726C234.949 194.427 225.291 174.939 225.291 174.939C225.291 174.939 227.448 174.939 228.328 174.606C229.209 174.274 228.784 173.035 228.784 173.035C228.784 173.035 230.485 175.12 231.366 174.667C232.246 174.213 230.424 171.978 230.424 171.978L221.313 151.976C222.332 152.062 223.358 151.98 224.35 151.734C225.2 151.341 224.623 149.71 224.623 149.71C225.644 149.621 226.658 149.47 227.66 149.257C228.905 148.924 208.466 109.978 208.466 109.978C208.466 109.978 207.555 107.471 206.887 107.471C206.218 107.471 187.631 146.749 187.631 146.749C187.631 146.749 186.447 148.38 187.297 148.38C188.148 148.38 186.842 150.405 188.239 150.737C189.636 151.07 190.79 153.456 190.79 153.456L182.499 174.788C182.499 174.788 180.95 176.993 182.499 177.325C183.502 177.512 184.532 177.512 185.536 177.325L178.095 191.919C178.095 191.919 178.247 193.218 179.158 193.218C180.069 193.218 170.806 212.615 170.806 212.615C170.806 212.615 168.042 215.637 171.079 216.483C172.004 216.663 172.959 216.608 173.856 216.323C174.754 216.038 175.564 215.532 176.212 214.851C176.212 214.851 175.362 217.873 178.429 217.873C181.497 217.873 185.718 213.431 185.718 213.703C185.718 213.975 182.438 219.202 184.534 219.202C186.629 219.202 190 213.915 190 213.915C190 213.915 188.421 217.963 190.183 217.963C191.944 217.963 192.886 217.963 192.886 217.963V230.593H214.753V217.389C214.753 217.389 214.753 219.867 216.423 219.686C218.093 219.504 218.853 216.936 218.853 216.936C218.853 216.936 218.124 219.414 219.825 219.957C221.525 220.501 222.862 215.576 222.862 215.576C222.862 215.576 224.107 220.683 226.597 220.683C229.088 220.683 228.055 215.969 228.055 215.969C228.055 215.969 229.999 221.408 232.125 221.015C234.251 220.622 233.036 216.574 233.036 216.574C233.036 216.574 236.589 219.444 237.561 219.444C238.533 219.444 238.472 217.087 238.472 217.087Z" fill="#253323"/>
<path d="M486.754 191.467L479.86 176.209C480.486 176.187 481.107 176.096 481.713 175.937C482.776 175.696 484.143 175.937 484.143 174.94C484.143 173.943 476.641 158.776 476.641 158.776C477.415 158.726 478.185 158.635 478.949 158.504C479.557 158.504 479.314 157.295 479.314 157.295C479.314 157.295 480.62 158.927 481.288 158.564C481.956 158.202 480.589 156.479 480.589 156.479L473.482 140.919C474.288 140.991 475.101 140.92 475.882 140.708C476.55 140.406 476.094 139.137 476.094 139.137C476.903 139.084 477.706 138.962 478.494 138.774C479.465 138.532 463.551 108.228 463.551 108.228C463.551 108.228 462.853 106.294 462.336 106.294C461.82 106.294 447.303 136.931 447.303 136.931C447.303 136.931 446.392 138.2 447.06 138.2C447.728 138.2 446.695 139.771 447.758 140.043C448.821 140.315 449.763 142.188 449.763 142.188L443.415 158.685C443.415 158.685 442.17 160.407 443.415 160.679C444.179 160.813 444.96 160.813 445.723 160.679L439.923 172.04C439.923 172.04 439.923 173.037 440.743 173.037C441.563 173.037 434.274 188.144 434.274 188.144C434.274 188.144 432.117 190.591 434.456 191.165C435.177 191.312 435.925 191.272 436.626 191.05C437.328 190.828 437.961 190.431 438.465 189.896C438.465 189.896 437.797 192.283 440.196 192.283C442.595 192.283 445.875 188.839 445.875 189.02C445.875 189.201 443.294 193.31 444.934 193.31C446.574 193.31 449.186 189.201 449.186 189.201C449.186 189.201 447.971 192.223 449.186 192.223C450.4 192.223 451.281 192.223 451.281 192.223V201.982H468.289V191.709C468.289 191.709 468.289 193.643 469.565 193.492C470.84 193.341 471.478 191.377 471.478 191.377C471.478 191.377 470.901 193.28 472.237 193.643C473.574 194.005 474.636 190.259 474.636 190.259C474.636 190.259 475.608 194.217 477.674 194.217C479.739 194.217 478.797 190.561 478.797 190.561C478.797 190.561 480.316 194.761 481.834 194.458C483.353 194.156 482.563 191.014 482.563 191.014C482.563 191.014 485.327 193.25 486.086 193.25C486.846 193.25 486.754 191.467 486.754 191.467Z" fill="#253323"/>
<path d="M396.006 204.307L389.051 188.988C389.675 188.969 390.296 188.888 390.904 188.747C391.967 188.475 393.334 188.747 393.334 187.72C393.334 186.692 385.832 171.555 385.832 171.555C386.606 171.52 387.376 171.439 388.14 171.313C388.748 171.313 388.474 170.075 388.474 170.075C388.474 170.075 389.811 171.706 390.479 171.344C391.147 170.981 389.78 169.289 389.78 169.289L382.673 153.729C383.479 153.785 384.289 153.714 385.073 153.517C385.741 153.215 385.255 151.946 385.255 151.946C386.072 151.878 386.883 151.756 387.685 151.584C388.657 151.342 372.742 121.037 372.742 121.037C372.742 121.037 372.044 119.104 371.527 119.104C371.011 119.104 356.554 149.71 356.554 149.71C356.554 149.71 355.643 150.979 356.312 150.979C356.98 150.979 355.947 152.55 357.01 152.792C358.073 153.034 359.015 154.937 359.015 154.937L352.576 171.525C352.576 171.525 351.331 173.247 352.576 173.489C353.328 173.632 354.101 173.632 354.854 173.489L349.083 184.819C349.083 184.819 349.083 185.846 349.903 185.846C350.723 185.846 343.434 200.953 343.434 200.953C343.434 200.953 341.278 203.401 343.616 203.975C344.333 204.116 345.075 204.073 345.771 203.851C346.466 203.63 347.094 203.235 347.595 202.706C347.595 202.706 346.957 205.093 349.357 205.093C351.756 205.093 355.006 201.618 355.006 201.829C355.006 202.041 352.454 206.09 354.094 206.09C355.734 206.09 358.346 201.981 358.346 201.981C358.346 201.981 357.101 205.002 358.498 205.002H360.594V214.761H377.602V204.488C377.602 204.488 377.602 206.422 378.877 206.271C380.153 206.12 380.76 204.126 380.76 204.126C380.76 204.126 380.213 206.059 381.55 206.422C382.886 206.785 383.949 203.008 383.949 203.008C383.949 203.008 384.921 206.966 386.986 206.966C389.051 206.966 388.11 203.31 388.11 203.31C388.11 203.31 389.628 207.54 391.147 207.238C392.665 206.936 391.876 203.763 391.876 203.763C391.876 203.763 394.609 205.999 395.399 205.999C396.189 205.999 396.006 204.307 396.006 204.307Z" fill="#253323"/>
<path d="M592.658 199.051L585.703 183.733C586.327 183.715 586.948 183.634 587.556 183.491C588.619 183.219 590.016 183.491 590.016 182.464C590.016 181.436 582.484 166.299 582.484 166.299C583.257 166.264 584.028 166.183 584.792 166.057C585.399 166.057 585.156 164.819 585.156 164.819C585.156 164.819 586.493 166.45 587.161 166.088C587.829 165.725 586.432 164.003 586.432 164.003L579.325 148.473C580.131 148.529 580.941 148.458 581.724 148.261C582.393 147.959 581.937 146.69 581.937 146.69C582.744 146.621 583.545 146.5 584.336 146.328C585.308 146.086 569.424 115.781 569.424 115.781C569.424 115.781 568.695 113.848 568.179 113.848C567.663 113.848 553.206 144.454 553.206 144.454C553.206 144.454 552.295 145.723 552.963 145.723C553.631 145.723 552.599 147.295 553.692 147.536C554.785 147.778 555.666 149.681 555.666 149.681L549.228 166.239C549.228 166.239 548.013 167.991 549.228 168.233C549.992 168.358 550.771 168.358 551.536 168.233L545.765 179.563C545.765 179.563 545.765 180.59 546.585 180.59C547.405 180.59 540.086 195.697 540.086 195.697C540.086 195.697 537.93 198.145 540.298 198.719C541.015 198.854 541.755 198.809 542.45 198.588C543.145 198.366 543.773 197.975 544.277 197.45C544.277 197.45 543.609 199.837 546.008 199.837C548.407 199.837 551.688 196.362 551.688 196.574C551.688 196.785 549.136 200.834 550.776 200.834C552.416 200.834 554.998 196.725 554.998 196.725C554.998 196.725 553.783 199.746 554.998 199.746H557.094V209.505H574.132V199.232C574.132 199.232 574.132 201.166 575.407 201.015C576.683 200.864 577.29 198.87 577.29 198.87C577.29 198.87 576.713 200.804 578.05 201.166C579.386 201.529 580.449 197.752 580.449 197.752C580.449 197.752 581.421 201.71 583.486 201.71C585.551 201.71 584.61 198.054 584.61 198.054C584.61 198.054 586.159 202.284 587.647 201.982C589.135 201.68 588.376 198.507 588.376 198.507C588.376 198.507 591.139 200.743 591.899 200.743C592.658 200.743 592.658 199.051 592.658 199.051Z" fill="#253323"/>
<path d="M662.268 208.204L653.795 189.531C654.552 189.506 655.305 189.405 656.042 189.229C657.348 188.897 659.079 189.078 659.079 187.96C659.079 186.842 649.968 168.23 649.968 168.23C650.914 168.181 651.857 168.081 652.792 167.928C653.521 167.717 653.217 166.418 653.217 166.418C653.217 166.418 654.827 168.412 655.647 167.989C656.467 167.566 654.766 165.421 654.766 165.421L646.111 146.446C647.131 146.536 648.16 146.444 649.148 146.174C649.968 145.812 649.391 144.271 649.391 144.271C650.414 144.206 651.43 144.054 652.428 143.818C653.612 143.515 634.205 106.503 634.205 106.503C634.205 106.503 633.325 104.146 632.717 104.146C632.11 104.146 614.495 141.521 614.495 141.521C614.495 141.521 613.371 143.092 614.16 143.092C614.95 143.092 613.735 144.996 615.041 145.328C616.347 145.661 617.471 147.927 617.471 147.927L609.605 168.17C609.605 168.17 608.117 170.285 609.605 170.587C610.539 170.748 611.495 170.748 612.429 170.587L605.383 184.425C605.383 184.425 605.383 185.664 606.355 185.664C607.327 185.664 598.428 204.125 598.428 204.125C598.428 204.125 595.816 207.146 598.702 207.781C599.577 207.955 600.482 207.906 601.332 207.636C602.182 207.366 602.949 206.886 603.561 206.24C603.561 206.24 602.741 209.261 605.687 209.261C608.633 209.261 612.612 205.031 612.612 205.303C612.612 205.575 609.574 210.5 611.488 210.5C613.401 210.5 616.651 205.484 616.651 205.484C616.651 205.484 615.163 209.322 616.863 209.322C618.564 209.322 619.415 209.322 619.415 209.322V221.407H640.188V208.868C640.188 208.868 640.188 211.225 641.768 211.044C643.347 210.862 644.076 208.415 644.076 208.415C644.076 208.415 643.377 210.772 644.987 211.225C646.597 211.678 648.024 207.055 648.024 207.055C648.024 207.055 649.208 211.89 651.577 211.89C653.946 211.89 652.944 207.418 652.944 207.418C652.944 207.418 654.827 212.585 656.832 212.222C658.836 211.859 657.712 207.992 657.712 207.992C657.712 207.992 661.084 210.711 661.995 210.711C662.906 210.711 662.268 208.204 662.268 208.204Z" fill="#253323"/>
<path d="M1176.17 239.354L1169.28 224.066C1169.91 224.044 1170.53 223.952 1171.13 223.794C1172.2 223.552 1173.56 223.794 1173.56 222.797C1173.56 221.8 1166.06 206.632 1166.06 206.632C1166.83 206.582 1167.6 206.492 1168.37 206.36C1168.98 206.36 1168.73 205.152 1168.73 205.152C1168.73 205.152 1170.04 206.783 1170.71 206.421C1171.38 206.058 1170.01 204.336 1170.01 204.336L1162.9 188.776C1163.71 188.832 1164.52 188.761 1165.3 188.564C1165.97 188.262 1165.51 186.993 1165.51 186.993C1166.32 186.94 1167.13 186.819 1167.91 186.63C1168.89 186.389 1152.97 156.084 1152.97 156.084C1152.97 156.084 1152.27 154.15 1151.76 154.15C1151.24 154.15 1136.78 184.757 1136.78 184.757C1136.78 184.757 1135.87 186.026 1136.54 186.026C1137.21 186.026 1136.18 187.597 1137.24 187.869C1138.3 188.141 1139.24 189.984 1139.24 189.984L1132.83 206.572C1132.83 206.572 1131.59 208.294 1132.83 208.566C1133.6 208.7 1134.38 208.7 1135.14 208.566L1129.34 219.896C1129.34 219.896 1129.34 220.923 1130.16 220.923C1130.98 220.923 1123.69 236.03 1123.69 236.03C1123.69 236.03 1121.54 238.478 1123.88 239.052C1124.6 239.198 1125.34 239.159 1126.05 238.937C1126.75 238.714 1127.38 238.317 1127.88 237.783C1127.88 237.783 1127.22 240.17 1129.62 240.17C1132.01 240.17 1135.29 236.725 1135.29 236.907C1135.29 237.088 1132.71 241.197 1134.35 241.197C1135.99 241.197 1138.61 237.058 1138.61 237.058C1138.61 237.058 1137.39 240.23 1138.76 240.23C1140.12 240.23 1140.85 240.23 1140.85 240.23V249.989H1157.86V239.656C1157.86 239.656 1157.86 241.59 1159.14 241.439C1160.41 241.288 1161.05 239.294 1161.05 239.294C1161.05 239.294 1160.47 241.227 1161.81 241.59C1163.15 241.952 1164.21 238.176 1164.21 238.176C1164.21 238.176 1165.18 242.164 1167.25 242.164C1169.31 242.164 1168.37 238.508 1168.37 238.508C1168.37 238.508 1169.89 242.708 1171.41 242.406C1172.92 242.103 1172.13 238.961 1172.13 238.961C1172.13 238.961 1174.9 241.197 1175.66 241.197C1176.42 241.197 1176.17 239.354 1176.17 239.354Z" fill="#253323"/>
<path d="M1091.38 242.678L1084.42 227.571C1085.05 227.549 1085.67 227.458 1086.28 227.299C1087.34 227.058 1088.71 227.299 1088.71 226.302C1088.71 225.305 1081.2 210.047 1081.2 210.047C1081.98 209.997 1082.75 209.907 1083.51 209.775C1084.12 209.624 1083.88 208.567 1083.88 208.567C1083.88 208.567 1085.18 210.198 1085.85 209.836C1086.52 209.473 1085.15 207.751 1085.15 207.751L1078.17 192.191C1078.97 192.262 1079.78 192.201 1080.57 192.009C1081.23 191.677 1080.78 190.408 1080.78 190.408C1081.59 190.355 1082.39 190.244 1083.18 190.076C1084.15 189.804 1068.24 159.499 1068.24 159.499C1068.24 159.499 1067.54 157.565 1067.02 157.565C1066.5 157.565 1051.93 188.293 1051.93 188.293C1051.93 188.293 1051.02 189.562 1051.68 189.562C1052.35 189.562 1051.32 191.163 1052.38 191.405C1053.45 191.647 1054.39 193.55 1054.39 193.55L1047.95 210.108C1047.95 210.108 1046.7 211.83 1047.95 212.102C1048.71 212.236 1049.49 212.236 1050.26 212.102L1044.46 223.462C1044.46 223.462 1044.46 224.459 1045.28 224.459C1046.1 224.459 1038.81 239.566 1038.81 239.566C1038.81 239.566 1036.65 242.014 1038.99 242.588C1039.71 242.734 1040.46 242.695 1041.16 242.472C1041.86 242.25 1042.49 241.853 1043 241.319C1043 241.319 1042.33 243.706 1044.73 243.706C1047.13 243.706 1050.41 240.261 1050.41 240.473C1050.41 240.684 1047.83 244.733 1049.47 244.733C1051.11 244.733 1053.72 240.624 1053.72 240.624C1053.72 240.624 1052.5 243.645 1053.87 243.645C1055.24 243.645 1055.97 243.645 1055.97 243.645V253.404H1072.97V243.131C1072.97 243.131 1072.97 245.065 1074.25 244.914C1075.53 244.763 1076.16 242.799 1076.16 242.799C1076.16 242.799 1075.59 244.733 1076.92 245.065C1078.26 245.398 1079.32 241.681 1079.32 241.681C1079.32 241.681 1080.29 245.639 1082.36 245.639C1084.42 245.639 1083.48 241.983 1083.48 241.983C1083.48 241.983 1085 246.183 1086.52 245.881C1088.04 245.579 1087.25 242.437 1087.25 242.437C1087.25 242.437 1090.01 244.672 1090.77 244.672C1091.53 244.672 1091.38 242.678 1091.38 242.678Z" fill="#253323"/>
<path d="M1303.73 226.937L1289.37 195.303C1290.65 195.263 1291.92 195.091 1293.16 194.79C1295.38 194.246 1298.23 194.578 1298.23 192.675C1298.23 190.771 1282.68 159.258 1282.68 159.258C1284.28 159.172 1285.87 159 1287.45 158.744C1288.73 158.412 1288.18 156.206 1288.18 156.206C1288.18 156.206 1290.95 159.56 1292.31 158.835C1293.68 158.11 1290.82 154.514 1290.82 154.514L1276.16 122.367C1277.82 122.497 1279.49 122.354 1281.11 121.944C1282.5 121.309 1281.53 118.68 1281.53 118.68C1283.21 118.559 1284.87 118.317 1286.51 117.955C1288.52 117.442 1255.65 54.7778 1255.65 54.7778C1255.65 54.7778 1254.17 50.7896 1253.1 50.7896C1252.04 50.7896 1222.16 114.058 1222.16 114.058C1222.16 114.058 1220.27 116.686 1221.64 116.686C1223.01 116.686 1220.88 119.949 1223.13 120.463C1225.38 120.977 1227.23 124.874 1227.23 124.874L1213.93 159.167C1213.93 159.167 1211.37 162.732 1213.93 163.246C1215.49 163.531 1217.1 163.531 1218.66 163.246L1206.73 186.662C1206.73 186.662 1206.94 188.777 1208.43 188.777C1209.92 188.777 1195 219.988 1195 219.988C1195 219.988 1190.57 225.034 1195.43 226.182C1196.91 226.479 1198.45 226.393 1199.89 225.933C1201.33 225.473 1202.63 224.654 1203.66 223.553C1203.66 223.553 1202.29 228.508 1207.27 228.508C1212.25 228.508 1219 221.348 1219 221.771C1219 222.194 1213.71 230.593 1217.08 230.593C1220.45 230.593 1225.86 222.103 1225.86 222.103C1225.86 222.103 1223.31 228.599 1226.16 228.599C1229.02 228.599 1230.51 228.599 1230.51 228.599V248.722H1265.68V227.572C1265.68 227.572 1265.68 231.56 1268.32 231.258C1270.96 230.956 1272.24 226.847 1272.24 226.847C1272.24 226.847 1271.08 230.835 1273.82 231.56C1276.55 232.285 1278.8 224.52 1278.8 224.52C1278.8 224.52 1280.8 232.738 1284.87 232.738C1288.94 232.738 1287.21 225.155 1287.21 225.155C1287.21 225.155 1290.25 233.886 1293.74 233.252C1297.23 232.618 1295.23 226.091 1295.23 226.091C1295.23 226.091 1300.94 230.714 1302.52 230.714C1304.1 230.714 1303.73 226.937 1303.73 226.937Z" fill="#253323"/>
<path d="M1360.25 229.838L1351.75 211.136C1352.51 211.112 1353.26 211.011 1354 210.834C1355.3 210.532 1357.03 210.834 1357.03 209.595C1357.03 208.356 1347.92 189.835 1347.92 189.835C1348.86 189.787 1349.79 189.686 1350.72 189.533C1351.48 189.352 1351.17 188.052 1351.17 188.052C1351.17 188.052 1352.78 190.046 1353.6 189.593C1354.42 189.14 1352.72 187.055 1352.72 187.055L1344.03 168.051C1345.05 168.134 1346.08 168.053 1347.07 167.809C1347.89 167.446 1347.31 165.875 1347.31 165.875C1348.34 165.81 1349.35 165.669 1350.35 165.452C1351.54 165.15 1332.13 128.138 1332.13 128.138C1332.13 128.138 1331.25 125.781 1330.61 125.781C1329.97 125.781 1312.39 163.156 1312.39 163.156C1312.39 163.156 1311.26 164.697 1312.08 164.697C1312.9 164.697 1311.66 166.631 1312.96 166.933C1314.27 167.235 1315.39 169.531 1315.39 169.531L1307.53 189.775C1307.53 189.775 1306.04 191.89 1307.53 192.222C1308.45 192.383 1309.4 192.383 1310.32 192.222L1302.91 206.12C1302.91 206.12 1302.91 207.359 1303.91 207.359C1304.92 207.359 1295.99 225.79 1295.99 225.79C1295.99 225.79 1293.38 228.811 1296.23 229.476C1297.11 229.644 1298.02 229.588 1298.88 229.313C1299.73 229.038 1300.5 228.554 1301.12 227.905C1301.12 227.905 1300.3 230.926 1303.22 230.926C1306.13 230.926 1310.17 226.696 1310.17 226.938C1310.17 227.179 1307.13 232.165 1309.05 232.165C1310.96 232.165 1314.21 227.119 1314.21 227.119C1314.21 227.119 1312.72 230.986 1314.39 230.986C1316.06 230.986 1316.97 230.986 1316.97 230.986V242.679H1337.75V230.14C1337.75 230.14 1337.75 232.497 1339.3 232.316C1340.85 232.135 1341.6 229.717 1341.6 229.717C1341.6 229.717 1340.94 232.074 1342.55 232.497C1344.16 232.92 1345.58 228.358 1345.58 228.358C1345.58 228.358 1346.77 233.192 1349.14 233.192C1351.51 233.192 1350.5 228.72 1350.5 228.72C1350.5 228.72 1352.39 233.887 1354.36 233.494C1356.33 233.101 1355.24 229.264 1355.24 229.264C1355.24 229.264 1358.61 232.014 1359.55 232.014C1360.5 232.014 1360.25 229.838 1360.25 229.838Z" fill="#253323"/>
<path d="M184.686 210.983L177.731 195.665C178.345 195.645 178.955 195.564 179.553 195.423C180.646 195.151 182.013 195.423 182.013 194.396C182.013 193.368 174.511 178.231 174.511 178.231C175.285 178.194 176.055 178.114 176.819 177.989C177.427 177.838 177.154 176.751 177.154 176.751C177.154 176.751 178.49 178.382 179.158 178.02C179.826 177.657 178.429 175.935 178.429 175.935L171.353 160.375C172.157 160.446 172.968 160.384 173.752 160.193C174.42 159.891 173.934 158.622 173.934 158.622C174.741 158.555 175.543 158.433 176.334 158.26C177.305 158.078 161.421 127.864 161.421 127.864C161.421 127.864 160.723 125.931 160.207 125.931C159.69 125.931 145.234 156.537 145.234 156.537C145.234 156.537 144.323 157.806 144.96 157.806C145.598 157.806 144.626 159.378 145.689 159.619C146.752 159.861 147.694 161.764 147.694 161.764L141.255 178.322C141.255 178.322 140.01 180.074 141.255 180.316C142.009 180.44 142.779 180.44 143.533 180.316L137.762 191.646C137.762 191.646 137.762 192.643 138.583 192.643C139.403 192.643 132.083 207.75 132.083 207.75C132.083 207.75 129.957 210.198 132.296 210.772C133.013 210.919 133.755 210.879 134.453 210.657C135.15 210.435 135.777 210.037 136.274 209.503C136.274 209.503 135.637 211.89 138.036 211.89C140.435 211.89 143.685 208.445 143.685 208.657C143.685 208.868 141.134 212.917 142.774 212.917C144.414 212.917 147.026 208.808 147.026 208.808C147.026 208.808 145.78 211.829 147.177 211.829C148.575 211.829 149.273 211.829 149.273 211.829V221.528H166.281V211.285C166.281 211.285 166.281 213.219 167.556 213.038C168.832 212.856 169.439 210.923 169.439 210.923C169.439 210.923 168.893 212.856 170.229 213.219C171.565 213.582 172.628 209.805 172.628 209.805C172.628 209.805 173.6 213.763 175.665 213.763C177.731 213.763 176.789 210.107 176.789 210.107C176.789 210.107 178.308 214.337 179.826 214.005C181.345 213.672 180.525 210.56 180.525 210.56C180.525 210.56 183.288 212.796 184.078 212.796C184.868 212.796 184.686 210.983 184.686 210.983Z" fill="#253323"/>
<path d="M112.372 214.943L102.988 194.337C103.827 194.31 104.662 194.199 105.478 194.004C106.906 193.642 108.758 193.853 108.758 192.614C108.758 191.376 98.6752 170.891 98.6752 170.891C98.6752 170.891 100.923 170.739 101.712 170.558C102.502 170.377 102.198 168.896 102.198 168.896C102.198 168.896 103.99 171.102 104.901 170.619C105.812 170.135 103.929 167.809 103.929 167.809L94.3625 146.901C95.4533 146.975 96.5492 146.884 97.6122 146.629C98.4929 146.206 97.8855 144.514 97.8855 144.514C98.9685 144.426 100.044 144.265 101.105 144.03C102.411 143.668 81.06 102.939 81.06 102.939C81.06 102.939 80.0882 100.341 79.3896 100.341C78.6911 100.341 59.2537 141.492 59.2537 141.492C59.2537 141.492 58.0389 143.215 58.9196 143.215C59.8004 143.215 58.4337 145.329 59.8915 145.662C61.3493 145.994 62.5641 148.532 62.5641 148.532L53.9084 170.83C53.9084 170.83 52.2684 173.126 53.9084 173.489C54.9137 173.658 55.9403 173.658 56.9455 173.489L49.1706 188.747C49.1706 188.747 49.3224 190.107 50.2639 190.107C51.2054 190.107 41.5475 210.411 41.5475 210.411C41.5475 210.411 38.5104 213.674 41.8208 214.429C42.7829 214.62 43.7779 214.564 44.7127 214.268C45.6475 213.973 46.4916 213.446 47.1661 212.737C47.1661 212.737 46.2853 215.94 49.5047 215.94C52.724 215.94 57.1278 211.287 57.1278 211.559C57.1278 211.831 53.6958 217.299 55.9129 217.299C58.13 217.299 61.6227 211.77 61.6227 211.77C61.6227 211.77 59.9522 216 61.8049 216C63.6575 216 64.6294 216 64.6294 216V229.113H87.4987V215.486C87.4987 215.486 87.4987 218.085 89.2298 217.904C90.9609 217.722 91.781 215.033 91.781 215.033C91.781 215.033 91.0217 217.601 92.8136 218.055C94.6055 218.508 96.0329 213.492 96.0329 213.492C96.0329 213.492 97.3388 218.81 99.9507 218.81C102.563 218.81 101.469 213.885 101.469 213.885C101.469 213.885 103.535 219.565 105.721 219.173C107.908 218.78 106.693 214.52 106.693 214.52C106.693 214.52 110.398 217.541 111.431 217.541C112.464 217.541 112.372 214.943 112.372 214.943Z" fill="#253323"/>
<path d="M150.002 210.983L143.047 195.665C143.671 195.645 144.292 195.564 144.9 195.423C145.963 195.151 147.36 195.423 147.36 194.396C147.36 193.368 139.706 178.231 139.706 178.231C140.48 178.196 141.25 178.115 142.014 177.989C142.622 177.838 142.379 176.751 142.379 176.751C142.379 176.751 143.685 178.382 144.353 178.02C145.021 177.657 143.654 175.935 143.654 175.935L136.669 160.375C137.473 160.446 138.284 160.384 139.068 160.193C139.737 159.891 139.281 158.622 139.281 158.622C140.088 158.553 140.889 158.432 141.68 158.26C142.743 158.078 126.768 127.864 126.768 127.864C126.768 127.864 126.039 125.931 125.523 125.931C125.007 125.931 110.55 156.537 110.55 156.537C110.55 156.537 109.639 157.806 110.307 157.806C110.975 157.806 109.943 159.378 111.006 159.619C112.069 159.861 113.01 161.764 113.01 161.764L106.571 178.322C106.571 178.322 105.357 180.074 106.571 180.316C107.336 180.44 108.115 180.44 108.88 180.316L103.261 191.556C103.261 191.556 103.261 192.553 104.051 192.553C104.84 192.553 97.5817 207.66 97.5817 207.66C97.5817 207.66 95.4254 210.107 97.7943 210.681C98.5112 210.825 99.2533 210.784 99.9497 210.562C100.646 210.34 101.274 209.944 101.773 209.412C101.773 209.412 101.105 211.799 103.504 211.799C105.903 211.799 109.183 208.355 109.183 208.566C109.183 208.778 106.632 212.826 108.242 212.826C109.852 212.826 112.494 208.717 112.494 208.717C112.494 208.717 111.279 211.738 112.494 211.738C113.709 211.738 114.589 211.738 114.589 211.738V221.528H131.597V211.285C131.597 211.285 131.597 213.219 132.873 213.038C134.148 212.856 134.786 210.923 134.786 210.923C134.786 210.923 134.209 212.856 135.545 213.219C136.882 213.582 137.945 209.805 137.945 209.805C137.945 209.805 138.917 213.763 140.982 213.763C143.047 213.763 142.105 210.107 142.105 210.107C142.105 210.107 143.624 214.337 145.143 214.005C146.661 213.672 145.871 210.56 145.871 210.56C145.871 210.56 148.635 212.796 149.394 212.796C150.154 212.796 150.002 210.983 150.002 210.983Z" fill="#253323"/>
<path d="M56.1559 221.742L49.2009 206.423C49.8252 206.406 50.446 206.325 51.0536 206.181C52.1166 205.909 53.5136 206.181 53.5136 205.154C53.5136 204.127 45.9816 188.99 45.9816 188.99C46.7551 188.954 47.5258 188.873 48.2898 188.748C48.8972 188.597 48.6543 187.509 48.6543 187.509C48.6543 187.509 49.9906 189.141 50.6587 188.778C51.3269 188.416 49.9298 186.693 49.9298 186.693L42.8231 171.163C43.629 171.22 44.4389 171.148 45.2224 170.952C45.8905 170.65 45.435 169.381 45.435 169.381C46.2417 169.311 47.0431 169.19 47.8343 169.018C48.8061 168.746 32.9221 138.472 32.9221 138.472C32.9221 138.472 32.1932 136.538 31.6769 136.538C31.1606 136.538 16.7041 167.145 16.7041 167.145C16.7041 167.145 15.7929 168.414 16.4611 168.414C17.1293 168.414 16.0967 169.985 17.19 170.227C18.2834 170.468 19.1641 172.372 19.1641 172.372L12.7255 188.929C12.7255 188.929 11.5106 190.682 12.7255 190.923C13.4897 191.048 14.2694 191.048 15.0337 190.923L9.2632 202.254C9.2632 202.254 9.2632 203.281 10.0832 203.281C10.9032 203.281 3.58384 218.388 3.58384 218.388C3.58384 218.388 1.42751 220.835 3.79644 221.409C4.51592 221.544 5.25794 221.495 5.95352 221.268C6.6491 221.041 7.27568 220.643 7.77502 220.11C7.77502 220.11 7.10687 222.527 9.50617 222.527C11.9055 222.527 15.1855 219.083 15.1855 219.294C15.1855 219.506 12.6344 223.554 14.2744 223.554C15.9144 223.554 18.496 219.445 18.496 219.445C18.496 219.445 17.2811 222.467 18.496 222.467H20.5915V232.226H37.6296V221.953C37.6296 221.953 37.6296 223.887 38.9052 223.736C40.1808 223.585 40.7882 221.591 40.7882 221.591C40.7882 221.591 40.2112 223.524 41.5475 223.887C42.8838 224.249 43.9468 220.473 43.9468 220.473C43.9468 220.473 44.9186 224.431 46.9839 224.431C49.0491 224.431 48.1076 220.775 48.1076 220.775C48.1076 220.775 49.6565 225.005 51.1447 224.703C52.6329 224.4 51.8736 221.228 51.8736 221.228C51.8736 221.228 54.6373 223.464 55.3966 223.464C56.1559 223.464 56.1559 221.742 56.1559 221.742Z" fill="#253323"/>
<path d="M0 288H1518.55V204.549C1518.55 204.549 1302.91 246.275 1058.85 246.275C814.791 246.275 656.68 194.337 396.006 194.337C135.333 194.337 0 234.642 0 234.642V288Z" fill="#253323"/>
</g>
<defs>
<clipPath id="clip0">
<rect width="1518.55" height="288" fill="white"/>
</clipPath>
</defs>
</svg>
