<svg height="480" width="640" xmlns="http://www.w3.org/2000/svg"><g fill="#fff" stroke="#fff"><g fill-rule="evenodd"><path d="m45.974869 466.988739c.024441-1.975891.033833-3.953827 0-5.964905-.025379-1.411438-.08931-2.841888-.146648-4.269287-.353451-8.763611-1.328251-17.185699-2.995861-24.893463-1.66761-7.707886-4.013908-14.708496-6.87431-20.813049-2.611301-5.665619-5.640909-10.559723-8.69524-14.596924-3.05434-4.037231-6.14467-7.210571-8.87149-9.69986-6.163849-4.39386-9.694389-7.407471-9.370839-8.256256.342259-.837799 4.55997.59967 11.867829 3.955841 3.35458 2.094482 7.188181 5.100067 11.045301 9.166412 3.857107 4.065338 7.716761 9.220642 11.07453 15.38147 3.5345 6.565674 6.48806 14.179077 8.577728 22.539825 2.089691 8.359802 3.32864 17.452881 3.671753 26.808136.056396 1.522858.07708 3.050781.08836 4.551575.018799 2.058319-.010342 4.074371-.058281 6.090485z"/><path d="m76.60994 466.988495c.198997-1.957642.420769-3.918091.587494-5.901337.988373-11.757965 1.302124-23.171967 1.018288-33.943085-.328773-12.609711-1.491295-24.355164-3.054909-34.822052-1.563599-10.466827-3.513756-19.634247-5.326515-27.24649-1.812759-7.612274-3.455818-13.673279-4.464859-17.913269-1.009056-4.23999-1.390007-6.66745-.744148-6.989532.645859-.322052 2.251007 1.491364 4.464867 5.273529 2.213867 3.782166 5.053162 9.545258 7.9506 17.076172 2.89743 7.530945 5.8255 16.850677 8.224762 27.66507 2.399239 10.814484 4.241844 23.117737 4.974014 36.412506.62149 11.332916.483658 23.363831-.548309 35.700928-.131882 1.57666-.272957 3.128113-.430832 4.687561h-12.650452z"/><path d="m103.316803 466.988495c2.510185-8.27597 5.10453-16.158203 7.490814-23.543854 2.571411-7.958496 4.894646-15.381989 6.78582-22.194 1.103012-3.980286 2.067711-7.738953 2.849449-11.238281.781761-3.499329 1.373352-6.735687 1.821297-9.700073.438538-2.928833.723976-5.589722.910645-7.910736.186699-2.321045.266083-4.295044.323143-5.933075.05706-1.638.111816-2.938293.205627-3.829773.093819-.891479.241081-1.381989.49939-1.444031.258316-.062103.62146.312927 1.02816 1.130096s.866669 2.089935 1.292534 3.767029c.425865 1.677063.800095 3.763397 1.057526 6.246979.257446 2.483551.370743 5.342651.293755 8.507172-.073402 3.198212-.319572 6.719269-.793144 10.484863-.473564 3.765533-1.158981 7.797638-2.026924 11.991699-1.479965 7.169342-3.461014 14.922241-5.787033 23.072968-1.886299 6.609863-4.019104 13.521301-6.139542 20.593018h-9.811516z"/><path d="m144.384155 466.988495c.054535-1.481354.127502-2.94519.176254-4.445068.005661-.148132-.0047-.30365 0-.451965.39769-12.660248.586319-24.739349.810776-35.786469.224472-11.047089.508606-21.05957.916519-29.457825.407913-8.398254.935043-15.187683 1.586273-19.889709.65126-4.702057 1.407211-7.307922 2.185547-7.307922s1.522461 2.590149 2.220795 7.270294c.698334 4.680115 1.361023 11.439819 1.974045 19.814362.612991 8.374481 1.170273 18.375153 1.515778 29.495483.34549 11.120361.470993 23.376953.070496 36.276123-.004715.151123.0047.301025 0 .452026-.042496 1.358643-.121368 2.685303-.176254 4.03067h-11.280228z"/><path d="m173.906693 466.988739c.237839-6.337616.743576-12.418091 1.523788-17.986206.944717-6.747528 2.27298-12.751648 3.747879-17.650787s3.072952-8.700317 4.402161-11.215668c1.328247-2.516357 2.36322-3.753937 2.852966-3.541016.490692.213989.392929 1.862427-.047928 4.625946-.440872 2.764435-1.193863 6.652008-1.934586 11.499969-.740738 4.84787-1.453278 10.650085-1.959 17.159454-.410812 5.28595-.671204 11.059998-.84697 17.108307h-7.738312z"/><path d="m272.491913 364.487671c-.291412-.004974-.76236.385742-1.379974 1.19342-.705994.92215-1.602722 2.389771-2.585083 4.363708-.983246 1.9729-2.044556 4.45813-3.055084 7.470764-1.011444 3.012573-1.96463 6.559631-2.702576 10.547668-.676819 3.657501-1.160004 7.684692-1.410034 12.023285-.250977 4.338593-.255676 8.989594.029144 13.843567.42395 7.167328 1.403473 14.786774 2.937592 22.665375 1.534088 7.878571 3.617218 16.009338 5.992676 24.234497.4841 1.676575.974762 3.315948 1.468323 4.959412.193604.646912.392914 1.272705.587524 1.914581h9.811951c-.494446-1.648407-.977631-3.256622-1.469269-4.928192-.474701-1.625397-.937195-3.250702-1.410034-4.897125-2.319031-8.074524-4.412445-15.929993-6.080078-23.417816-1.668549-7.488861-2.902771-14.611053-3.642578-21.315308-.50296-4.526459-.80188-8.863007-.881744-12.902283-.079895-4.039307.056366-7.790192.323364-11.237762.577179-7.503937 1.829285-13.511047 2.73172-17.673859.451172-2.08139.798065-3.71579.969147-4.865936.171997-1.150238.156036-1.806213-.117493-1.945831-.033844-.018066-.075226-.031128-.117493-.032166z"/><path d="m224.970139 365.202667c-.106415-.022675-.249252.020508-.351974.188141-.102737.167542-.151016.490234-.175995.71463-.052734.396759-.057434.911652 0 1.504608.113312 1.172119.442383 2.747406.915176 4.626648.940765 3.735474 2.527359 8.86853 4.435135 15.121399 3.76622 12.338684 8.879471 29.286621 12.84787 49.276062 1.927139 9.71698 3.537933 20.166565 4.646332 31.070221h11.369476c-1.206024-11.912689-3.23732-23.262238-5.702316-33.66568-2.438599-10.30072-5.303818-19.68576-8.236725-27.98584-2.932846-8.299988-5.92244-15.507355-8.659088-21.440735-2.783127-6.036133-5.268112-10.714081-7.180725-13.992798-.970154-1.667755-1.766342-2.935211-2.39357-3.836792-.320572-.465485-.58992-.798187-.809586-1.053253-.142639-.234619-.311554-.267487-.422394-.338531-.11084-.071014-.175262-.165314-.281616-.18808z"/><path d="m204.310959 385.112518c-.597443.214966-.389709 2.808533.381882 7.314301.771606 4.505768 2.096786 10.945862 3.642593 18.897858 1.545837 7.951996 3.305786 17.395844 4.641388 27.938721 1.116104 8.810303 1.932465 18.392914 2.056305 28.440979h9.312134c-.256348-10.668793-1.391861-20.747711-2.966965-29.88501-1.872772-10.864014-4.325439-20.43335-6.727051-28.315399-2.401627-7.88205-4.746567-14.056305-6.58017-18.238647-1.833618-4.182343-3.162674-6.367767-3.760117-6.152802z"/><path d="m298.558533 387.133392c-.695129 0-1.34729 2.086853-1.983337 5.786499-.636078 3.699615-1.269531 9.027039-1.888916 15.643738-.619415 6.616669-1.208282 14.506866-1.668549 23.31424-.460266 8.807404-.778809 18.537231-.598175 28.798004.005646.34082.024384.669373.031433 1.009247.033264 1.770599.091888 3.537292.15741 5.28186h10.074188c-.053009-1.823914-.117523-3.657471-.15741-5.517365-.006592-.331116-.025482-.643341-.031403-.975647-.181061-10.003387-.170898-19.602783-.220367-28.360596-.049408-8.757843-.148926-16.674713-.440735-23.347931-.291809-6.673065-.753418-12.076324-1.322235-15.81192-.568878-3.735535-1.256775-5.820129-1.951904-5.820129z"/><path d="m307.80191 395.44043c-.617737.204559-.569641 2.443329-.146912 6.309753.422821 3.866455 1.223938 9.36908 2.056335 16.166779.832397 6.797607 1.674103 14.906158 2.350067 23.951965.595551 7.969727 1.044434 16.692963 1.380646 25.835449h9.400238c-.386688-9.481293-1.113953-18.566772-2.173798-26.839996-1.18515-9.251495-2.760132-17.509094-4.465118-24.328644-1.704956-6.819519-3.533386-12.203888-5.052643-15.821472-1.519226-3.617554-2.731079-5.478394-3.348816-5.273834z"/></g><path d="m35.443506 454.633555h600.509033v13.069897h-600.509033z"/><g fill-rule="evenodd"><g><path d="m45.974869 466.988739c.024441-1.975891.033833-3.953827 0-5.964905-.025379-1.411438-.08931-2.841888-.146648-4.269287-.353451-8.763611-1.328251-17.185699-2.995861-24.893463-1.66761-7.707886-4.013908-14.708496-6.87431-20.813049-2.611301-5.665619-5.640909-10.559723-8.69524-14.596924-3.05434-4.037231-6.14467-7.210571-8.87149-9.69986-6.163849-4.39386-9.694389-7.407471-9.370839-8.256256.342259-.837799 4.55997.59967 11.867829 3.955841 3.35458 2.094482 7.188181 5.100067 11.045301 9.166412 3.857107 4.065338 7.716761 9.220642 11.07453 15.38147 3.5345 6.565674 6.48806 14.179077 8.577728 22.539825 2.089691 8.359802 3.32864 17.452881 3.671753 26.808136.056396 1.522858.07708 3.050781.08836 4.551575.018799 2.058319-.010342 4.074371-.058281 6.090485z"/><path d="m76.60994 466.988495c.198997-1.957642.420769-3.918091.587494-5.901337.988373-11.757965 1.302124-23.171967 1.018288-33.943085-.328773-12.609711-1.491295-24.355164-3.054909-34.822052-1.563599-10.466827-3.513756-19.634247-5.326515-27.24649-1.812759-7.612274-3.455818-13.673279-4.464859-17.913269-1.009056-4.23999-1.390007-6.66745-.744148-6.989532.645859-.322052 2.251007 1.491364 4.464867 5.273529 2.213867 3.782166 5.053162 9.545258 7.9506 17.076172 2.89743 7.530945 5.8255 16.850677 8.224762 27.66507 2.399239 10.814484 4.241844 23.117737 4.974014 36.412506.62149 11.332916.483658 23.363831-.548309 35.700928-.131882 1.57666-.272957 3.128113-.430832 4.687561h-12.650452z"/><path d="m103.316803 466.988495c2.510185-8.27597 5.10453-16.158203 7.490814-23.543854 2.571411-7.958496 4.894646-15.381989 6.78582-22.194 1.103012-3.980286 2.067711-7.738953 2.849449-11.238281.781761-3.499329 1.373352-6.735687 1.821297-9.700073.438538-2.928833.723976-5.589722.910645-7.910736.186699-2.321045.266083-4.295044.323143-5.933075.05706-1.638.111816-2.938293.205627-3.829773.093819-.891479.241081-1.381989.49939-1.444031.258316-.062103.62146.312927 1.02816 1.130096s.866669 2.089935 1.292534 3.767029c.425865 1.677063.800095 3.763397 1.057526 6.246979.257446 2.483551.370743 5.342651.293755 8.507172-.073402 3.198212-.319572 6.719269-.793144 10.484863-.473564 3.765533-1.158981 7.797638-2.026924 11.991699-1.479965 7.169342-3.461014 14.922241-5.787033 23.072968-1.886299 6.609863-4.019104 13.521301-6.139542 20.593018h-9.811516z"/><path d="m144.384155 466.988495c.054535-1.481354.127502-2.94519.176254-4.445068.005661-.148132-.0047-.30365 0-.451965.39769-12.660248.586319-24.739349.810776-35.786469.224472-11.047089.508606-21.05957.916519-29.457825.407913-8.398254.935043-15.187683 1.586273-19.889709.65126-4.702057 1.407211-7.307922 2.185547-7.307922s1.522461 2.590149 2.220795 7.270294c.698334 4.680115 1.361023 11.439819 1.974045 19.814362.612991 8.374481 1.170273 18.375153 1.515778 29.495483.34549 11.120361.470993 23.376953.070496 36.276123-.004715.151123.0047.301025 0 .452026-.042496 1.358643-.121368 2.685303-.176254 4.03067h-11.280228z"/><path d="m173.906693 466.988739c.237839-6.337616.743576-12.418091 1.523788-17.986206.944717-6.747528 2.27298-12.751648 3.747879-17.650787s3.072952-8.700317 4.402161-11.215668c1.328247-2.516357 2.36322-3.753937 2.852966-3.541016.490692.213989.392929 1.862427-.047928 4.625946-.440872 2.764435-1.193863 6.652008-1.934586 11.499969-.740738 4.84787-1.453278 10.650085-1.959 17.159454-.410812 5.28595-.671204 11.059998-.84697 17.108307h-7.738312z"/><path d="m272.491913 364.487671c-.291412-.004974-.76236.385742-1.379974 1.19342-.705994.92215-1.602722 2.389771-2.585083 4.363708-.983246 1.9729-2.044556 4.45813-3.055084 7.470764-1.011444 3.012573-1.96463 6.559631-2.702576 10.547668-.676819 3.657501-1.160004 7.684692-1.410034 12.023285-.250977 4.338593-.255676 8.989594.029144 13.843567.42395 7.167328 1.403473 14.786774 2.937592 22.665375 1.534088 7.878571 3.617218 16.009338 5.992676 24.234497.4841 1.676575.974762 3.315948 1.468323 4.959412.193604.646912.392914 1.272705.587524 1.914581h9.811951c-.494446-1.648407-.977631-3.256622-1.469269-4.928192-.474701-1.625397-.937195-3.250702-1.410034-4.897125-2.319031-8.074524-4.412445-15.929993-6.080078-23.417816-1.668549-7.488861-2.902771-14.611053-3.642578-21.315308-.50296-4.526459-.80188-8.863007-.881744-12.902283-.079895-4.039307.056366-7.790192.323364-11.237762.577179-7.503937 1.829285-13.511047 2.73172-17.673859.451172-2.08139.798065-3.71579.969147-4.865936.171997-1.150238.156036-1.806213-.117493-1.945831-.033844-.018066-.075226-.031128-.117493-.032166z"/><path d="m224.970139 365.202667c-.106415-.022675-.249252.020508-.351974.188141-.102737.167542-.151016.490234-.175995.71463-.052734.396759-.057434.911652 0 1.504608.113312 1.172119.442383 2.747406.915176 4.626648.940765 3.735474 2.527359 8.86853 4.435135 15.121399 3.76622 12.338684 8.879471 29.286621 12.84787 49.276062 1.927139 9.71698 3.537933 20.166565 4.646332 31.070221h11.369476c-1.206024-11.912689-3.23732-23.262238-5.702316-33.66568-2.438599-10.30072-5.303818-19.68576-8.236725-27.98584-2.932846-8.299988-5.92244-15.507355-8.659088-21.440735-2.783127-6.036133-5.268112-10.714081-7.180725-13.992798-.970154-1.667755-1.766342-2.935211-2.39357-3.836792-.320572-.465485-.58992-.798187-.809586-1.053253-.142639-.234619-.311554-.267487-.422394-.338531-.11084-.071014-.175262-.165314-.281616-.18808z"/><path d="m204.310959 385.112518c-.597443.214966-.389709 2.808533.381882 7.314301.771606 4.505768 2.096786 10.945862 3.642593 18.897858 1.545837 7.951996 3.305786 17.395844 4.641388 27.938721 1.116104 8.810303 1.932465 18.392914 2.056305 28.440979h9.312134c-.256348-10.668793-1.391861-20.747711-2.966965-29.88501-1.872772-10.864014-4.325439-20.43335-6.727051-28.315399-2.401627-7.88205-4.746567-14.056305-6.58017-18.238647-1.833618-4.182343-3.162674-6.367767-3.760117-6.152802z"/><path d="m298.558533 387.133392c-.695129 0-1.34729 2.086853-1.983337 5.786499-.636078 3.699615-1.269531 9.027039-1.888916 15.643738-.619415 6.616669-1.208282 14.506866-1.668549 23.31424-.460266 8.807404-.778809 18.537231-.598175 28.798004.005646.34082.024384.669373.031433 1.009247.033264 1.770599.091888 3.537292.15741 5.28186h10.074188c-.053009-1.823914-.117523-3.657471-.15741-5.517365-.006592-.331116-.025482-.643341-.031403-.975647-.181061-10.003387-.170898-19.602783-.220367-28.360596-.049408-8.757843-.148926-16.674713-.440735-23.347931-.291809-6.673065-.753418-12.076324-1.322235-15.81192-.568878-3.735535-1.256775-5.820129-1.951904-5.820129z"/><path d="m307.80191 395.44043c-.617737.204559-.569641 2.443329-.146912 6.309753.422821 3.866455 1.223938 9.36908 2.056335 16.166779.832397 6.797607 1.674103 14.906158 2.350067 23.951965.595551 7.969727 1.044434 16.692963 1.380646 25.835449h9.400238c-.386688-9.481293-1.113953-18.566772-2.173798-26.839996-1.18515-9.251495-2.760132-17.509094-4.465118-24.328644-1.704956-6.819519-3.533386-12.203888-5.052643-15.821472-1.519226-3.617554-2.731079-5.478394-3.348816-5.273834z"/><path d="m53.55241 456.924286c.024441-2.029175.03384-4.060303 0-6.125702-.026321-1.449524-.092121-2.919159-.151352-4.384766-.362839-8.999664-1.363968-17.648773-3.076698-25.564484-1.712719-7.915771-4.122009-15.104248-7.059589-21.373596-2.681892-5.819244-5.792721-10.845001-8.929401-14.990692-3.136669-4.145752-6.310389-7.40448-9.11063-9.961975-6.33013-4.51239-9.955809-7.606384-9.623509-8.478333.35148-.86087 4.68283.615784 12.18772 4.062347 3.445089 2.151733 7.381922 5.237671 11.34347 9.413513 3.960331 4.174866 7.924419 9.469788 11.372429 15.796326 3.630383 6.742493 6.662903 14.560791 8.808971 23.146637 2.146091 8.585785 3.41888 17.92392 3.771389 27.531372.05735 1.565063.07896 3.133148.09024 4.67511.01881 2.112518-.010338 4.182892-.06015 6.254242h-9.562889z"/><path d="m85.012657 456.923859c.204361-2.010345.432106-4.023651.60331-6.060394 1.01503-12.074951 1.33725-23.7966 1.045776-34.858093-.337646-12.949677-1.531509-25.011688-3.137276-35.760742-1.605759-10.748993-3.608475-20.163513-5.470108-27.980988-1.861603-7.817535-3.548973-14.04184-4.585213-18.396179-1.036255-4.354279-1.42749-6.847168-.764214-7.177948.663284-.33078 2.311707 1.531586 4.58522 5.41571 2.27356 3.884125 5.189377 9.802521 8.16494 17.536499 2.97554 7.733978 5.982559 17.304871 8.446457 28.410889 2.463928 11.105957 4.356201 23.740845 5.108116 37.393951.638237 11.638458.496696 23.993744-.563095 36.663391-.135445 1.619141-.280304 3.212372-.442444 4.813904h-12.99147z"/><path d="m112.439484 456.923859c2.577835-8.499054 5.242126-16.593811 7.692757-24.178497 2.640709-8.173096 5.026573-15.796631 6.968712-22.792297 1.132751-4.087555 2.123459-7.947571 2.92627-11.541199.802856-3.593689 1.410355-6.917297 1.870407-9.961578.450333-3.007782.7435-5.740417.935181-8.123993.191711-2.383636.273254-4.410828.331863-6.093018.058548-1.682129.114822-3.017517.211166-3.933044.096329-.915497.247574-1.419159.512863-1.482941.265244-.063782.638214.321381 1.055862 1.160553.417633.839264.89003 2.146301 1.327377 3.868561.437363 1.722351.821686 3.864868 1.086029 6.415375.264389 2.550537.380737 5.486725.301682 8.736511-.075394 3.284424-.328217 6.900421-.814514 10.767517-.486328 3.867096-1.190231 8.007843-2.081589 12.314972-1.519852 7.362549-3.554321 15.324493-5.943024 23.694916-1.937157 6.788086-4.127426 13.885803-6.305054 21.148163h-10.075989z"/><path d="m154.613617 456.924286c.056396-1.521881.131592-3.024628.181412-4.565643.005661-.151672-.0047-.311432 0-.464081.407974-13.00174.601639-25.405823.832901-36.751038.230301-11.344238.521698-21.626709.940933-30.251678.41832-8.624939.959793-15.597412 1.629059-20.42627.668365-4.828827 1.444839-7.504883 2.243866-7.504883.799942 0 1.564178 2.660004 2.281418 7.466705.717239 4.805695 1.397812 11.748077 2.026703 20.347961.629822 8.600861 1.202316 18.871277 1.556686 30.290833.355331 11.420624.484131 24.007446.072372 37.254303-.0047.154694.004715.309387 0 .46405-.043228 1.395386-.124069 2.757477-.180466 4.13974h-11.584885z"/><path d="m184.932251 456.924286c.244431-6.508392.764252-12.752594 1.565155-18.471436.970123-6.929291 2.334076-13.095154 3.849411-18.126923 1.514374-5.030731 3.154739-8.934357 4.519653-11.517975 1.364914-2.58371 2.427139-3.855438 2.930069-3.635437.50383.218994.403259 1.911621-.048889 4.750458-.45311 2.838806-1.226761 6.831818-1.987213 11.809326-.760483 4.978485-1.491837 10.937408-2.011658 17.62265-.422073 5.42746-.689026 11.358246-.869537 17.569336h-7.946991z"/><path d="m286.174927 351.660706c-.298981-.004974-.783051.395813-1.417603 1.224579-.724731.947235-1.645935 2.454071-2.654602 4.481201-1.008636 2.027161-2.099091 4.578766-3.137817 7.672699-1.038727 3.093994-2.016327 6.73642-2.774963 10.831909-.694702 3.756012-1.190979 7.891693-1.448578 12.346832-.257538 4.456085-.262268 9.231689.03009 14.217194.436157 7.360229 1.44104 15.184601 3.017487 23.276154 1.575439 8.090576 3.714966 16.440277 6.153412 24.887451.497253 1.722748 1.001129 3.406372 1.508728 5.094025.19928.663971.40329 1.306885.603485 1.96582h10.076172c-.507629-1.692627-1.003967-3.345062-1.508759-5.060822-.487885-1.669525-.962585-3.338074-1.447662-5.029724-2.381989-8.291443-4.53183-16.358917-6.244598-24.049652-1.713623-7.689758-2.980774-15.003815-3.741272-21.888916-.516083-4.648987-.82251-9.102081-.905273-13.249847-.081757-4.148712.058319-8.000153.331848-11.541107.59317-7.705811 1.879089-13.875671 2.805969-18.149994.463409-2.137695.819702-3.816254.995514-4.997589.175781-1.180328.160736-1.854401-.120331-1.998077-.035706-.018005-.078003-.032135-.121246-.032135z"/><path d="m237.372238 352.394165c-.109283-.023315-.255966.020966-.361481.193115-.105484.172089-.15506.50351-.180725.733978-.054153.40741-.05896.936249 0 1.545197.116379 1.203644.4543 2.821381.93985 4.751373.966095 3.836121 2.59549 9.107544 4.554703 15.528931 3.867722 12.671356 9.11882 30.076141 13.194183 50.604431 1.979126 9.978912 3.633301 20.710114 4.771606 31.907745h11.675964c-1.238556-12.233765-3.324615-23.889343-5.856049-34.573181-2.504333-10.578369-5.446838-20.2164-8.458771-28.740173-3.011917-8.523804-6.082062-15.925415-8.892502-22.018738-2.858139-6.198944-5.41011-11.00293-7.374268-14.370087-.996323-1.712677-1.813995-3.014282-2.458115-3.940186-.329224-.478058-.60582-.819733-.831406-1.081665-.146515-.240875-.319977-.274689-.433823-.347626-.1138-.072906-.179947-.169769-.289169-.193115z"/><path d="m216.156128 372.840698c-.613541.220734-.400223 2.884247.392181 7.511475.792389 4.627228 2.15329 11.240967 3.740799 19.407318 1.587463 8.166351 3.394867 17.864777 4.766464 28.691833 1.14621 9.047821 1.984573 18.888702 2.11174 29.207672h9.563171c-.26326-10.956421-1.429367-21.307007-3.046936-30.690582-1.923264-11.156921-4.442062-20.984253-6.908417-29.078766-2.46637-8.094482-4.874512-14.435211-6.757568-18.730316-1.883026-4.295013-3.24791-6.539368-3.861435-6.318634z"/><path d="m312.944336 374.916046c-.713837 0-1.383575 2.143188-2.036804 5.942505-.65329 3.799316-1.303741 9.270386-1.93985 16.065491-.636108 6.795074-1.240845 14.897858-1.713501 23.942719-.472687 9.0448-.799835 19.036926-.614319 29.57428.005646.350037.025024.687408.032227 1.036499.034241 1.818298.094421 3.632599.161682 5.424194h10.345795c-.054443-1.873077-.120697-3.756042-.161652-5.666107-.006592-.340027-.026123-.660614-.032257-1.001892-.185913-10.273102-.175507-20.131226-.226318-29.125183-.050751-8.993866-.152954-17.124146-.452637-23.977264-.299683-6.852997-.773712-12.401917-1.357849-16.238159-.584167-3.836304-1.290649-5.977081-2.004517-5.977081z"/><path d="m322.43689 383.447021c-.634399.210052-.585052 2.509216-.150879 6.479828.434204 3.970734 1.256927 9.621735 2.111755 16.602631.854858 6.980835 1.719208 15.307953 2.413452 24.597626.611572 8.18454 1.072571 17.142914 1.417847 26.531891h9.653656c-.397125-9.736908-1.143982-19.067261-2.232422-27.563538-1.217133-9.500885-2.834534-17.981079-4.585449-24.984436-1.750977-7.003387-3.628662-12.532867-5.188873-16.247986-1.560211-3.715088-2.804718-5.626068-3.439087-5.416016z"/><path d="m72.433769 460.039368c.021614-1.749878.029144-3.499786 0-5.279877-.02256-1.250641-.078957-2.516357-.130669-3.78009-.313019-7.757019-1.175964-15.212708-2.651817-22.035522-1.476776-6.823822-3.553291-13.019806-6.084782-18.424194-2.311523-5.015686-4.993412-9.34726-7.697872-12.921448-2.703518-3.574127-5.438988-6.382782-7.85297-8.586731-5.45591-3.889618-8.58149-6.556641-8.294788-7.308075.302689-.74231 4.036469.530426 10.50573 3.500885 2.96954 1.85437 6.363029 4.515381 9.777199 8.114655 3.414181 3.599213 6.831169 8.162842 9.803528 13.616486 3.12841 5.811249 5.743561 12.550659 7.59259 19.952148 1.84996 7.400452 2.946983 15.449799 3.25061 23.731171.04982 1.348145.068619 2.700256.078011 4.029266.015991 1.821198-.009392 3.606262-.051682 5.391327h-8.243088z"/><path d="m99.551819 460.038971c.176147-1.732941.372475-3.468384.520042-5.223969.874939-10.408295 1.152672-20.512207.901428-30.046936-.291046-11.162323-1.320129-21.55957-2.704247-30.825012-1.38414-9.265411-3.110443-17.380585-4.715141-24.119019-1.60466-6.738525-3.059135-12.103821-3.952354-15.857178-.893227-3.753265-1.230453-5.902069-.65873-6.187195.571732-.285065 1.992645 1.32019 3.95237 4.668213 1.95974 3.347992 4.473129 8.449585 7.038002 15.116119 2.564842 6.666473 5.156822 14.916473 7.280678 24.489532 2.12384 9.57309 3.754951 20.464172 4.403091 32.23291.550133 10.032074.428123 20.682007-.48539 31.602966-.11673 1.395721-.241608 2.769043-.381378 4.149567h-11.198372z"/><path d="m123.193161 460.038971c2.222031-7.32608 4.5186-14.303528 6.630981-20.841431 2.27623-7.044983 4.332825-13.616302 6.006897-19.646484.976425-3.523376 1.830368-6.850647 2.522385-9.948273.692032-3.097656 1.215714-5.962524 1.612259-8.586639.388168-2.592621.640839-4.94812.806122-7.002686.165222-2.054657.235519-3.802094.286026-5.252075.050461-1.449982.098984-2.601044.182037-3.390198.082977-.789154.213394-1.223297.442062-1.27829.228668-.054932.550125.277008.910126 1.000458.360031.723328.767197 1.850006 1.144165 3.334564.377014 1.484589.708267 3.331451.936157 5.529907.227905 2.198486.328186 4.729431.260056 7.53067-.064987 2.831146-.282928 5.948059-.702118 9.281433-.419205 3.333313-1.025955 6.902588-1.794281 10.615234-1.310104 6.346344-3.063751 13.209381-5.122772 20.42453-1.669785 5.851135-3.557755 11.969238-5.434814 18.229279h-8.685287z"/><path d="m159.54686 460.039368c.047974-1.31192.112823-2.607788.156052-3.934814.004715-.131592-.003754-.269226 0-.400787.351563-11.206635.518906-21.898926.717255-31.678101.199295-9.779205.450272-18.642242.811249-26.076843.360977-7.43457.82814-13.444733 1.404388-17.606506.576233-4.162781 1.245529-6.469238 1.934586-6.469238.689026 0 1.347977 2.292328 1.965561 6.436066.618546 4.142731 1.205124 10.126801 1.747513 17.539246.54335 7.413513 1.035919 16.266479 1.342377 26.109955.305481 9.844452.416412 20.693451.062042 32.112061-.003754.134644.003754.267181 0 .400879-.037598 1.202393-.107178 2.376678-.156052 3.568085h-9.98497z"/><path d="m185.680542 460.039368c.210556-5.610352.65799-10.992706 1.348923-15.921936.836609-5.972992 2.012589-11.287994 3.318298-15.624634 1.304749-4.337555 2.719498-7.701752 3.895477-9.928802 1.176895-2.227051 2.092484-3.322998 2.525833-3.134155.434296.189819.347794 1.648438-.042297 4.095459-.390106 2.446075-1.05661 5.888611-1.712738 10.180023-.655197 4.291351-1.28595 9.427612-1.734344 15.189575-.362839 4.678223-.59314 9.790283-.749191 15.14447h-6.84996z"/><path d="m272.949707 369.304474c-.257599-.004059-.674957.340515-1.222076 1.055725-.625092.816681-1.418488 2.11557-2.287994 3.862457-.869507 1.746948-1.80954 3.946869-2.704498 6.613892-.895813 2.666046-1.738983 5.806244-2.392334 9.336182-.598785 3.237671-1.02652 6.802704-1.248352 10.643036-.221832 3.8414-.226532 7.957947.025391 12.255402.376007 6.343658 1.242706 13.089142 2.601074 20.062622 1.358307 6.974548 3.202637 14.172058 5.304535 21.452911.42865 1.484772.862946 2.93631 1.300049 4.390869.171082.572601.347839 1.127045.519836 1.694611h8.685852c-.438049-1.458527-.865784-2.883026-1.300049-4.36264-.421143-1.438538-.830048-2.877014-1.248352-4.334595-2.05304-7.147278-3.905792-14.101715-5.382599-20.730682-1.477722-6.627899-2.570068-12.933441-3.22525-18.868256-.444611-4.00705-.708771-7.845459-.779266-11.420563-.071442-3.576172.048889-6.896118.285767-9.948914.511383-6.642029 1.619659-11.960052 2.418671-15.644745.398621-1.842285.705994-3.288818.85733-4.307404.152283-1.017609.138184-1.598236-.103424-1.722809-.03006-.015076-.067657-.0271-.104309-.0271z"/><path d="m230.882599 369.936523c-.094208-.020081-.220657.018097-.3116.166534-.090912.148315-.133652.43396-.155792.632629-.046631.351196-.050751.807007 0 1.331879.100311 1.037598.391602 2.432068.81015 4.095673.832779 3.30658 2.237274 7.850433 3.926056 13.385559 3.333908 10.922424 7.860214 25.924988 11.373108 43.619995 1.705963 8.601593 3.131821 17.851685 4.113052 27.503845h10.064423c-1.067627-10.545349-2.865753-20.592133-5.047791-29.801422-2.158691-9.118317-4.695053-17.426117-7.291275-24.773468-2.596237-7.34726-5.242645-13.727325-7.665161-18.979645-2.463699-5.343384-4.663422-9.484314-6.356506-12.386719-.85878-1.476349-1.563568-2.598236-2.11882-3.396362-.283737-.412048-.522186-.706573-.71666-.932312-.126251-.207672-.275803-.236816-.373917-.299652-.098099-.062927-.155136-.146332-.249268-.166534z"/><path d="m212.594757 387.561035c-.52887.190216-.344986 2.486145.338058 6.474731.683044 3.988525 1.856094 9.689453 3.224472 16.728638 1.368393 7.039246 2.926346 15.399109 4.108627 24.731781.987991 7.799042 1.710648 16.281769 1.820267 25.176453h8.243256c-.226959-9.444244-1.232101-18.366211-2.626419-26.454681-1.657791-9.616974-3.828918-18.087982-5.95488-25.065247-2.125961-6.977295-4.201736-12.442871-5.824875-16.145172-1.623154-3.702209-2.799637-5.63678-3.328506-5.446503z"/><path d="m296.0242 389.349915c-.615356 0-1.192657 1.847321-1.755737 5.122345-.56308 3.274933-1.123749 7.990875-1.672089 13.848083-.548279 5.857178-1.06958 12.841675-1.47699 20.638153-.407471 7.796387-.689423 16.409363-.529541 25.49234.00473.301727.021576.59259.027832.893463.02951 1.567383.081421 3.131256.139374 4.675598h8.917877c-.046936-1.614624-.104065-3.23764-.139404-4.884094-.005615-.293121-.022522-.569489-.027802-.863617-.160278-8.855194-.151306-17.352692-.195068-25.105225-.043823-7.752655-.131836-14.760803-.390167-20.667969-.258331-5.907196-.666931-10.690216-1.170471-13.996948-.50354-3.306793-1.112518-5.15213-1.727814-5.15213z"/><path d="m304.206543 396.70343c-.546844.181061-.504272 2.162933-.130005 5.58548.374237 3.422638 1.083405 8.293793 1.820282 14.311127.736847 6.017365 1.481903 13.195099 2.080322 21.202667.527161 7.054901.92453 14.776825 1.222137 22.869934h8.321259c-.342316-8.393036-.986084-16.435608-1.924255-23.759186-1.049164-8.189545-2.443329-15.49939-3.952606-21.536102-1.509247-6.036743-3.127808-10.80307-4.472717-14.005402-1.344849-3.202332-2.417603-4.849548-2.964417-4.668518z"/><path d="m206.909805 460.038971c-.176147-1.732941-.372482-3.468384-.52005-5.223969-.874939-10.408295-1.152679-20.512207-.901413-30.046936.291046-11.162323 1.320099-21.55957 2.704239-30.825012 1.38414-9.265411 3.110458-17.380585 4.715134-24.119019 1.604675-6.738525 3.059128-12.103821 3.952362-15.857178.893234-3.753265 1.230453-5.902069.658722-6.187195-.571747-.285065-1.992615 1.32019-3.952362 4.668213-1.959747 3.347992-4.473129 8.449585-7.03801 15.116119-2.56485 6.666473-5.156815 14.916473-7.280655 24.489532-2.123871 9.57309-3.754974 20.464172-4.403107 32.23291-.550125 10.032074-.428131 20.682007.485382 31.602966.116745 1.395721.241608 2.769043.381378 4.149567h11.19838z"/><path d="m173.575806 369.304474c.257553-.004059.674927.340515 1.222031 1.055725.625122.816681 1.418503 2.11557 2.28804 3.862457.869522 1.746948 1.80954 3.946869 2.704437 6.613892.895844 2.666046 1.739059 5.806244 2.39238 9.336182.598801 3.237671 1.026489 6.802704 1.248352 10.643036.221848 3.8414.226547 7.957947-.026321 12.255402-.375076 6.343658-1.241776 13.089142-2.600113 20.062622-1.358337 6.974548-3.202682 14.172058-5.304581 21.452911-.428635 1.484772-.86293 2.93631-1.300034 4.390869-.171082.572601-.347809 1.127045-.520767 1.694611h-8.684906c.438049-1.458527.865753-2.883026 1.300049-4.36264.421127-1.438538.830032-2.877014 1.248367-4.334595 2.052994-7.147278 3.905792-14.101715 5.382584-20.730682 1.477722-6.627899 2.570023-12.933441 3.224289-18.868256.445572-4.00705.709717-7.845459.780212-11.420563.071442-3.576172-.048889-6.896118-.285751-9.948914-.511383-6.642029-1.619659-11.960052-2.418686-15.644745-.39859-1.842285-.705978-3.288818-.857315-4.307404-.152283-1.017609-.138199-1.598236.103409-1.722809.03006-.015076.067673-.0271.104324-.0271z"/><path d="m295.545044 374.959229c.094208-.020111.220642.018097.311584.166534.090912.148315.133636.43396.155792.632599.0466.351196.050751.806976 0 1.331909-.100311 1.037567-.391602 2.432068-.810181 4.095612-.832733 3.306641-2.237213 7.850494-3.926025 13.38562-3.333923 10.922424-7.860199 25.924988-11.373138 43.619995-1.705902 8.601593-3.131805 17.851685-4.113037 27.503784h-10.064423c1.067627-10.545288 2.865753-20.592102 5.047821-29.801361 2.158661-9.118317 4.695038-17.426117 7.29126-24.773468 2.596252-7.34726 5.242615-13.727356 7.665161-18.979645 2.463715-5.343384 4.663422-9.484314 6.356506-12.386719.858795-1.476349 1.563568-2.598236 2.118805-3.396393.283752-.412018.522186-.706573.716675-.932312.126251-.207672.275818-.236786.373901-.299622.098114-.062927.155182-.146393.249298-.166534z"/><path d="m338.273529 387.561035c.52887.190216.344971 2.486145-.338074 6.474731-.683044 3.988525-1.856079 9.689453-3.224457 16.728638-1.368378 7.039246-2.926331 15.399109-4.108612 24.731781-.988007 7.799042-1.710663 16.281769-1.820282 25.176453h-8.243256c.226959-9.444244 1.232086-18.366211 2.626434-26.454681 1.657776-9.616974 3.828888-18.087982 5.954865-25.065247 2.125946-6.977295 4.201752-12.442871 5.82486-16.145172 1.623169-3.702209 2.799683-5.63678 3.328522-5.446503z"/><path d="m130.760727 386.336334c.615356 0 1.192657 1.84729 1.755722 5.122284.56308 3.274933 1.123734 7.990906 1.672104 13.848083.548294 5.857208 1.069565 12.841736 1.47699 20.638153.40744 7.796417.689407 16.409393.52951 25.492401-.004715.301697-.021515.59256-.027832.893402-.02951 1.567383-.081421 3.131287-.139359 4.675629h-8.917839c.046898-1.614624.10405-3.237671.139343-4.884094.00563-.293091.02256-.569519.027824-.863617.160278-8.855194.151299-17.352722.195091-25.105255.043808-7.752625.131836-14.760742.390144-20.667969.258331-5.907166.666946-10.690186 1.170471-13.996948.50354-3.306793 1.112518-5.152069 1.727829-5.152069z"/><path d="m192.140259 392.685303c.546844.181061.504272 2.162903.130005 5.585449-.374252 3.422638-1.083389 8.293793-1.820267 14.311157-.736862 6.017334-1.481918 13.195099-2.080307 21.202637-.527191 7.054901-.924576 14.776825-1.222168 22.869904h-8.321274c.342331-8.393005.986069-16.435547 1.924301-23.759186 1.049149-8.189514 2.443314-15.499329 3.952576-21.536072 1.509262-6.036713 3.127838-10.80307 4.472702-14.005402s2.417587-4.849548 2.964432-4.668488z"/><path d="m327.982544 466.988739c.024414-1.975891.033844-3.953827 0-5.964905-.025391-1.411438-.088379-2.841888-.146637-4.269287-.353455-8.763611-1.328278-17.185699-2.99588-24.893463-1.667572-7.707886-4.013885-14.708496-6.87439-20.813049-2.61142-5.665619-5.641083-10.559723-8.695221-14.596924-3.054169-4.037231-6.144989-7.210571-8.871063-9.69986-6.164673-4.39386-9.694458-7.407471-9.371094-8.256256.342163-.837799 4.560059.59967 11.867828 3.955841 3.35495 2.094482 7.188385 5.100067 11.045288 9.166412 3.856934 4.065338 7.716675 9.220642 11.074463 15.38147 3.534454 6.565674 6.488007 14.179077 8.577728 22.539825 2.089691 8.359802 3.328613 17.452881 3.671722 26.808136.056396 1.522858.077057 3.050781.088379 4.551575.018799 2.058319-.010345 4.074371-.058289 6.090485h-9.312836z"/><path d="m358.617615 466.988495c.199005-1.957642.420746-3.918091.587494-5.901337.988342-11.757965 1.302124-23.171967 1.018311-33.943085-.328796-12.609711-1.491302-24.355164-3.054932-34.822052-1.563568-10.466827-3.513733-19.634247-5.326477-27.24649-1.812775-7.612274-3.455811-13.673279-4.464905-17.913269-1.009064-4.23999-1.389984-6.66745-.74411-6.989532.645844-.322052 2.250977 1.491364 4.464844 5.273529 2.213867 3.782166 5.053162 9.545258 7.950592 17.076172 2.8974 7.530945 5.8255 16.850677 8.224792 27.66507 2.399231 10.814484 4.241852 23.117737 4.973969 36.412506.62149 11.332916.483673 23.363831-.548279 35.700928-.131927 1.57666-.27298 3.128113-.430847 4.687561h-12.650452z"/><path d="m385.324493 466.988495c2.510162-8.27597 5.104553-16.158203 7.490814-23.543854 2.571411-7.958496 4.894653-15.381989 6.785828-22.194 1.103027-3.980286 2.067688-7.738953 2.849426-11.238281.781769-3.499329 1.373352-6.735687 1.82132-9.700073.438507-2.928833.723938-5.589722.910645-7.910736.186676-2.321045.266052-4.295044.323151-5.933075.057037-1.638.111816-2.938293.205627-3.829773.093781-.891479.241089-1.381989.49939-1.444031.258301-.062103.621429.312927 1.028137 1.130096s.866669 2.089935 1.292542 3.767029c.425873 1.677063.800079 3.763397 1.057526 6.246979.257416 2.483551.370758 5.342651.293762 8.507172-.073395 3.198212-.31958 6.719269-.793152 10.484863-.473572 3.765533-1.158997 7.797638-2.026917 11.991699-1.480011 7.169342-3.461029 14.922241-5.787048 23.072968-1.886292 6.609863-4.019073 13.521301-6.139557 20.593018h-9.811493z"/><path d="m523.389709 466.988495c-.054565-1.481354-.127502-2.94519-.17627-4.445068-.005676-.148132.0047-.30365 0-.451965-.397644-12.660248-.586304-24.739349-.810791-35.786469-.224426-11.047089-.508606-21.05957-.916504-29.457825-.407898-8.398254-.935059-15.187683-1.586304-19.889709-.651245-4.702057-1.407227-7.307922-2.185547-7.307922-.778259 0-1.5224 2.590149-2.220703 7.270294-.698425 4.680115-1.361084 11.439819-1.974121 19.814362-.612976 8.374481-1.170227 18.375153-1.515747 29.495483-.34549 11.120361-.471008 23.376953-.070496 36.276123.004639.151123-.004669.301025 0 .452026.04248 1.358643.121399 2.685303.17627 4.03067h11.280212z"/><path d="m493.866974 466.988739c-.237854-6.337616-.74353-12.418091-1.523773-17.986206-.944733-6.747528-2.27301-12.751648-3.747894-17.650787-1.474915-4.899139-3.072937-8.700317-4.401184-11.215668-1.329224-2.516357-2.36322-3.753937-2.853943-3.541016-.490662.213989-.392883 1.862427.047943 4.625946.441803 2.764435 1.194794 6.652008 1.93457 11.499969.740784 4.84787 1.453308 10.650085 1.959015 17.159454.410797 5.28595.671234 11.059998.846954 17.108307h7.738312z"/><path d="m554.499573 364.487671c-.291382-.004974-.76239.385742-1.379944 1.19342-.705994.92215-1.602783 2.389771-2.585083 4.363708-.983276 1.9729-2.044617 4.45813-3.055054 7.470764-1.011536 3.012573-1.964661 6.559631-2.702637 10.547668-.676758 3.657501-1.159973 7.684692-1.410034 12.023285-.250977 4.338593-.255615 8.989594.029175 13.843567.42395 7.167328 1.403381 14.786774 2.937561 22.665375 1.53418 7.878571 3.617249 16.009338 5.992676 24.234497.484131 1.676575.974792 3.315948 1.468323 4.959412.193665.646912.392883 1.272705.587524 1.914581h9.811951c-.494446-1.648407-.9776-3.256622-1.469177-4.928192-.474731-1.625397-.937256-3.250702-1.410095-4.897125-2.319092-8.074524-4.41156-15.929993-6.080078-23.417816-1.668579-7.488861-2.902832-14.611053-3.642578-21.315308-.50293-4.526459-.80188-8.863007-.881775-12.902283-.079956-4.039307.056396-7.790192.323364-11.237762.577148-7.503937 1.829285-13.511047 2.731689-17.673859.451233-2.08139.798096-3.71579.969177-4.865936.172058-1.150238.156067-1.806213-.117493-1.945831-.033875-.018066-.075256-.031128-.117493-.032166z"/><path d="m442.803741 365.202667c.106415-.022675.249268.020508.351959.188141.102722.167542.151031.490234.176056.71463.052704.396759.057434.911652 0 1.504608-.113373 1.172119-.442444 2.747406-.915253 4.626648-.940704 3.735474-2.527344 8.86853-4.43512 15.121399-3.766174 12.338684-8.879486 29.286621-12.847839 49.276062-1.927155 9.71698-3.537964 20.166565-4.646362 31.070221h-11.369446c1.206024-11.912689 3.237305-23.262238 5.702301-33.66568 2.438568-10.30072 5.303802-19.68576 8.236725-27.98584 2.932831-8.299988 5.922455-15.507355 8.659088-21.440735 2.783112-6.036133 5.268097-10.714081 7.180725-13.992798.970123-1.667755 1.766327-2.935211 2.393555-3.836792.320526-.465485.589905-.798187.809601-1.053253.142639-.234619.311554-.267487.422394-.338531.11087-.071014.175293-.165314.281616-.18808z"/><path d="m463.462952 385.112518c.597443.214966.389679 2.808533-.381897 7.314301-.771637 4.505768-2.096802 10.945862-3.642609 18.897858-1.545776 7.951996-3.305817 17.395844-4.641357 27.938721-1.116119 8.810303-1.932495 18.392914-2.056305 28.440979h-9.312134c.256348-10.668793 1.391846-20.747711 2.966949-29.88501 1.872772-10.864014 4.325409-20.43335 6.727051-28.315399 2.401672-7.88205 4.746552-14.056305 6.58017-18.238647 1.833618-4.182343 3.162689-6.367767 3.760132-6.152802z"/><path d="m580.566223 387.133392c-.695129 0-1.34729 2.086853-1.983398 5.786499-.636047 3.699615-1.26947 9.027039-1.888855 15.643738-.619446 6.616669-1.208313 14.506866-1.668579 23.31424-.460266 8.807404-.778809 18.537231-.598145 28.798004.005615.34082.024353.669373.031372 1.009247.033325 1.770599.09198 3.537292.157471 5.28186h10.074219c-.05304-1.823914-.117554-3.657471-.15741-5.517365-.006592-.331116-.025513-.643341-.031433-.975647-.18103-10.003387-.170898-19.602783-.220337-28.360596-.049438-8.757843-.148926-16.674713-.440735-23.347931-.29187-6.673065-.753479-12.076324-1.322266-15.81192-.568848-3.735535-1.256775-5.820129-1.951904-5.820129z"/><path d="m589.80957 395.44043c-.617737.204559-.56958 2.443329-.146851 6.309753.422729 3.866455 1.223877 9.36908 2.056274 16.166779.832397 6.797607 1.674072 14.906158 2.350037 23.951965.595581 7.969727 1.044434 16.692963 1.380676 25.835449h9.40033c-.38678-9.481293-1.113953-18.566772-2.173889-26.839996-1.18512-9.251495-2.760071-17.509094-4.465088-24.328644-1.704956-6.819519-3.533386-12.203888-5.052673-15.821472-1.519165-3.617554-2.731079-5.478394-3.348816-5.273834z"/><path d="m327.982544 466.988739c.024414-1.975891.033844-3.953827 0-5.964905-.025391-1.411438-.088379-2.841888-.146637-4.269287-.353455-8.763611-1.328278-17.185699-2.99588-24.893463-1.667572-7.707886-4.013885-14.708496-6.87439-20.813049-2.61142-5.665619-5.641083-10.559723-8.695221-14.596924-3.054169-4.037231-6.144989-7.210571-8.871063-9.69986-6.164673-4.39386-9.694458-7.407471-9.371094-8.256256.342163-.837799 4.560059.59967 11.867828 3.955841 3.35495 2.094482 7.188385 5.100067 11.045288 9.166412 3.856934 4.065338 7.716675 9.220642 11.074463 15.38147 3.534454 6.565674 6.488007 14.179077 8.577728 22.539825 2.089691 8.359802 3.328613 17.452881 3.671722 26.808136.056396 1.522858.077057 3.050781.088379 4.551575.018799 2.058319-.010345 4.074371-.058289 6.090485h-9.312836z"/><path d="m358.617615 466.988495c.199005-1.957642.420746-3.918091.587494-5.901337.988342-11.757965 1.302124-23.171967 1.018311-33.943085-.328796-12.609711-1.491302-24.355164-3.054932-34.822052-1.563568-10.466827-3.513733-19.634247-5.326477-27.24649-1.812775-7.612274-3.455811-13.673279-4.464905-17.913269-1.009064-4.23999-1.389984-6.66745-.74411-6.989532.645844-.322052 2.250977 1.491364 4.464844 5.273529 2.213867 3.782166 5.053162 9.545258 7.950592 17.076172 2.8974 7.530945 5.8255 16.850677 8.224792 27.66507 2.399231 10.814484 4.241852 23.117737 4.973969 36.412506.62149 11.332916.483673 23.363831-.548279 35.700928-.131927 1.57666-.27298 3.128113-.430847 4.687561h-12.650452z"/><path d="m385.324493 466.988495c2.510162-8.27597 5.104553-16.158203 7.490814-23.543854 2.571411-7.958496 4.894653-15.381989 6.785828-22.194 1.103027-3.980286 2.067688-7.738953 2.849426-11.238281.781769-3.499329 1.373352-6.735687 1.82132-9.700073.438507-2.928833.723938-5.589722.910645-7.910736.186676-2.321045.266052-4.295044.323151-5.933075.057037-1.638.111816-2.938293.205627-3.829773.093781-.891479.241089-1.381989.49939-1.444031.258301-.062103.621429.312927 1.028137 1.130096s.866669 2.089935 1.292542 3.767029c.425873 1.677063.800079 3.763397 1.057526 6.246979.257416 2.483551.370758 5.342651.293762 8.507172-.073395 3.198212-.31958 6.719269-.793152 10.484863-.473572 3.765533-1.158997 7.797638-2.026917 11.991699-1.480011 7.169342-3.461029 14.922241-5.787048 23.072968-1.886292 6.609863-4.019073 13.521301-6.139557 20.593018h-9.811493z"/><path d="m523.389709 466.988495c-.054565-1.481354-.127502-2.94519-.17627-4.445068-.005676-.148132.0047-.30365 0-.451965-.397644-12.660248-.586304-24.739349-.810791-35.786469-.224426-11.047089-.508606-21.05957-.916504-29.457825-.407898-8.398254-.935059-15.187683-1.586304-19.889709-.651245-4.702057-1.407227-7.307922-2.185547-7.307922-.778259 0-1.5224 2.590149-2.220703 7.270294-.698425 4.680115-1.361084 11.439819-1.974121 19.814362-.612976 8.374481-1.170227 18.375153-1.515747 29.495483-.34549 11.120361-.471008 23.376953-.070496 36.276123.004639.151123-.004669.301025 0 .452026.04248 1.358643.121399 2.685303.17627 4.03067h11.280212z"/><path d="m493.866974 466.988739c-.237854-6.337616-.74353-12.418091-1.523773-17.986206-.944733-6.747528-2.27301-12.751648-3.747894-17.650787-1.474915-4.899139-3.072937-8.700317-4.401184-11.215668-1.329224-2.516357-2.36322-3.753937-2.853943-3.541016-.490662.213989-.392883 1.862427.047943 4.625946.441803 2.764435 1.194794 6.652008 1.93457 11.499969.740784 4.84787 1.453308 10.650085 1.959015 17.159454.410797 5.28595.671234 11.059998.846954 17.108307h7.738312z"/><path d="m554.499573 364.487671c-.291382-.004974-.76239.385742-1.379944 1.19342-.705994.92215-1.602783 2.389771-2.585083 4.363708-.983276 1.9729-2.044617 4.45813-3.055054 7.470764-1.011536 3.012573-1.964661 6.559631-2.702637 10.547668-.676758 3.657501-1.159973 7.684692-1.410034 12.023285-.250977 4.338593-.255615 8.989594.029175 13.843567.42395 7.167328 1.403381 14.786774 2.937561 22.665375 1.53418 7.878571 3.617249 16.009338 5.992676 24.234497.484131 1.676575.974792 3.315948 1.468323 4.959412.193665.646912.392883 1.272705.587524 1.914581h9.811951c-.494446-1.648407-.9776-3.256622-1.469177-4.928192-.474731-1.625397-.937256-3.250702-1.410095-4.897125-2.319092-8.074524-4.41156-15.929993-6.080078-23.417816-1.668579-7.488861-2.902832-14.611053-3.642578-21.315308-.50293-4.526459-.80188-8.863007-.881775-12.902283-.079956-4.039307.056396-7.790192.323364-11.237762.577148-7.503937 1.829285-13.511047 2.731689-17.673859.451233-2.08139.798096-3.71579.969177-4.865936.172058-1.150238.156067-1.806213-.117493-1.945831-.033875-.018066-.075256-.031128-.117493-.032166z"/><path d="m442.803741 365.202667c.106415-.022675.249268.020508.351959.188141.102722.167542.151031.490234.176056.71463.052704.396759.057434.911652 0 1.504608-.113373 1.172119-.442444 2.747406-.915253 4.626648-.940704 3.735474-2.527344 8.86853-4.43512 15.121399-3.766174 12.338684-8.879486 29.286621-12.847839 49.276062-1.927155 9.71698-3.537964 20.166565-4.646362 31.070221h-11.369446c1.206024-11.912689 3.237305-23.262238 5.702301-33.66568 2.438568-10.30072 5.303802-19.68576 8.236725-27.98584 2.932831-8.299988 5.922455-15.507355 8.659088-21.440735 2.783112-6.036133 5.268097-10.714081 7.180725-13.992798.970123-1.667755 1.766327-2.935211 2.393555-3.836792.320526-.465485.589905-.798187.809601-1.053253.142639-.234619.311554-.267487.422394-.338531.11087-.071014.175293-.165314.281616-.18808z"/><path d="m463.462952 385.112518c.597443.214966.389679 2.808533-.381897 7.314301-.771637 4.505768-2.096802 10.945862-3.642609 18.897858-1.545776 7.951996-3.305817 17.395844-4.641357 27.938721-1.116119 8.810303-1.932495 18.392914-2.056305 28.440979h-9.312134c.256348-10.668793 1.391846-20.747711 2.966949-29.88501 1.872772-10.864014 4.325409-20.43335 6.727051-28.315399 2.401672-7.88205 4.746552-14.056305 6.58017-18.238647 1.833618-4.182343 3.162689-6.367767 3.760132-6.152802z"/><path d="m580.566223 387.133392c-.695129 0-1.34729 2.086853-1.983398 5.786499-.636047 3.699615-1.26947 9.027039-1.888855 15.643738-.619446 6.616669-1.208313 14.506866-1.668579 23.31424-.460266 8.807404-.778809 18.537231-.598145 28.798004.005615.34082.024353.669373.031372 1.009247.033325 1.770599.09198 3.537292.157471 5.28186h10.074219c-.05304-1.823914-.117554-3.657471-.15741-5.517365-.006592-.331116-.025513-.643341-.031433-.975647-.18103-10.003387-.170898-19.602783-.220337-28.360596-.049438-8.757843-.148926-16.674713-.440735-23.347931-.29187-6.673065-.753479-12.076324-1.322266-15.81192-.568848-3.735535-1.256775-5.820129-1.951904-5.820129z"/><path d="m589.80957 395.44043c-.617737.204559-.56958 2.443329-.146851 6.309753.422729 3.866455 1.223877 9.36908 2.056274 16.166779.832397 6.797607 1.674072 14.906158 2.350037 23.951965.595581 7.969727 1.044434 16.692963 1.380676 25.835449h9.40033c-.38678-9.481293-1.113953-18.566772-2.173889-26.839996-1.18512-9.251495-2.760071-17.509094-4.465088-24.328644-1.704956-6.819519-3.533386-12.203888-5.052673-15.821472-1.519165-3.617554-2.731079-5.478394-3.348816-5.273834z"/><path d="m335.560059 456.924286c.024475-2.029175.033875-4.060303 0-6.125702-.026276-1.449524-.092102-2.919159-.151306-4.384766-.362854-8.999664-1.363983-17.648773-3.076691-25.564484-1.712738-7.915771-4.12204-15.104248-7.059631-21.373596-2.681885-5.819244-5.792419-10.845001-8.929291-14.990692-3.136841-4.145752-6.310394-7.40448-9.110687-9.961975-6.330139-4.51239-9.955841-7.606384-9.623993-8.478333.351563-.86087 4.683197.615784 12.188354 4.062347 3.44516 2.151733 7.382019 5.237671 11.343292 9.413513 3.960327 4.174866 7.924408 9.469788 11.372406 15.796326 3.630371 6.742493 6.662933 14.560791 8.80899 23.146637 2.146118 8.585785 3.418884 17.92392 3.771393 27.531372.057312 1.565063.078979 3.133148.09024 4.67511.018799 2.112518-.010345 4.182892-.06015 6.254242h-9.562927z"/><path d="m364.018066 456.923859c.24707-2.289368.522339-4.582153.729279-6.901581 1.226959-13.750916 1.616455-27.099548 1.264099-39.69635-.408142-14.74707-1.851227-28.483398-3.792236-40.724335-1.94101-12.240967-4.361908-22.96228-6.612183-31.864807-2.250305-8.902496-4.289917-15.990875-5.542542-20.949493-1.252594-4.958679-1.725525-7.797546-.923737-8.174255.801727-.376678 2.794312 1.744171 5.542511 6.167389 2.74823 4.423248 6.272827 11.163177 9.869629 19.970581 3.596771 8.807404 7.231598 19.706787 10.20993 32.354248 2.978333 12.647461 5.265717 27.036133 6.174622 42.58429.771454 13.253906.600403 27.324005-.680664 41.752228-.163727 1.843842-.338837 3.658295-.534851 5.482086h-15.703857z"/><path d="m394.447113 456.923859c2.577881-8.499054 5.242188-16.593811 7.69281-24.178497 2.640686-8.173096 5.02655-15.796631 6.968719-22.792297 1.132751-4.087555 2.123444-7.947571 2.926239-11.541199.802856-3.593689 1.41037-6.917297 1.870453-9.961578.450317-3.007782.743439-5.740417.93515-8.123993.191711-2.383636.273254-4.410828.331879-6.093018.058533-1.682129.114838-3.017517.211151-3.933044.096344-.915497.247559-1.419159.512878-1.482941.265259-.063782.638184.321381 1.055847 1.160553.417633.839264.890045 2.146301 1.327362 3.868561.437347 1.722351.821655 3.864868 1.08606 6.415375.264343 2.550537.380737 5.486725.301666 8.736511-.075378 3.284424-.328186 6.900421-.814514 10.767517-.486359 3.867096-1.190247 8.007843-2.081604 12.314972-1.519867 7.362549-3.554321 15.324493-5.943024 23.694916-1.937103 6.788086-4.127441 13.885803-6.305054 21.148163h-10.076019z"/><path d="m513.159973 456.923859c-.05603-1.521271-.13092-3.024567-.18103-4.56485-.005615-.152191.0047-.31192 0-.464203-.408386-13.001556-.602051-25.406219-.832642-36.751099-.230499-11.34491-.522308-21.627319-.941223-30.251984-.418854-8.624664-.960175-15.597046-1.629028-20.425812-.668762-4.828857-1.445129-7.505005-2.244415-7.505005-.799347 0-1.563538 2.659973-2.28064 7.466309-.717194 4.806244-1.397766 11.748199-2.027283 20.34845-.629517 8.60025-1.201813 18.870544-1.55661 30.290649-.354828 11.420135-.483765 24.007141-.072418 37.253967.0047.155212-.00473.309235 0 .464264.043579 1.395325.124664 2.75766.181 4.139313h11.58429z"/><path d="m482.8414 456.924286c-.244385-6.508392-.763275-12.752594-1.564148-18.471436-.9711-6.929291-2.335052-13.095154-3.849457-18.126923-1.515289-5.030731-3.15567-8.934357-4.520569-11.517975-1.364014-2.58371-2.427124-3.855438-2.930084-3.635437-.503815.218994-.403229 1.911621.049866 4.750458.452148 2.838806 1.2258 6.831818 1.986237 11.809326.760498 4.978485 1.491852 10.937408 2.011658 17.62265.422058 5.42746.689026 11.358246.869507 17.569336h7.946991z"/><path d="m568.182556 351.660706c-.298889-.004974-.783081.395813-1.417542 1.224579-.724792.947235-1.645996 2.454071-2.654602 4.481201-1.008667 2.027161-2.099121 4.578766-3.137817 7.672699-1.038696 3.093994-2.016357 6.73642-2.774963 10.831909-.694641 3.756012-1.19104 7.891693-1.448547 12.346832-.257568 4.456085-.262268 9.231689.030029 14.217194.436157 7.360229 1.441101 15.184601 3.017517 23.276154 1.575439 8.090576 3.714905 16.440277 6.153381 24.887451.497253 1.722748 1.00116 3.406372 1.508728 5.094025.199341.663971.403259 1.306885.603516 1.96582h10.076111c-.507568-1.692627-1.003967-3.345062-1.508728-5.060822-.487854-1.669525-.962524-3.338074-1.447632-5.029724-2.381958-8.291443-4.53186-16.358917-6.244568-24.049652-1.713684-7.689758-2.980835-15.003815-3.741333-21.888916-.516052-4.648987-.822571-9.102081-.905212-13.249847-.081848-4.148712.058228-8.000153.331787-11.541107.59314-7.705811 1.87915-13.875671 2.805969-18.149994.463501-2.137695.819702-3.816254.995483-4.997589.175842-1.180328.160828-1.854401-.1203-1.998077-.035767-.018005-.078003-.032135-.121277-.032135z"/><path d="m519.379883 352.394165c-.109314-.023315-.255981.020966-.36145.193115-.105469.172089-.15509.50351-.180786.733978-.054138.40741-.05896.936249 0 1.545197.116455 1.203644.454346 2.821381.93988 4.751373.966125 3.836121 2.595459 9.107544 4.554688 15.528931 3.867737 12.671356 9.118835 30.076141 13.194214 50.604431 1.979126 9.978912 3.633301 20.710114 4.771545 31.907745h11.675964c-1.238525-12.233765-3.324585-23.889343-5.856018-34.573181-2.504333-10.578369-5.446838-20.2164-8.45874-28.740173-3.011902-8.523804-6.082092-15.925415-8.892517-22.018738-2.858154-6.198944-5.410156-11.00293-7.374268-14.370087-.996338-1.712677-1.813965-3.014282-2.45813-3.940186-.329163-.478058-.605774-.819733-.831421-1.081665-.146484-.240875-.319946-.274689-.433777-.347626-.113892-.072906-.179993-.169769-.289185-.193115z"/><path d="m451.617798 372.840698c.613556.220734.400238 2.884247-.392181 7.511475-.79245 4.627228-2.15332 11.240967-3.740814 19.407318s-3.394897 17.864777-4.76651 28.691833c-1.146179 9.047821-1.984528 18.888702-2.111755 29.207672h-9.56311c.263275-10.956421 1.429382-21.307007 3.046936-30.690582 1.923248-11.156921 4.442047-20.984253 6.908417-29.078766 2.466339-8.094482 4.874481-14.435211 6.757507-18.730316 1.883057-4.295013 3.247925-6.539368 3.861511-6.318634z"/><path d="m594.951965 374.916046c-.713806 0-1.383545 2.143188-2.036743 5.942505-.653259 3.799316-1.303772 9.270386-1.93988 16.065491-.636169 6.795074-1.240845 14.897858-1.713562 23.942719-.472595 9.0448-.799744 19.036926-.614197 29.57428.005615.350037.024902.687408.032227 1.036499.03418 1.818298.09436 3.632599.161621 5.424194h10.345764c-.054321-1.873077-.120728-3.756042-.161621-5.666107-.006592-.340027-.026123-.660614-.032227-1.001892-.185974-10.273102-.175537-20.131226-.226318-29.125183-.050842-8.993866-.152893-17.124146-.452637-23.977264-.299683-6.852997-.773682-12.401917-1.35791-16.238159-.584167-3.836304-1.290588-5.977081-2.004517-5.977081z"/><path d="m604.444519 383.447021c-.634399.210052-.585022 2.509216-.150818 6.479828.434143 3.970734 1.256897 9.621735 2.111694 16.602631.854858 6.980835 1.719238 15.307953 2.413391 24.597626.611633 8.18454 1.072632 17.142914 1.417969 26.531891h9.653625c-.397156-9.736908-1.143982-19.067261-2.232483-27.563538-1.217102-9.500885-2.834534-17.981079-4.585449-24.984436-1.750916-7.003387-3.628601-12.532867-5.188843-16.247986-1.560181-3.715088-2.804688-5.626068-3.439087-5.416016z"/><path d="m354.441437 460.039368c.021637-1.749878.029144-3.499786 0-5.279877-.022552-1.250641-.078949-2.516357-.130646-3.78009-.313019-7.757019-1.175995-15.212708-2.651825-22.035522-1.476776-6.823822-3.553314-13.019806-6.084778-18.424194-2.311523-5.015686-4.993439-9.34726-7.697845-12.921448-2.703552-3.574127-5.439026-6.382782-7.852997-8.586731-5.455933-3.889618-8.581482-6.556641-8.2948-7.308075.302673-.74231 4.036499.530426 10.505737 3.500885 2.969513 1.85437 6.363037 4.515381 9.777191 8.114655 3.414154 3.599213 6.831146 8.162842 9.803558 13.616486 3.128357 5.811249 5.74353 12.550659 7.59256 19.952148 1.849976 7.400452 2.946991 15.449799 3.25058 23.731171.049866 1.348145.068634 2.700256.078033 4.029266.016022 1.821198-.009399 3.606262-.051666 5.391327h-8.243103z"/><path d="m382.499512 460.038971c.176178-1.732941.372467-3.468384.52005-5.223969.874908-10.408295 1.152679-20.512207.901428-30.046936-.291077-11.162323-1.320129-21.55957-2.704254-30.825012-1.384155-9.265411-3.110443-17.380585-4.715118-24.119019-1.604675-6.738525-3.059143-12.103821-3.952362-15.857178-.893219-3.753265-1.230469-5.902069-.658722-6.187195.571716-.285065 1.992645 1.32019 3.952332 4.668213 1.959778 3.347992 4.473145 8.449585 7.037994 15.116119 2.56485 6.666473 5.15683 14.916473 7.280701 24.489532 2.12384 9.57309 3.754944 20.464172 4.403107 32.23291.55011 10.032074.428101 20.682007-.485413 31.602966-.11673 1.395721-.241577 2.769043-.381348 4.149567h-11.198395z"/><path d="m405.200836 460.038971c2.222015-7.32608 4.518616-14.303528 6.630981-20.841431 2.276245-7.044983 4.332794-13.616302 6.006897-19.646484.97644-3.523376 1.830383-6.850647 2.522369-9.948273.692047-3.097656 1.215729-5.962524 1.612274-8.586639.388153-2.592621.640869-4.94812.806122-7.002686.165253-2.054657.235504-3.802094.286041-5.252075.050476-1.449982.098938-2.601044.182007-3.390198.083038-.789154.21344-1.223297.442078-1.27829.228668-.054932.55014.277008.910126 1.000458.360046.723328.767181 1.850006 1.144196 3.334564.376984 1.484589.708282 3.331451.936157 5.529907.227844 2.198486.328186 4.729431.26001 7.53067-.064941 2.831146-.282928 5.948059-.702118 9.281433-.419189 3.333313-1.02594 6.902588-1.794281 10.615234-1.310089 6.346344-3.063721 13.209381-5.122742 20.42453-1.6698 5.851135-3.55777 11.969238-5.434814 18.229279h-8.685303z"/><path d="m508.227234 460.038971c-.048309-1.311279-.112854-2.607208-.156006-3.934845-.004669-.131165.003754-.26886 0-.400116-.35202-11.207062-.519012-21.899658-.717682-31.67868-.198761-9.779053-.450287-18.642365-.81134-26.076569-.361053-7.434265-.827728-13.444397-1.404205-17.606689s-1.245697-6.469116-1.934662-6.469116c-.688995 0-1.347717 2.292847-1.965851 6.43576-.618225 4.142975-1.204834 10.12674-1.747467 17.539978-.542664 7.413269-1.03598 16.265991-1.341827 26.109894-.305817 9.843903-.416962 20.693726-.062439 32.112183.003815.133789-.003723.26651 0 .400208.037659 1.202698.107483 2.376984.156067 3.567993h9.985413z"/><path d="m482.09317 460.039368c-.210571-5.610352-.658051-10.992706-1.348022-15.921936-.836639-5.972992-2.012573-11.287994-3.318268-15.624634-1.305725-4.337555-2.720459-7.701752-3.896423-9.928802-1.175964-2.227051-2.091522-3.322998-2.525879-3.134155-.434265.189819-.347778 1.648438.042328 4.095459.391052 2.446075 1.057495 5.888611 1.712738 10.180023.656128 4.291351 1.285919 9.427612 1.734375 15.189575.363739 4.678223.59314 9.790283.749176 15.14447h6.849976z"/><path d="m554.957336 369.304474c-.257507-.004059-.674927.340515-1.222046 1.055725-.625061.816681-1.418518 2.11557-2.287964 3.862457-.869568 1.746948-1.809509 3.946869-2.704468 6.613892-.895874 2.666046-1.739075 5.806244-2.392395 9.336182-.598755 3.237671-1.026489 6.802704-1.248352 10.643036-.221863 3.8414-.226563 7.957947.025391 12.255402.376038 6.343658 1.242737 13.089142 2.601074 20.062622 1.358337 6.974548 3.202637 14.172058 5.304565 21.452911.428589 1.484772.862915 2.93631 1.300049 4.390869.171082.572601.347778 1.127045.519836 1.694611h8.685791c-.438049-1.458527-.865723-2.883026-1.299988-4.36264-.421143-1.438538-.830078-2.877014-1.248413-4.334595-2.052979-7.147278-3.905762-14.101715-5.382568-20.730682-1.477722-6.627899-2.570007-12.933441-3.22522-18.868256-.444641-4.00705-.70874-7.845459-.779236-11.420563-.071472-3.576172.048828-6.896118.285706-9.948914.511353-6.642029 1.619629-11.960052 2.417725-15.644745.399536-1.842285.706909-3.288818.858337-4.307404.152222-1.017609.138123-1.598236-.103455-1.722809-.03009-.015076-.067688-.0271-.10437-.0271z"/><path d="m512.890198 369.936523c-.094177-.020081-.220581.018097-.311584.166534-.09082.148315-.133667.43396-.155701.632629-.046692.351196-.050842.807007 0 1.331879.100281 1.037598.391541 2.432068.81012 4.095673.832703 3.30658 2.237244 7.850433 3.925964 13.385559 3.333984 10.922424 7.860291 25.924988 11.373169 43.619995 1.705933 8.601593 3.131836 17.851685 4.112976 27.503845h10.064453c-1.067566-10.545349-2.865723-20.592133-5.047729-29.801422-2.158752-9.118317-4.695068-17.426117-7.291321-24.773468-2.596191-7.34726-5.242676-13.727325-7.665161-18.979645-2.463684-5.343384-4.663452-9.484314-6.356445-12.386719-.858826-1.476349-1.563599-2.598236-2.118896-3.396362-.283691-.412048-.522156-.706573-.716614-.932312-.126282-.207672-.275757-.236816-.373962-.299652-.098083-.062927-.15509-.146332-.249268-.166534z"/><path d="m455.179138 387.561035c.5289.190216.345001 2.486145-.338043 6.474731-.683044 3.988525-1.856079 9.689453-3.224518 16.728638-1.368347 7.039246-2.926331 15.399109-4.108612 24.731781-.987976 7.799042-1.710632 16.281769-1.820251 25.176453h-8.243225c.226898-9.444244 1.232056-18.366211 2.626343-26.454681 1.657867-9.616974 3.828979-18.087982 5.954926-25.065247 2.125977-6.977295 4.201782-12.442871 5.824921-16.145172 1.623108-3.702209 2.799561-5.63678 3.328461-5.446503z"/><path d="m578.031799 389.349915c-.615356 0-1.192566 1.847321-1.755676 5.122345-.56311 3.274933-1.123718 7.990875-1.672058 13.848083-.54834 5.857178-1.069641 12.841675-1.47699 20.638153-.407532 7.796387-.689514 16.409363-.529541 25.49234.004639.301727.021484.59259.027832.893463.02948 1.567383.081299 3.131256.139343 4.675598h8.917786c-.046875-1.614624-.104004-3.23764-.139282-4.884094-.005676-.293121-.022644-.569489-.027832-.863617-.160339-8.855194-.151306-17.352692-.195129-25.105225-.043762-7.752655-.131775-14.760803-.390137-20.667969-.258362-5.907196-.666931-10.690216-1.170471-13.996948-.503601-3.306793-1.112488-5.15213-1.727844-5.15213z"/><path d="m586.214233 396.70343c-.546875.181061-.504272 2.162933-.130066 5.58548.374268 3.422638 1.083435 8.293793 1.820251 14.311127.736877 6.017365 1.481934 13.195099 2.080322 21.202667.527222 7.054901.924622 14.776825 1.222168 22.869934h8.321289c-.342285-8.393036-.986145-16.435608-1.924316-23.759186-1.049072-8.189545-2.443359-15.49939-3.952576-21.536102-1.509277-6.036743-3.127808-10.80307-4.472717-14.005402-1.344849-3.202332-2.417542-4.849548-2.964355-4.668518z"/><path d="m460.864044 460.038971c.176147-1.732941.372467-3.468384.52005-5.223969.874908-10.408295 1.152649-20.512207.901428-30.046936-.291046-11.162323-1.320129-21.55957-2.704254-30.825012-1.384186-9.265411-3.110474-17.380585-4.715088-24.119019-1.604736-6.738525-3.059174-12.103821-3.952393-15.857178-.89325-3.753265-1.230499-5.902069-.658752-6.187195.571716-.285065 1.992676 1.32019 3.952332 4.668213 1.959778 3.347992 4.473175 8.449585 7.038025 15.116119 2.564911 6.666473 5.15683 14.916473 7.28067 24.489532 2.12384 9.57309 3.754944 20.464172 4.403137 32.23291.55014 10.032074.428101 20.682007-.485413 31.602966-.11676 1.395721-.241608 2.769043-.381348 4.149567h-11.198395z"/><path d="m494.197906 369.304474c-.257629-.004059-.674988.340515-1.222107 1.055725-.624176.816681-1.418457 2.11557-2.287964 3.862457-.869537 1.746948-1.80954 3.946869-2.704498 6.613892-.894928 2.666046-1.738098 5.806244-2.392334 9.336182-.598816 3.237671-1.02655 6.802704-1.248352 10.643036-.221863 3.8414-.225616 7.957947.026276 12.255402.376038 6.343658 1.241821 13.089142 2.600159 20.062622 1.358337 6.974548 3.202637 14.172058 5.304565 21.452911.42865 1.484772.862915 2.93631 1.300049 4.390869.172028.572601.347809 1.127045.520752 1.694611h8.684906c-.437103-1.458527-.864807-2.883026-1.300079-4.36264-.420197-1.438538-.830017-2.877014-1.248322-4.334595-2.05307-7.147278-3.905792-14.101715-5.382599-20.730682-1.476776-6.627899-2.569092-12.933441-3.224304-18.868256-.445557-4.00705-.709717-7.845459-.780212-11.420563-.071442-3.576172.049835-6.896118.285767-9.948914.511383-6.642029 1.61969-11.960052 2.418671-15.644745.399536-1.842285.705994-3.288818.858276-4.307404.151367-1.017609.138153-1.598236-.10437-1.722809-.03006-.015076-.066711-.0271-.104279-.0271z"/><path d="m577.552673 374.959229c.094238-.020111.220642.018097.311584.166534.090881.148315.133728.43396.155762.632599.046692.351196.050842.806976 0 1.331909-.100281 1.037567-.391541 2.432068-.810059 4.095612-.832764 3.306641-2.237244 7.850494-3.926086 13.38562-3.333862 10.922424-7.860229 25.924988-11.373108 43.619995-1.705872 8.601593-3.131836 17.851685-4.113037 27.503784h-10.064392c1.067566-10.545288 2.865723-20.592102 5.047791-29.801361 2.158691-9.118317 4.695007-17.426117 7.29126-24.773468 2.596191-7.34726 5.242676-13.727356 7.665222-18.979645 2.463623-5.343384 4.66333-9.484314 6.356445-12.386719.858765-1.476349 1.563538-2.598236 2.118835-3.396393.283691-.412018.522156-.706573.716614-.932312.126282-.207672.275757-.236786.373901-.299622.098083-.062927.155212-.146393.249268-.166534z"/><path d="m620.281189 387.561035c.52887.190216.345032 2.486145-.338013 6.474731-.683044 3.988525-1.856079 9.689453-3.224548 16.728638-1.368286 7.039246-2.92627 15.399109-4.108582 24.731781-.987976 7.799042-1.710632 16.281769-1.820251 25.176453h-8.243225c.226929-9.444244 1.232056-18.366211 2.626404-26.454681 1.657837-9.616974 3.828918-18.087982 5.954895-25.065247 2.125977-6.977295 4.20166-12.442871 5.82489-16.145172 1.623108-3.702209 2.799622-5.63678 3.32843-5.446503z"/><path d="m537.013062 386.336334c-.615295 0-1.192566 1.84729-1.755676 5.122284-.563049 3.274933-1.123718 7.990906-1.672058 13.848083-.54834 5.857208-1.06958 12.841736-1.47699 20.638153-.407471 7.796417-.689453 16.409393-.52948 25.492401.004639.301697.021484.59256.027771.893402.02948 1.567383.081421 3.131287.139343 4.675629h8.917847c-.046875-1.614624-.104004-3.237671-.139282-4.884094-.005737-.293091-.022644-.569519-.027893-.863617-.160278-8.855194-.151306-17.352722-.195129-25.105255-.043762-7.752625-.131775-14.760742-.390137-20.667969-.25824-5.907166-.666931-10.690186-1.170471-13.996948-.503479-3.306793-1.112488-5.152069-1.727844-5.152069z"/><path d="m475.633636 392.685303c-.546814.181061-.504242 2.162903-.129974 5.585449.374207 3.422638 1.083374 8.293793 1.820251 14.311157.736847 6.017334 1.481934 13.195099 2.080261 21.202637.527222 7.054901.924591 14.776825 1.222198 22.869904h8.321289c-.342285-8.393005-.986115-16.435547-1.924316-23.759186-1.049133-8.189514-2.443268-15.499329-3.952576-21.536072-1.509277-6.036713-3.127838-10.80307-4.472687-14.005402s-2.417603-4.849548-2.964447-4.668488z"/></g><path d="m90.172371 447.043427c3.928772.833344 10.348671 7.608093 10.363419-.989105 23.30674-72.257446 33.258461-149.891388 25.372139-226.051819-3.363922-50.670929 3.524033-104.225525 31.365784-146.689087 10.80838-17.335487 23.705307-33.033936 36.902618-48.312956-30.563797 32.60393-58.202164 71.253569-67.130493 117.351652-8.53714 38.117065-5.677376 77.529907-3.9953 116.252228.4077 64.201172-11.49202 128.543304-32.878166 188.439087z"/><path d="m199.029205 86.750061c-29.627243 26.714622-57.203003 59.259338-69.014053 100.557877-3.925575 12.393051-6.544495 25.098938-8.372108 37.967468 1.018974.599411 2.049019 1.182449 3.094063 1.728943 4.619751-36.356171 15.91774-71.801453 37.754028-99.805489 10.978226-14.764061 23.64151-27.813858 36.538071-40.448792v-.000008z"/></g><rect height="63" ry="7.25" transform="matrix(.75677 .595894 -.557625 .808706 12.7001 0)" width="14.5" x="160.062237" y="-82.257573"/><rect height="52.413387" ry="6.031699" transform="matrix(.68554 .687322 -.643181 .732588 12.7001 0)" width="12.063398" x="195.604836" y="-58.534101"/><path d="m50.680641 274.206818c0 .018097.014099.042206.013168.060272-10.840389 5.986023-20.52829 12.828949-21.983459 16.687408 3.674561 1.743866 14.98402.487152 26.693909-2.191925 9.510246 20.054657 30.89959 50.941132 40.877029 53.650391 4.387093.948303 8.7864 1.914673 12.93663 3.758972l.290451.08844.219971.042145c.756721-1.705688-1.461723-13.567261-.79808-16.203186-1.987221-12.919373-47.233471-55.854309-58.249619-55.893494z"/><path d="m134.648529 299.923035c2.532501-1.713776 5.331528-2.884064 8.11467-4.037262 8.253235-3.931763 24.346191-42.333237 22.760361-50.336395-7.237061 1.357101-32.438782 35.040283-32.377197 43.772736.715164 1.652466.507706 9.716919 1.185745 10.746552l.141373-.052277.175049-.093353z"/><path d="m100.203308 327.71106c-1.72036.450409-3.343155 1.080933-4.847015 1.852081 7.868156 9.638611 15.303726 19.915802 21.326836 30.952362 2.123543-.907532 4.030212-2.073212 5.669525-3.484497-6.268257-10.595825-13.86644-20.358185-22.149345-29.319946z"/><path d="m139.756805 285.520447c1.404282.367706 2.728912.882324 3.956482 1.51181-6.422516 7.867706-12.491959 16.256653-17.408409 25.265411-1.733406-.740845-3.289742-1.692291-4.627869-2.844269 5.116562-8.649078 11.318733-16.617737 18.079796-23.932953z"/><path d="m87.280952 113.141022c-7.925354 21.996262-13.098526 44.222687-11.894424 67.18866.724976 35.843689 12.98098 69.295929 23.902031 102.514221 15.764961 55.810242 19.444489 115.536163 12.743538 174.318909 4.063622-.485992 11.990105 3.447327 9.947212-4.047577 5.631714-70.145508-3.136528-140.86319-29.119156-204.785843-15.165436-42.357849-21.260452-90.191193-5.132027-135.089279-.356499-.197594-.101936.130219-.447174-.099091z" fill-rule="evenodd"/><path d="m132.879028 109.668213c-22.747131 32.41568-42.081329 69.278015-43.815086 108.903595-.895264 12.008682-.430489 23.88678.851501 35.66246 1.145676.207855 2.298325.398056 3.456978.551849-4.156578-33.100983-1.526718-67.468613 13.24897-98.604141 7.264572-16.250229 16.596756-31.526749 26.257637-46.513763z" fill-rule="evenodd"/><path d="m118.184219 159.015762c-.841949 2.584213-2.299011 5.156357-5.298256 8.860352-6.22715 4.049011-16.354057 7.836456-15.451653 15.967728-.068214.113495-.098183.188675-.139702.273331-1.260002 1.628418-2.483711 3.293945-3.643791 5.002975.37706.509171.852951.966415 1.401253 1.334 1.022346-1.638947 2.112831-3.243637 3.222893-4.829224 9.261734-.508362 11.928696-10.153381 15.736313-16.495163 3.4431-3.351471 5.840233-5.001633 8.259247-5.970795-1.891533.553024-4.283066 1.675293-6.811455 3.138046 1.292053-2.709946 2.256561-5.264465 2.725151-7.28125z"/><path d="m120.949188 233.706955c.024284.251846.035522.481918.057129.726929-10.023064 10.513031-12.250771 31.828445-13.1437 50.449478-.852577 1.480469.004463 6.085754.930542 8.776642-.748093 2.21933-1.471413 4.457733-2.127068 6.729462.747841.720886 1.617508 1.315491 2.553322 1.728577.649673-2.587708 1.371559-5.12912 2.126564-7.675232 1.393364-.588287 2.028015-2.458038 3.959702-5.305237 5.71566-17.768951 11.582481-39.377609 5.886894-54.731445.059715-.122147.111603-.230347.172829-.354843-.076271.076569-.147865.156479-.223213.234695-.070763-.188446-.118698-.39267-.193001-.579025zm.070465 1.054016c.709633 8.447632-.387245 13.089493-5.01709 28.170303.897179-16.071823 1.444763-20.774963 5.01709-28.170303z"/><path d="m98.338821 134.547897c-.561142 2.849976-1.768051 5.767303-4.449844 10.085739-6.019943 5.104828-16.15712 10.440353-14.202675 18.94516-.057343.129242-.079399.212875-.112389.308044-1.117661 1.89093-2.19268 3.816483-3.195656 5.779846.458145.490814 1.013329.913666 1.633286 1.232025.867424-1.871109 1.810463-3.714798 2.77639-5.540756 9.637947-1.745682 11.234253-12.320709 14.435356-19.54158 3.19043-4.002457 5.496452-6.064575 7.90992-7.40741-1.912636.832779-4.278297 2.334457-6.745049 4.214951 1.016983-3.041946 1.710159-5.876419 1.950661-8.076019z"/><path d="m62.299389 114.34539c1.862339 2.126312 3.405788 4.856461 5.176868 9.681389.458519 8.197784-1.268417 20.131516 6.371262 23.300552.066162.124359.11763.191666.171623.275131.808006 2.063126 1.667 4.108841 2.596321 6.113159.63903-.119354 1.281677-.362686 1.881371-.722641-.936394-1.832733-1.80838-3.715942-2.653641-5.609009 4.191864-9.437073-2.997231-16.901703-6.69487-23.846436-1.237061-5.088799-1.494461-8.290268-1.138901-11.173065-.459099 2.151817-.665489 5.083916-.639542 8.321861-1.747917-2.635445-3.522652-4.868416-5.070499-6.340942h.000008z"/><path d="m59.071522 179.871704c2.590649 1.870972 4.969044 4.505539 8.101902 9.420471 2.468979 9.047562 3.384239 22.86972 12.687843 24.333542.1035.120712.177185.181824.25769.260956 1.396141 2.087677 2.845436 4.142456 4.363335 6.131653.686615-.307281 1.347427-.754868 1.932655-1.320419-1.484978-1.795593-2.910095-3.665512-4.307434-5.552734 2.438263-11.700241-7.3862-18.093124-13.180084-24.855072-2.598312-5.3564-3.64991-8.868607-3.94059-12.190567.000305 2.532242.468918 5.869247 1.270279 9.484818-2.58466-2.472198-5.102699-4.486618-7.185596-5.712646z"/><path d="m120.756531 185.14859c-1.351547 2.306198-3.273491 4.409302-6.880943 7.155945-6.690605 2.08429-16.957321 2.693726-17.90094 11.056793-.088379.091858-.13295.156586-.19017.228149-1.531204 1.226089-3.037079 2.499786-4.492905 3.837234.239601.623764.582649 1.226547 1.012924 1.762711 1.312172-1.310577 2.680344-2.565979 4.062546-3.796082 8.741051 2.380341 13.342644-6.37468 18.281898-11.492188 3.943542-2.258514 6.539299-3.151215 9.005836-3.360977-1.88382-.040039-4.35817.331131-7.035179.996552 1.79866-2.290375 3.25795-4.528854 4.136932-6.388138z"/><path d="m93.704453 116.51461c-3.679932 3.392212-7.316055 6.879303-10.893089 10.422256.13501.082535.286308.15786.427155.235291 3.448502-3.592796 6.946571-7.135971 10.465935-10.657547z"/><path d="m132.879028 109.668198c-22.747116 32.415695-42.081337 69.278-43.815079 108.90361-.895279 12.008667-.430489 23.886795.851479 35.662445 1.145691.207886 2.29834.398071 3.456985.551834-4.156586-33.100967-1.526726-67.468613 13.24897-98.604126 7.264587-16.250198 16.596764-31.526741 26.257645-46.513763z" fill-rule="evenodd"/><path d="m63.484112 231.65979c.069649.224213.142319.423508.211906.641037 13.645344 3.997635 23.671688 20.900742 31.404499 36.178543 1.376785.834778 2.238312 5.137085 2.327225 7.857941 1.54734 1.509857 3.07724 3.046295 4.553596 4.644501-.463387.971588-1.091881 1.896332-1.85199 2.699615-1.586922-1.867035-3.227295-3.660767-4.901726-5.442932-1.575386.182037-2.882645-1.087219-5.814636-2.550507-12.120628-12.214539-25.802418-27.594803-25.908878-43.31929-.102749-.074051-.193768-.141251-.299259-.215393.102451.027237.201981.060165.303852.088547 0-.192474-.028961-.389206-.02459-.582062zm.319038.923386c2.421741 7.473099 5.201252 10.856918 15.272221 21.330444-6.796982-13.124222-9.063782-16.826813-15.272221-21.330444z"/></g></svg>