<svg width="50" height="39" viewBox="0 0 50 39" fill="none" xmlns="http://www.w3.org/2000/svg">
<path d="M45.7109 0.462891H3.76885C2.84188 0.462891 1.95287 0.865409 1.29739 1.5819C0.641922 2.29838 0.273682 3.27015 0.273682 4.28341V34.8476C0.273682 35.8609 0.641922 36.8326 1.29739 37.5491C1.95287 38.2656 2.84188 38.6681 3.76885 38.6681H45.7109C46.6379 38.6681 47.5269 38.2656 48.1824 37.5491C48.8378 36.8326 49.2061 35.8609 49.2061 34.8476V4.28341C49.2061 3.27015 48.8378 2.29838 48.1824 1.5819C47.5269 0.865409 46.6379 0.462891 45.7109 0.462891ZM41.8662 4.28341L24.7399 17.235L7.61354 4.28341H41.8662ZM3.76885 34.8476V6.02175L23.7438 21.1319C24.0363 21.3538 24.3838 21.4726 24.7399 21.4726C25.0959 21.4726 25.4435 21.3538 25.736 21.1319L45.7109 6.02175V34.8476H3.76885Z" fill="#F8F8F8"/>
</svg>
